<svg width="600" height="600" viewBox="0 0 600 600" fill="none" xmlns="http://www.w3.org/2000/svg">
<path d="M300 600C465.685 600 600 516.943 600 414.486C600 312.029 465.685 228.972 300 228.972C134.315 228.972 0 312.029 0 414.486C0 516.943 134.315 600 300 600Z" fill="#F0F0F0"/>
<path d="M237.924 555.06C295.058 555.06 341.374 526.422 341.374 491.094C341.374 455.767 295.058 427.129 237.924 427.129C180.789 427.129 134.473 455.767 134.473 491.094C134.473 526.422 180.789 555.06 237.924 555.06Z" fill="#E0E0E0"/>
<path d="M532.115 411.063L519.979 403.561C519.979 403.561 517.012 375.738 518.986 354.189C521.762 323.911 540.023 287.468 561.798 296.033C583.573 304.599 551.814 335.422 544.747 361.104C537.68 386.786 532.115 411.063 532.115 411.063Z" fill="#6C63FF"/>
<path opacity="0.15" d="M532.115 411.063L519.979 403.561C519.979 403.561 517.012 375.738 518.986 354.189C521.762 323.911 540.023 287.468 561.798 296.033C583.573 304.599 551.814 335.422 544.747 361.104C537.68 386.786 532.115 411.063 532.115 411.063Z" fill="black"/>
<path d="M525.733 407.912C525.927 407.901 526.109 407.809 526.24 407.656C526.371 407.503 526.44 407.301 526.433 407.093C524.307 339.814 555.582 305.962 555.887 305.635C556.026 305.487 556.103 305.285 556.103 305.076C556.103 304.866 556.026 304.665 555.887 304.517C555.82 304.444 555.739 304.386 555.651 304.346C555.562 304.306 555.467 304.286 555.371 304.286C555.276 304.286 555.181 304.306 555.092 304.346C555.004 304.386 554.923 304.444 554.856 304.517C554.525 304.844 522.804 339.186 524.956 407.148C524.96 407.253 524.982 407.357 525.023 407.452C525.064 407.548 525.123 407.633 525.195 407.705C525.267 407.776 525.352 407.831 525.445 407.866C525.537 407.902 525.635 407.917 525.733 407.912Z" fill="white"/>
<path d="M539.739 415.741L531.106 410.408C531.106 410.408 529.629 391.314 538.377 368.128C546.017 347.943 564.864 331.18 574.363 334.699C583.863 338.218 583.621 345.433 578.986 353.002C574.35 360.572 546.196 378.589 539.739 415.741Z" fill="#6C63FF"/>
<path d="M535.184 413.722C535.379 413.718 535.565 413.634 535.703 413.486C535.841 413.339 535.92 413.14 535.923 412.931C535.745 370.378 573.043 341.628 573.425 341.341C573.504 341.283 573.572 341.208 573.624 341.12C573.675 341.033 573.71 340.936 573.725 340.834C573.741 340.732 573.737 340.627 573.714 340.527C573.69 340.427 573.648 340.332 573.59 340.25C573.477 340.082 573.308 339.967 573.117 339.932C572.927 339.896 572.731 339.942 572.571 340.059C572.189 340.346 534.28 369.587 534.446 412.931C534.446 413.141 534.524 413.342 534.662 413.49C534.801 413.639 534.989 413.722 535.184 413.722Z" fill="white"/>
<path d="M83.094 394.355L94.2999 386.253C94.2999 386.253 99.2279 354.884 94.6437 327.211C88.2003 288.395 63.1525 275.493 54.2387 279.585C45.3249 283.676 43.4148 295.228 60.0582 317.378C69.927 330.403 82.7501 358.212 83.094 394.355Z" fill="#6C63FF"/>
<g opacity="0.15">
<path d="M83.094 394.355L94.2999 386.253C94.2999 386.253 99.2279 354.884 94.6437 327.211C88.2003 288.395 63.1525 275.493 54.2387 279.585C45.3249 283.676 43.4148 295.228 60.0582 317.378C69.927 330.403 82.7501 358.212 83.094 394.355Z" fill="black"/>
</g>
<path d="M86.9343 378.807H86.8197C86.7053 378.799 86.5936 378.766 86.4921 378.708C86.3905 378.651 86.3014 378.572 86.2305 378.475C86.1595 378.379 86.1085 378.267 86.0805 378.148C86.0526 378.029 86.0485 377.905 86.0684 377.784C90.1178 341.246 75.7157 301.584 60.0402 285.804C59.8893 285.641 59.8047 285.42 59.8047 285.19C59.8047 284.961 59.8893 284.74 60.0402 284.577C60.1149 284.495 60.204 284.43 60.3024 284.386C60.4008 284.342 60.5065 284.319 60.6132 284.319C60.7199 284.319 60.8256 284.342 60.924 284.386C61.0224 284.43 61.1115 284.495 61.1862 284.577C77.1546 300.643 91.8242 340.959 87.7239 378.029C87.6998 378.238 87.6072 378.431 87.4626 378.574C87.3179 378.716 87.1307 378.799 86.9343 378.807Z" fill="white"/>
<path d="M53.7524 415.55C51.9697 416.695 46.7742 412.563 45.3353 411.567C42.8692 409.843 40.8603 407.466 39.5031 404.666C37.9805 401.491 37.4154 397.889 37.8859 394.355C38.1467 392.511 38.5253 390.688 39.0192 388.9C39.4649 387.113 39.9106 385.326 40.2926 383.526C40.8573 381.775 41.0742 379.917 40.9293 378.07C40.4327 374.429 37.3638 371.933 34.5623 369.792C31.4807 367.405 28.1953 364.254 28.1953 359.863C28.3524 356.412 29.5854 353.118 31.6972 350.507C33.6073 347.779 35.8994 345.406 37.6185 342.555C38.9627 340.58 39.6488 338.179 39.5668 335.736C39.3454 334.23 38.843 332.787 38.0896 331.494C36.587 328.657 34.6387 326.039 33.5818 323.025C32.5249 320.01 32.6013 316.137 34.8552 313.887C36.6507 312.045 39.3885 311.745 41.8716 311.868C44.2115 312.118 46.4718 312.914 48.4933 314.2C55.0768 317.951 58.9479 326.134 65.9134 328.985C68.6003 330.076 71.5291 330.267 74.3178 331.003C77.1066 331.74 79.9844 333.199 81.3215 335.913C83.9574 341.3 79.3605 348.093 81.2451 353.807C82.926 358.881 87.6121 360.736 90.2608 365.277C91.3358 367.294 91.7819 369.626 91.5342 371.933C91.3848 375.828 90.569 379.66 89.1274 383.24C87.4695 386.952 85.5982 390.55 83.5245 394.014C83.5245 394.014 54.0198 415.372 53.7524 415.55Z" fill="#6C63FF"/>
<path d="M70.9679 404.243C70.8608 404.241 70.7552 404.217 70.6569 404.172C70.5587 404.126 70.4698 404.06 70.3953 403.978C70.3208 403.896 70.2622 403.798 70.2228 403.692C70.1833 403.585 70.1639 403.471 70.1656 403.357C70.8787 368.823 55.0122 331.071 43.7808 320.16C43.6212 320.006 43.5249 319.791 43.513 319.561C43.501 319.331 43.5744 319.105 43.7171 318.933C43.7918 318.851 43.881 318.786 43.9794 318.742C44.0778 318.698 44.1834 318.675 44.2902 318.675C44.3969 318.675 44.5025 318.698 44.6009 318.742C44.6993 318.786 44.7885 318.851 44.8632 318.933C56.3238 329.98 72.5087 368.387 71.7828 403.398C71.7812 403.51 71.7588 403.622 71.7169 403.725C71.6751 403.829 71.6146 403.923 71.5389 404.001C71.4632 404.08 71.3738 404.141 71.2759 404.183C71.1779 404.225 71.0732 404.245 70.9679 404.243Z" fill="white"/>
<path d="M65.022 362.168C64.9468 362.188 64.868 362.188 64.7928 362.168C54.3764 358.949 41.4641 358.622 41.3368 358.608C41.2303 358.606 41.1253 358.582 41.0277 358.536C40.9302 358.49 40.8421 358.424 40.7686 358.342C40.6951 358.259 40.6377 358.162 40.5997 358.055C40.5617 357.949 40.5439 357.835 40.5473 357.721C40.5453 357.606 40.5656 357.492 40.607 357.386C40.6484 357.279 40.71 357.183 40.7878 357.104C40.8656 357.024 40.958 356.963 41.059 356.924C41.1601 356.885 41.2677 356.868 41.375 356.876C41.5023 356.876 54.6183 357.217 65.2385 360.49C65.4437 360.556 65.6163 360.707 65.7188 360.908C65.8213 361.11 65.8454 361.347 65.786 361.568C65.7365 361.743 65.6352 361.896 65.4974 362.004C65.3596 362.112 65.1928 362.17 65.022 362.168Z" fill="white"/>
<path d="M365.152 370.61L360.326 367.623C359.522 367.064 358.852 366.309 358.372 365.421C357.892 364.532 357.614 363.534 357.562 362.509V147.671C357.615 146.648 357.891 145.652 358.369 144.763C358.847 143.875 359.513 143.119 360.313 142.557L494.466 59.606C495.32 59.1423 496.265 58.9006 497.222 58.9006C498.18 58.9006 499.125 59.1423 499.979 59.606L504.806 62.5929C505.61 63.1521 506.279 63.9068 506.759 64.7956C507.24 65.6844 507.517 66.6821 507.569 67.7074V282.545C507.516 283.569 507.24 284.565 506.762 285.453C506.285 286.341 505.619 287.097 504.818 287.659L370.666 370.624C369.811 371.089 368.866 371.33 367.907 371.327C366.949 371.325 366.005 371.079 365.152 370.61Z" fill="#455A64"/>
<path d="M507.571 67.2301C507.38 65.7025 506.222 65.1433 504.834 66.0026L370.668 148.967C369.857 149.512 369.187 150.267 368.72 151.163L358.367 144.766C358.83 143.864 359.501 143.104 360.315 142.557L494.468 59.606C495.323 59.1423 496.267 58.9006 497.225 58.9006C498.183 58.9006 499.127 59.1423 499.982 59.606L504.808 62.5929C505.553 63.1069 506.186 63.7874 506.663 64.5878C507.14 65.3881 507.45 66.2895 507.571 67.2301Z" fill="#455A64"/>
<path d="M370.191 370.856C369.376 371.209 368.499 371.371 367.621 371.331C366.742 371.291 365.881 371.05 365.097 370.624L360.258 367.623C359.458 367.061 358.792 366.305 358.314 365.417C357.837 364.528 357.56 363.532 357.508 362.509V147.671C357.541 146.646 357.817 145.646 358.31 144.766L368.663 151.163C368.16 152.044 367.879 153.049 367.848 154.081V368.919C367.899 370.61 368.892 371.387 370.191 370.856Z" fill="#263238"/>
<path d="M367.906 154.109V368.919C367.906 370.801 369.18 371.565 370.67 370.624L504.822 287.659C505.622 287.097 506.288 286.341 506.766 285.453C507.244 284.564 507.52 283.568 507.573 282.545V67.7071C507.573 65.825 506.299 65.0612 504.822 66.0023L370.67 148.967C369.862 149.529 369.19 150.288 368.71 151.181C368.23 152.075 367.954 153.078 367.906 154.109Z" fill="#37474F"/>
<path d="M336.577 235.941C334.846 234.836 326.811 229.94 326.39 229.681C326.063 229.472 325.783 229.186 325.573 228.846C325.362 228.506 325.225 228.119 325.173 227.714C325.12 227.31 325.153 226.898 325.269 226.509C325.385 226.12 325.581 225.764 325.843 225.467L357.563 189.024L367.903 195.379L336.195 231.849C335.946 232.133 335.757 232.471 335.64 232.84C335.523 233.209 335.482 233.601 335.518 233.988C335.554 234.376 335.667 234.751 335.85 235.088C336.033 235.425 336.281 235.716 336.577 235.941Z" fill="#455A64"/>
<path d="M367.904 195.42L336.196 231.849C335.844 232.252 335.614 232.76 335.537 233.305C335.459 233.851 335.538 234.408 335.763 234.905C335.988 235.401 336.348 235.813 336.796 236.086C337.244 236.358 337.758 236.479 338.272 236.432L367.904 233.813V195.42Z" fill="#37474F"/>
<path d="M437.737 129.831C453.375 120.161 466.045 128.004 466.045 147.344C466.045 166.683 453.375 190.183 437.737 199.853C422.1 209.523 409.43 201.68 409.43 182.354C409.43 163.028 422.1 139.501 437.737 129.831Z" fill="#6C63FF"/>
<path d="M437.53 145.053C442.623 141.916 446.711 144.453 446.711 150.726C446.538 154.137 445.616 157.455 444.021 160.413C442.425 163.37 440.202 165.883 437.53 167.748C432.436 170.884 428.336 168.348 428.336 162.074C428.511 158.662 429.435 155.343 431.032 152.385C432.63 149.428 434.856 146.916 437.53 145.053Z" fill="white"/>
<path d="M455.638 178.495C455.638 168.197 448.876 164.01 440.548 169.166L435.34 172.385C427.012 177.54 420.25 190.115 420.25 200.385V203.208C421.822 203.746 423.464 204.018 425.114 204.013C429.582 203.85 433.932 202.44 437.734 199.921C444.973 195.146 451.096 188.661 455.638 180.963V178.495Z" fill="white"/>
<path d="M419.802 295.583L455.661 273.407C457.189 272.465 458.425 273.229 458.425 275.111V287.482C458.373 288.507 458.095 289.505 457.615 290.394C457.135 291.282 456.465 292.037 455.661 292.596L419.802 314.773C418.274 315.714 417.039 314.95 417.039 313.068V300.698C417.091 299.672 417.368 298.675 417.849 297.786C418.329 296.897 418.998 296.142 419.802 295.583Z" fill="#6C63FF"/>
<path d="M402.25 267.951L473.191 224.062C475.012 222.93 476.502 223.844 476.502 226.108V230.704C476.44 231.934 476.108 233.131 475.533 234.197C474.957 235.263 474.155 236.169 473.191 236.841L402.212 280.731C400.391 281.863 398.914 280.949 398.914 278.685V274.13C398.972 272.89 399.305 271.683 399.885 270.609C400.465 269.534 401.276 268.623 402.25 267.951Z" fill="#FAFAFA"/>
<path d="M410.553 236.187C411.521 235.586 412.272 235.491 412.807 235.914C413.342 236.337 413.609 237.278 413.609 238.723C413.636 240.043 413.361 241.349 412.807 242.529C412.307 243.594 411.522 244.477 410.553 245.065L408.643 246.252V250.657C408.639 250.809 408.604 250.958 408.541 251.094C408.496 251.217 408.416 251.322 408.312 251.394L407.344 251.994C407.311 252.02 407.271 252.035 407.229 252.035C407.188 252.035 407.148 252.02 407.115 251.994C407.046 251.902 407.014 251.784 407.026 251.667V238.914C407.025 238.764 407.055 238.614 407.115 238.478C407.163 238.357 407.243 238.253 407.344 238.178L410.553 236.187ZM408.643 243.783L410.489 242.638C410.936 242.368 411.312 241.984 411.584 241.519C411.874 240.972 412.015 240.348 411.992 239.719C411.992 238.983 411.852 238.56 411.584 238.437C411.396 238.388 411.199 238.386 411.009 238.43C410.819 238.475 410.641 238.566 410.489 238.696L408.643 239.842V243.783Z" fill="#FAFAFA"/>
<path d="M418.944 230.99C419.071 230.908 419.173 230.908 419.236 230.99C419.318 231.113 419.374 231.252 419.402 231.399L422.344 242.065C422.344 242.065 422.344 242.147 422.344 242.188C422.342 242.34 422.307 242.489 422.242 242.624C422.197 242.748 422.116 242.853 422.012 242.924L421.147 243.456C420.994 243.552 420.879 243.565 420.815 243.456C420.754 243.388 420.71 243.303 420.688 243.211L420.166 241.342L416.346 243.688L415.836 246.198C415.8 246.333 415.753 246.466 415.696 246.593C415.633 246.759 415.515 246.895 415.365 246.975L414.499 247.507C414.467 247.536 414.427 247.552 414.385 247.552C414.343 247.552 414.302 247.536 414.27 247.507C414.204 247.419 414.172 247.306 414.181 247.193C414.174 247.143 414.174 247.093 414.181 247.043L417.11 232.75C417.145 232.54 417.201 232.334 417.275 232.136C417.338 231.993 417.44 231.873 417.568 231.795L418.944 230.99ZM419.606 239.255L418.332 234.441L417.059 240.878L419.606 239.255Z" fill="#FAFAFA"/>
<path d="M426.802 225.93C427.228 225.642 427.713 225.469 428.216 225.426C428.571 225.391 428.927 225.477 429.234 225.671C429.514 225.865 429.731 226.146 429.858 226.476C429.997 226.811 430.075 227.173 430.088 227.54C430.096 227.691 430.065 227.842 429.998 227.976C429.954 228.099 429.873 228.204 429.769 228.276L428.929 228.794C428.789 228.876 428.687 228.89 428.623 228.794C428.544 228.739 428.479 228.664 428.432 228.576C428.381 228.453 428.307 228.343 428.216 228.252C428.124 228.16 428.015 228.09 427.897 228.044C427.51 227.985 427.116 228.093 426.802 228.344C426.596 228.487 426.4 228.646 426.216 228.822C426.027 229.008 425.86 229.219 425.72 229.449C425.584 229.671 425.473 229.909 425.389 230.158C425.314 230.395 425.275 230.644 425.274 230.895C425.259 231.124 425.298 231.354 425.389 231.563C425.428 231.636 425.483 231.698 425.55 231.743C425.616 231.788 425.692 231.816 425.771 231.822C426.007 231.866 426.248 231.866 426.484 231.822L427.592 231.563C428.005 231.432 428.435 231.377 428.865 231.399C429.172 231.398 429.471 231.504 429.718 231.699C429.951 231.909 430.12 232.19 430.202 232.504C430.327 232.946 430.383 233.407 430.368 233.868C430.367 234.477 430.285 235.083 430.126 235.668C429.97 236.27 429.744 236.847 429.451 237.387C429.142 237.94 428.775 238.452 428.356 238.914C427.928 239.39 427.439 239.799 426.904 240.128C426.512 240.384 426.081 240.564 425.631 240.66C425.264 240.736 424.886 240.703 424.536 240.565C424.217 240.406 423.954 240.143 423.784 239.814C423.576 239.394 423.463 238.927 423.453 238.451C423.452 238.295 423.482 238.142 423.542 238C423.599 237.884 423.682 237.786 423.784 237.714L424.625 237.196C424.752 237.114 424.854 237.087 424.93 237.128C425.007 237.169 425.058 237.237 425.109 237.359C425.161 237.5 425.23 237.633 425.312 237.755C425.392 237.874 425.503 237.964 425.631 238.014C425.798 238.056 425.972 238.056 426.14 238.014C426.41 237.946 426.668 237.831 426.904 237.673C427.151 237.522 427.385 237.349 427.604 237.155C428.033 236.792 428.373 236.324 428.598 235.791C428.7 235.518 428.752 235.226 428.751 234.932C428.762 234.825 428.754 234.717 428.725 234.613C428.697 234.51 428.649 234.414 428.585 234.332C428.516 234.267 428.435 234.218 428.347 234.19C428.259 234.162 428.167 234.154 428.076 234.168C427.787 234.181 427.5 234.231 427.222 234.318C426.891 234.4 426.509 234.495 426.064 234.577C425.723 234.669 425.369 234.696 425.019 234.659C424.744 234.64 424.483 234.52 424.281 234.318C424.061 234.087 423.906 233.794 423.835 233.472C423.733 232.999 423.686 232.513 423.695 232.027C423.694 231.426 423.776 230.829 423.937 230.254C424.089 229.662 424.312 229.093 424.599 228.562C424.875 228.035 425.208 227.545 425.592 227.103C425.942 226.653 426.349 226.258 426.802 225.93Z" fill="#FAFAFA"/>
<path d="M435.164 220.775C435.587 220.478 436.073 220.3 436.578 220.257C436.933 220.224 437.288 220.31 437.596 220.502C437.868 220.701 438.081 220.981 438.208 221.307C438.347 221.642 438.424 222.004 438.437 222.371C438.452 222.523 438.421 222.676 438.348 222.807C438.303 222.93 438.223 223.035 438.118 223.107L437.278 223.625C437.151 223.707 437.049 223.734 436.972 223.625C436.891 223.571 436.829 223.489 436.794 223.393C436.678 223.154 436.483 222.969 436.247 222.875C436.057 222.845 435.863 222.856 435.677 222.908C435.491 222.96 435.317 223.05 435.164 223.175C434.951 223.314 434.751 223.474 434.566 223.653C434.381 223.839 434.218 224.05 434.082 224.28C433.941 224.499 433.83 224.738 433.751 224.989C433.671 225.226 433.628 225.474 433.623 225.726C433.608 225.955 433.648 226.185 433.738 226.394C433.777 226.467 433.832 226.529 433.899 226.574C433.966 226.619 434.041 226.647 434.12 226.653C434.356 226.697 434.597 226.697 434.833 226.653L435.941 226.394C436.355 226.27 436.785 226.215 437.214 226.23C437.522 226.227 437.822 226.333 438.068 226.53C438.3 226.743 438.472 227.022 438.564 227.335C438.677 227.779 438.728 228.239 438.717 228.699C438.716 229.308 438.635 229.914 438.475 230.499C438.32 231.101 438.093 231.678 437.8 232.218C437.493 232.776 437.126 233.293 436.705 233.759C436.275 234.223 435.791 234.626 435.266 234.959C434.873 235.214 434.443 235.394 433.993 235.491C433.63 235.565 433.256 235.532 432.91 235.396C432.586 235.242 432.317 234.978 432.146 234.645C431.937 234.226 431.828 233.757 431.828 233.282C431.813 233.13 431.844 232.977 431.917 232.845C431.962 232.722 432.042 232.617 432.146 232.545L432.987 232.027C433.114 231.945 433.229 231.918 433.292 231.959C433.337 231.98 433.376 232.012 433.407 232.052C433.437 232.093 433.459 232.14 433.471 232.19C433.528 232.328 433.596 232.46 433.674 232.586C433.758 232.706 433.873 232.796 434.005 232.845C434.173 232.887 434.347 232.887 434.515 232.845C434.785 232.777 435.043 232.662 435.279 232.504C435.52 232.35 435.75 232.177 435.966 231.986C436.19 231.799 436.387 231.578 436.552 231.331C436.717 231.096 436.854 230.839 436.96 230.567C437.062 230.294 437.114 230.002 437.113 229.708C437.124 229.601 437.116 229.493 437.087 229.39C437.059 229.287 437.011 229.191 436.947 229.108C436.878 229.043 436.797 228.995 436.709 228.967C436.621 228.938 436.529 228.931 436.438 228.944C436.153 228.963 435.872 229.013 435.597 229.094C435.266 229.176 434.871 229.272 434.438 229.354C434.093 229.445 433.736 229.473 433.381 229.435C433.105 229.42 432.843 229.299 432.643 229.094C432.427 228.862 432.277 228.569 432.21 228.249C432.097 227.781 432.045 227.299 432.057 226.817C432.062 226.212 432.143 225.611 432.299 225.03C432.457 224.44 432.679 223.873 432.961 223.339C433.237 222.808 433.575 222.318 433.967 221.88C434.31 221.447 434.714 221.074 435.164 220.775Z" fill="#FAFAFA"/>
<path d="M444.446 222.48L443.414 229.013C443.384 229.209 443.333 229.401 443.262 229.585C443.212 229.732 443.118 229.857 442.994 229.94L442.026 230.54C441.899 230.622 441.81 230.622 441.746 230.54C441.661 230.428 441.612 230.289 441.606 230.145L440.078 218.62C440.078 218.62 440.078 218.511 440.078 218.47C440.082 218.318 440.117 218.169 440.18 218.033C440.228 217.912 440.308 217.808 440.409 217.733L441.288 217.188C441.361 217.156 441.444 217.156 441.517 217.188C441.593 217.188 441.644 217.297 441.67 217.515L442.676 225.276L443.555 219.452C443.577 219.307 443.616 219.165 443.669 219.029C443.72 218.856 443.829 218.71 443.975 218.62L444.955 218.006C445.095 217.924 445.197 217.938 445.261 218.006C445.316 218.093 445.355 218.19 445.375 218.292L446.267 223.025L447.273 214.024C447.285 213.846 447.333 213.674 447.413 213.519C447.472 213.417 447.55 213.329 447.642 213.26L448.521 212.714C448.554 212.688 448.594 212.673 448.635 212.673C448.677 212.673 448.717 212.688 448.75 212.714C448.786 212.759 448.814 212.811 448.831 212.867C448.849 212.923 448.856 212.983 448.852 213.042C448.857 213.096 448.857 213.151 448.852 213.205L447.324 226.612C447.298 226.808 447.251 227.001 447.184 227.185C447.126 227.331 447.028 227.454 446.904 227.54L445.923 228.14C445.808 228.208 445.719 228.208 445.656 228.14C445.591 228.014 445.54 227.882 445.503 227.744L444.446 222.48Z" fill="#FAFAFA"/>
<path d="M450.412 216.697C450.44 215.94 450.525 215.188 450.667 214.446C450.812 213.722 451.034 213.017 451.329 212.346C451.609 211.694 451.969 211.084 452.398 210.532C452.834 209.985 453.355 209.523 453.939 209.168C454.388 208.842 454.913 208.658 455.455 208.636C455.859 208.641 456.247 208.812 456.537 209.114C456.845 209.485 457.068 209.929 457.186 210.409C457.351 211.036 457.441 211.682 457.454 212.332C457.454 212.578 457.454 212.851 457.454 213.151C457.454 213.451 457.454 213.764 457.454 214.092C457.454 214.419 457.454 214.733 457.454 215.033C457.454 215.333 457.454 215.619 457.454 215.878C457.426 216.63 457.341 217.378 457.199 218.115C457.052 218.838 456.834 219.542 456.55 220.216C456.26 220.866 455.897 221.475 455.467 222.029C455.032 222.572 454.516 223.033 453.939 223.393C453.48 223.717 452.948 223.901 452.398 223.925C452.2 223.93 452.003 223.891 451.819 223.811C451.635 223.731 451.468 223.612 451.329 223.462C450.997 223.08 450.768 222.608 450.667 222.098C450.515 221.469 450.43 220.824 450.412 220.175C450.412 219.929 450.412 219.656 450.412 219.356C450.412 219.056 450.412 218.743 450.412 218.415C450.412 218.088 450.412 217.788 450.412 217.474C450.412 217.16 450.399 216.942 450.412 216.697ZM455.837 213.437C455.865 213.103 455.83 212.767 455.734 212.448C455.637 212.129 455.482 211.835 455.276 211.582C454.945 211.269 454.487 211.282 453.939 211.582C453.345 211.956 452.873 212.519 452.589 213.192C452.228 213.987 452.037 214.858 452.029 215.742C452.029 216.247 452.029 216.806 452.029 217.42C452.029 218.033 452.029 218.579 452.029 219.07C452.001 219.404 452.036 219.74 452.132 220.059C452.228 220.377 452.384 220.672 452.589 220.925C452.921 221.225 453.379 221.198 453.939 220.857C454.524 220.48 454.99 219.924 455.276 219.261C455.638 218.471 455.829 217.604 455.837 216.724C455.837 216.206 455.837 215.647 455.837 215.033C455.837 214.419 455.849 213.928 455.837 213.437Z" fill="#FAFAFA"/>
<path d="M463.002 203.727C464.008 203.113 464.759 203.017 465.281 203.467C465.591 203.833 465.821 204.266 465.955 204.738C466.089 205.21 466.125 205.707 466.058 206.195C466.069 207.122 465.935 208.043 465.663 208.923C465.405 209.742 465.003 210.501 464.479 211.16L466.135 215.019C466.14 215.083 466.14 215.147 466.135 215.21C466.135 215.333 466.109 215.455 466.058 215.565C466.023 215.664 465.961 215.75 465.88 215.811L464.861 216.438C464.696 216.533 464.581 216.547 464.505 216.438C464.437 216.366 464.381 216.283 464.339 216.192L462.773 212.551L461.181 213.533V218.143C461.182 218.294 461.152 218.443 461.092 218.579C461.039 218.698 460.961 218.801 460.863 218.879L459.895 219.479C459.863 219.508 459.822 219.524 459.78 219.524C459.738 219.524 459.698 219.508 459.666 219.479C459.629 219.438 459.601 219.388 459.584 219.334C459.566 219.28 459.559 219.223 459.564 219.166V206.413C459.568 206.262 459.602 206.113 459.666 205.977C459.711 205.854 459.791 205.749 459.895 205.677L463.002 203.727ZM461.207 211.064L463.002 210.028C463.441 209.765 463.816 209.396 464.097 208.95C464.392 208.425 464.534 207.817 464.505 207.204C464.505 206.468 464.365 206.059 464.097 205.977C463.71 205.921 463.317 206.028 463.002 206.277L461.27 207.341L461.207 211.064Z" fill="#FAFAFA"/>
<path d="M471.533 198.475C471.995 198.152 472.524 197.956 473.074 197.903C473.473 197.887 473.861 198.039 474.156 198.325C474.494 198.705 474.727 199.177 474.831 199.689C475.003 200.366 475.097 201.062 475.112 201.762C475.112 202.717 475.112 203.699 475.112 204.695C475.085 205.507 474.992 206.315 474.831 207.109C474.686 207.847 474.464 208.565 474.169 209.25C473.885 209.879 473.525 210.466 473.1 210.996C472.674 211.538 472.166 211.999 471.597 212.36L468.579 214.119C468.547 214.148 468.506 214.164 468.464 214.164C468.422 214.164 468.382 214.148 468.35 214.119C468.313 214.078 468.284 214.028 468.267 213.974C468.249 213.92 468.243 213.862 468.248 213.805V201.053C468.252 200.901 468.286 200.752 468.35 200.617C468.395 200.493 468.475 200.388 468.579 200.317L471.533 198.475ZM473.494 202.717C473.489 202.348 473.437 201.981 473.341 201.626C473.282 201.357 473.154 201.112 472.972 200.917C472.892 200.831 472.797 200.764 472.692 200.719C472.587 200.675 472.474 200.654 472.361 200.658C472.042 200.68 471.734 200.793 471.47 200.985L469.865 201.967V210.859L471.533 209.836C471.856 209.635 472.144 209.377 472.386 209.073C472.624 208.774 472.825 208.444 472.985 208.091C473.144 207.715 473.263 207.322 473.341 206.918C473.43 206.497 473.481 206.067 473.494 205.636C473.532 204.64 473.532 203.672 473.494 202.717Z" fill="#FAFAFA"/>
<path d="M296.663 0.522751C298.861 1.04659 300.979 1.90064 302.954 3.05956C304.845 4.14831 306.539 5.58926 307.958 7.31484C309.316 8.97476 310.324 10.9285 310.913 13.0431C311.514 15.3066 311.557 17.6982 311.04 19.9852C310.699 21.7985 310.028 23.5223 309.066 25.0588C308.188 26.3728 307.142 27.5481 305.959 28.5504C304.797 29.5167 303.557 30.3702 302.254 31.1008L298.586 33.1875C297.481 33.8047 296.433 34.5307 295.454 35.3561C294.568 36.0838 293.889 37.0614 293.493 38.1793C293.299 38.69 292.977 39.1336 292.563 39.4614C292.367 39.6243 292.139 39.7373 291.896 39.7917C291.654 39.846 291.403 39.8403 291.162 39.775L285.763 38.493C285.503 38.4346 285.257 38.3213 285.038 38.1597C284.819 37.9982 284.633 37.7915 284.49 37.5519C284.337 37.3292 284.236 37.0711 284.194 36.7986C284.152 36.5262 284.17 36.2469 284.248 35.9835C284.682 34.1926 285.449 32.5135 286.502 31.0463C287.462 29.7484 288.575 28.5886 289.812 27.5957C291.018 26.6504 292.296 25.8154 293.633 25.0998C294.906 24.4042 296.179 23.7359 297.287 23.0676C298.318 22.4743 299.287 21.7657 300.178 20.9536C300.96 20.2525 301.502 19.2929 301.719 18.2258C301.921 17.2992 301.911 16.3338 301.69 15.4122C301.468 14.4907 301.041 13.6403 300.445 12.934C298.956 11.1928 296.966 10.0356 294.791 9.64707C290.768 8.69236 287.372 10.1426 284.604 13.9978C284.337 14.4186 284 14.7838 283.611 15.0753C283.171 15.3087 282.664 15.3478 282.198 15.1844L276.454 13.8205C276.045 13.7358 275.683 13.4808 275.449 13.1113C275.323 12.9139 275.239 12.6899 275.202 12.4546C275.164 12.2193 275.175 11.9781 275.232 11.7474C275.72 9.85226 276.629 8.1116 277.881 6.67383C279.293 5.00643 280.97 3.62102 282.834 2.5822C284.873 1.43982 287.07 0.656911 289.341 0.263617C291.775 -0.160289 294.262 -0.0722722 296.663 0.522751ZM290.564 44.4122C291.069 44.5392 291.508 44.8729 291.786 45.3419C292.064 45.8109 292.161 46.3779 292.054 46.9218L290.678 53.6047C290.632 53.8846 290.531 54.1507 290.381 54.3857C290.232 54.6208 290.038 54.8194 289.812 54.9686C289.599 55.126 289.358 55.234 289.103 55.2857C288.849 55.3374 288.587 55.3316 288.335 55.2687L282.172 53.7548C281.91 53.7074 281.661 53.6001 281.441 53.44C281.221 53.28 281.036 53.071 280.899 52.8273C280.756 52.597 280.659 52.3378 280.613 52.0658C280.567 51.7938 280.573 51.5146 280.631 51.2452L282.019 44.5623C282.138 44.0205 282.449 43.5495 282.886 43.2491C283.324 42.9487 283.853 42.8424 284.362 42.9529L290.564 44.4122Z" fill="#6C63FF"/>
<path d="M303.46 64.5022C304.993 64.2388 306.553 64.2066 308.095 64.4067C309.567 64.5942 310.998 65.0558 312.322 65.7706C313.584 66.4714 314.694 67.447 315.582 68.6347C316.381 69.7972 316.943 71.126 317.233 72.5355C317.522 73.945 317.533 75.4039 317.263 76.818C317.021 77.9052 316.63 78.9483 316.104 79.914C315.598 80.8533 315.009 81.7392 314.347 82.5599C313.698 83.3782 313.074 84.1556 312.501 84.9058C311.94 85.6046 311.441 86.358 311.011 87.1562C310.607 87.8557 310.404 88.6664 310.425 89.4884C310.414 89.8726 310.313 90.2476 310.132 90.5795C310.04 90.7324 309.919 90.8626 309.776 90.9614C309.633 91.0601 309.473 91.1252 309.305 91.1523L305.484 91.807C305.306 91.8417 305.123 91.8378 304.945 91.7957C304.768 91.7535 304.601 91.6739 304.453 91.5615C304.302 91.4602 304.177 91.322 304.086 91.1584C303.995 90.9948 303.942 90.8104 303.931 90.6204C303.771 89.3513 303.857 88.0604 304.185 86.8288C304.485 85.7386 304.913 84.6936 305.459 83.7192C305.994 82.7841 306.608 81.903 307.293 81.0869C307.967 80.2686 308.566 79.5048 309.152 78.7683C309.675 78.1106 310.127 77.3924 310.502 76.6271C310.833 75.9683 310.954 75.2114 310.845 74.4721C310.75 73.8215 310.508 73.2052 310.143 72.6757C309.777 72.1462 309.297 71.7191 308.744 71.4307C307.375 70.7224 305.826 70.5209 304.338 70.8579C302.992 71.0688 301.739 71.7207 300.752 72.7243C299.764 73.7279 299.091 75.0339 298.824 76.4634C298.75 76.8072 298.621 77.1348 298.442 77.4317C298.215 77.6906 297.907 77.8509 297.577 77.8818L293.553 78.5774C293.27 78.6354 292.977 78.5717 292.738 78.4001C292.615 78.3098 292.512 78.1926 292.435 78.0562C292.358 77.9197 292.309 77.7673 292.292 77.609C292.172 76.2556 292.369 74.8916 292.865 73.6402C293.368 72.1839 294.11 70.8354 295.055 69.6577C296.091 68.3681 297.312 67.2631 298.672 66.3844C300.139 65.4313 301.765 64.7921 303.46 64.5022ZM310.03 94.3029C310.206 94.2731 310.385 94.2806 310.557 94.3251C310.73 94.3696 310.893 94.4501 311.036 94.562C311.186 94.6677 311.314 94.8062 311.41 94.9683C311.507 95.1305 311.57 95.3128 311.597 95.5031L312.31 100.181C312.365 100.561 312.278 100.948 312.068 101.26C311.859 101.571 311.543 101.781 311.189 101.845L306.923 102.595C306.569 102.654 306.208 102.561 305.917 102.336C305.77 102.229 305.644 102.09 305.55 101.928C305.456 101.766 305.394 101.584 305.37 101.395L304.657 96.7169C304.624 96.5292 304.629 96.3363 304.671 96.1507C304.712 95.9651 304.79 95.7909 304.899 95.6395C304.999 95.4813 305.128 95.3473 305.28 95.2463C305.431 95.1452 305.601 95.0794 305.777 95.053L310.03 94.3029Z" fill="#6C63FF"/>
<g opacity="0.2">
<path d="M303.465 64.5022C304.999 64.2388 306.559 64.2066 308.101 64.4067C309.573 64.5942 311.004 65.0558 312.328 65.7706C313.59 66.4714 314.7 67.447 315.588 68.6347C316.387 69.7972 316.949 71.126 317.239 72.5355C317.528 73.945 317.538 75.4039 317.269 76.818C317.026 77.9052 316.636 78.9483 316.11 79.914C315.604 80.8533 315.015 81.7392 314.353 82.5599C313.704 83.3782 313.08 84.1556 312.507 84.9058C311.946 85.6046 311.447 86.358 311.017 87.1562C310.613 87.8557 310.41 88.6664 310.431 89.4884C310.42 89.8726 310.319 90.2476 310.138 90.5795C310.046 90.7324 309.925 90.8626 309.782 90.9614C309.639 91.0601 309.478 91.1252 309.31 91.1523L305.49 91.807C305.312 91.8417 305.128 91.8378 304.951 91.7957C304.774 91.7535 304.607 91.6739 304.459 91.5615C304.308 91.4602 304.182 91.322 304.092 91.1584C304.001 90.9948 303.948 90.8104 303.937 90.6204C303.777 89.3513 303.863 88.0604 304.191 86.8288C304.491 85.7386 304.919 84.6936 305.465 83.7192C306 82.7841 306.614 81.903 307.298 81.0869C307.973 80.2686 308.572 79.5048 309.158 78.7683C309.68 78.1106 310.133 77.3924 310.507 76.6271C310.839 75.9683 310.96 75.2114 310.851 74.4721C310.755 73.8215 310.514 73.2052 310.149 72.6757C309.783 72.1462 309.303 71.7191 308.75 71.4307C307.381 70.7224 305.831 70.5209 304.344 70.8579C302.997 71.0688 301.745 71.7207 300.757 72.7243C299.77 73.7279 299.097 75.0339 298.83 76.4634C298.756 76.8072 298.626 77.1348 298.448 77.4317C298.221 77.6906 297.913 77.8509 297.582 77.8818L293.558 78.5774C293.276 78.6354 292.983 78.5717 292.743 78.4001C292.621 78.3098 292.518 78.1926 292.441 78.0562C292.364 77.9197 292.315 77.7673 292.298 77.609C292.178 76.2556 292.375 74.8916 292.871 73.6402C293.374 72.1839 294.116 70.8354 295.061 69.6577C296.097 68.3681 297.318 67.2631 298.677 66.3844C300.145 65.4313 301.771 64.7921 303.465 64.5022ZM310.036 94.3029C310.212 94.2731 310.391 94.2806 310.563 94.3251C310.736 94.3696 310.899 94.4501 311.042 94.562C311.192 94.6677 311.32 94.8062 311.416 94.9683C311.513 95.1305 311.576 95.3128 311.602 95.5031L312.316 100.181C312.371 100.561 312.284 100.948 312.074 101.26C311.865 101.571 311.549 101.781 311.195 101.845L306.929 102.595C306.575 102.654 306.214 102.561 305.923 102.336C305.775 102.229 305.65 102.09 305.556 101.928C305.462 101.766 305.4 101.584 305.376 101.395L304.662 96.7169C304.63 96.5292 304.635 96.3363 304.677 96.1507C304.718 95.9651 304.796 95.7909 304.904 95.6395C305.004 95.4813 305.134 95.3473 305.286 95.2463C305.437 95.1452 305.606 95.0794 305.783 95.053L310.036 94.3029Z" fill="black"/>
</g>
<path d="M339.474 71.8536C339.648 71.9829 339.795 72.1488 339.906 72.3411C340.018 72.5334 340.092 72.7481 340.123 72.972C340.164 73.1939 340.161 73.4224 340.115 73.643C340.069 73.8637 339.981 74.0717 339.856 74.254L336.825 78.823C336.705 79.009 336.55 79.1666 336.37 79.2862C336.191 79.4058 335.99 79.4849 335.781 79.5186C335.574 79.562 335.361 79.559 335.155 79.5097C334.949 79.4604 334.754 79.3659 334.584 79.2322L330.407 76.0544C330.233 75.9268 330.087 75.7612 329.977 75.5684C329.867 75.3756 329.797 75.16 329.771 74.936C329.73 74.7141 329.733 74.4856 329.779 74.265C329.825 74.0443 329.913 73.8363 330.038 73.6539L333.107 69.085C333.355 68.7146 333.729 68.464 334.149 68.3874C334.569 68.3108 334.999 68.4144 335.348 68.6758L339.474 71.8536ZM357.098 40.9073C358.621 42.0505 359.977 43.4294 361.122 44.999C362.238 46.459 363.101 48.1221 363.668 49.9089C364.197 51.6212 364.375 53.4354 364.191 55.228C363.975 57.1396 363.299 58.9584 362.23 60.5062C361.435 61.7577 360.413 62.8246 359.224 63.6431C358.178 64.3455 357.041 64.8786 355.85 65.2252C354.689 65.5501 353.505 65.7691 352.31 65.8799L348.923 66.2072C347.907 66.2941 346.901 66.4813 345.917 66.7664C345.01 66.987 344.18 67.4789 343.523 68.1848C343.227 68.5074 342.852 68.7342 342.441 68.8395C342.245 68.8995 342.039 68.9086 341.84 68.8659C341.641 68.8232 341.454 68.7299 341.295 68.594L337.602 65.7844C337.249 65.5144 337.007 65.1088 336.927 64.6524C336.88 64.4312 336.881 64.2011 336.932 63.9807C336.983 63.7604 337.082 63.5559 337.22 63.384C338.083 62.1851 339.161 61.1834 340.391 60.438C341.498 59.7903 342.68 59.2997 343.905 58.9787C345.088 58.6713 346.294 58.475 347.509 58.3922C348.706 58.3104 349.827 58.2149 350.871 58.1058C351.826 58.0154 352.77 57.8142 353.685 57.5057C354.485 57.2202 355.175 56.6591 355.646 55.9099C356.072 55.2773 356.348 54.544 356.453 53.7722C356.557 53.0005 356.485 52.2132 356.245 51.4774C355.642 49.6595 354.49 48.1092 352.972 47.072C350.221 44.9717 347.22 44.9035 343.969 46.8675C343.642 47.0905 343.279 47.2477 342.899 47.3312C342.701 47.3459 342.503 47.3186 342.315 47.2507C342.127 47.1828 341.953 47.0757 341.804 46.9356L337.882 43.9488C337.74 43.8478 337.618 43.7173 337.524 43.565C337.43 43.4127 337.366 43.2418 337.335 43.0623C337.304 42.8766 337.31 42.6863 337.351 42.5032C337.393 42.3201 337.47 42.1482 337.577 41.9984C338.502 40.7285 339.704 39.7216 341.078 39.0661C342.639 38.3088 344.311 37.8473 346.019 37.7022C347.899 37.534 349.791 37.6952 351.622 38.1796C353.599 38.6896 355.46 39.617 357.098 40.9073Z" fill="#6C63FF"/>
<g opacity="0.6">
<path d="M339.474 71.8536C339.648 71.9829 339.795 72.1488 339.906 72.3411C340.018 72.5334 340.092 72.7481 340.123 72.972C340.164 73.1939 340.161 73.4224 340.115 73.643C340.069 73.8637 339.981 74.0717 339.856 74.254L336.825 78.823C336.705 79.009 336.55 79.1666 336.37 79.2862C336.191 79.4058 335.99 79.4849 335.781 79.5186C335.574 79.562 335.361 79.559 335.155 79.5097C334.949 79.4604 334.754 79.3659 334.584 79.2322L330.407 76.0544C330.233 75.9268 330.087 75.7612 329.977 75.5684C329.867 75.3756 329.797 75.16 329.771 74.936C329.73 74.7141 329.733 74.4856 329.779 74.265C329.825 74.0443 329.913 73.8363 330.038 73.6539L333.107 69.085C333.355 68.7146 333.729 68.464 334.149 68.3874C334.569 68.3108 334.999 68.4144 335.348 68.6758L339.474 71.8536ZM357.098 40.9073C358.621 42.0505 359.977 43.4294 361.122 44.999C362.238 46.459 363.101 48.1221 363.668 49.9089C364.197 51.6212 364.375 53.4354 364.191 55.228C363.975 57.1396 363.299 58.9584 362.23 60.5062C361.435 61.7577 360.413 62.8246 359.224 63.6431C358.178 64.3455 357.041 64.8786 355.85 65.2252C354.689 65.5501 353.505 65.7691 352.31 65.8799L348.923 66.2072C347.907 66.2941 346.901 66.4813 345.917 66.7664C345.01 66.987 344.18 67.4789 343.523 68.1848C343.227 68.5074 342.852 68.7342 342.441 68.8395C342.245 68.8995 342.039 68.9086 341.84 68.8659C341.641 68.8232 341.454 68.7299 341.295 68.594L337.602 65.7844C337.249 65.5144 337.007 65.1088 336.927 64.6524C336.88 64.4312 336.881 64.2011 336.932 63.9807C336.983 63.7604 337.082 63.5559 337.22 63.384C338.083 62.1851 339.161 61.1834 340.391 60.438C341.498 59.7903 342.68 59.2997 343.905 58.9787C345.088 58.6713 346.294 58.475 347.509 58.3922C348.706 58.3104 349.827 58.2149 350.871 58.1058C351.826 58.0154 352.77 57.8142 353.685 57.5057C354.485 57.2202 355.175 56.6591 355.646 55.9099C356.072 55.2773 356.348 54.544 356.453 53.7722C356.557 53.0005 356.485 52.2132 356.245 51.4774C355.642 49.6595 354.49 48.1092 352.972 47.072C350.221 44.9717 347.22 44.9035 343.969 46.8675C343.642 47.0905 343.279 47.2477 342.899 47.3312C342.701 47.3459 342.503 47.3186 342.315 47.2507C342.127 47.1828 341.953 47.0757 341.804 46.9356L337.882 43.9488C337.74 43.8478 337.618 43.7173 337.524 43.565C337.43 43.4127 337.366 43.2418 337.335 43.0623C337.304 42.8766 337.31 42.6863 337.351 42.5032C337.393 42.3201 337.47 42.1482 337.577 41.9984C338.502 40.7285 339.704 39.7216 341.078 39.0661C342.639 38.3088 344.311 37.8473 346.019 37.7022C347.899 37.534 349.791 37.6952 351.622 38.1796C353.599 38.6896 355.46 39.617 357.098 40.9073Z" fill="white"/>
</g>
<path d="M244.642 192.584H199.398V75.1815C199.398 64.9845 203.18 55.2053 209.912 47.9949C216.644 40.7846 225.775 36.7339 235.296 36.7339H239.472C248.993 36.7339 258.123 40.7846 264.855 47.9949C271.587 55.2053 275.369 64.9845 275.369 75.1815V159.742C275.353 168.458 272.108 176.812 266.347 182.969C260.587 189.126 252.781 192.584 244.642 192.584Z" fill="#263238"/>
<path d="M194.995 475.219C194.195 480.084 193.769 485.01 193.722 489.949C193.556 498.896 192.028 502.074 191.824 509.412C191.582 517.8 192.945 520.937 196.115 525.656C199.286 530.375 207.576 534.643 211.167 526.678C214.758 518.713 214.236 513.49 213.103 505.266C211.944 496.755 211.829 492.05 211.116 485.571C210.53 479.857 209.843 475.506 209.843 475.506L194.995 475.219Z" fill="#263238"/>
<path d="M218.701 415.795L191.195 415.263C191.603 434.93 194.519 456.766 195.016 475.274C195.117 478.752 194.939 502.265 196.162 509.371C198.008 520.118 209.902 518.659 210.538 512.235C211.175 505.811 209.774 478.356 209.812 475.519C209.698 463.681 214.906 443.7 217.593 422.451C217.707 421.428 218.573 416.818 218.701 415.795Z" fill="#FFA8A7"/>
<path d="M254.036 459.917C254.036 459.917 252.954 459.289 252.763 460.53C252.496 462.003 252.088 465.045 251.49 467.472C250.7 470.841 250.038 476.392 250.509 479.147C250.98 481.902 256.965 485.421 260.849 486.703C265.636 488.285 270.001 491.067 273.583 494.818C277.403 498.692 285.719 502.347 291.411 502.306C298.096 502.306 302.757 499.919 304.96 496.087C307.163 492.254 302.948 491.79 295.307 486.539L289.386 482.448C277.276 473.978 272.832 469.45 269.432 460.98L254.036 459.917Z" fill="#263238"/>
<path d="M269.536 454.666C269.332 448.583 273.254 396.878 273.254 396.878L247.137 409.63C252.727 445.391 253.924 453.834 254.013 459.685C253.899 460.175 253.851 460.68 253.873 461.185C253.873 468.127 261.22 471.878 266.925 476.515C271.775 480.584 276.943 484.198 282.372 487.317C286.523 489.54 294.953 489.744 295.997 486.894C289.044 481.207 278.933 472.696 273.407 466.204C270.707 463.149 269.74 460.762 269.536 454.666Z" fill="#FFA8A7"/>
<path d="M202.468 223.885C192.433 247.466 192.433 265.715 194.101 295.815C195.579 323.434 198.036 347.779 198.036 347.779C197.654 352.675 191.3 362.236 190.472 383.894C189.708 404.134 191.746 429.87 191.746 429.87C191.746 429.87 206.02 438.34 216.577 429.789C216.577 429.789 226.764 377.702 229.744 352.361C232.291 330.253 236.875 302.007 236.875 302.007L246.514 352.211C244.434 359.335 242.926 366.635 242.007 374.033C240.657 388.941 248.45 418.209 248.45 418.209C248.45 418.209 263.196 422.915 272.199 414.363C272.199 414.363 275.561 366.778 276.821 348.829C278.502 324.784 274.962 259.7 272.199 225.235L202.468 223.885Z" fill="#455A64"/>
<path d="M236.898 301.966L240.859 264.132C240.859 264.132 258.61 261.596 266.658 253.494C264.354 257.354 261.286 260.623 257.67 263.07C254.054 265.517 249.98 267.081 245.736 267.651L240.006 302.853L246.513 352.211L236.898 301.966Z" fill="#263238"/>
<path d="M308.785 214.583C309.518 207.678 309.842 200.731 309.753 193.784C309.358 187.782 308.352 186.8 300.521 176.176C289.951 161.814 280.923 148.898 271.372 136.064C264.547 126.899 257.365 125.494 250.387 125.904C245.497 126.19 255.047 151.381 259.848 166.288L287.264 197.902C288.114 199.15 288.504 200.689 288.36 202.226L286.704 229.121L294.918 240.905C294.918 240.905 307.359 229.422 308.785 214.583Z" fill="#FFA8A7"/>
<path d="M223.946 126.722C218.636 127.118 208.984 128.086 208.984 128.086C203.419 131.414 202.005 134.155 200.974 142.066C200.528 145.448 203.101 154.436 205.304 167.216L209.48 190.906L209.022 202.663C206.857 209.837 201.955 218.743 197.625 231.877C218.891 244.588 236.718 245.065 252.89 242.788C265.217 241.083 271.75 237.891 273.927 234.727C273.469 221.757 272.654 213.737 272.399 200.18C272.31 194.493 272.628 188.737 272.845 182.191C281.109 174.908 281.211 162.797 276.665 154.913C266.185 136.733 255.985 125.29 249.236 125.877L223.946 126.722Z" fill="#6C63FF"/>
<path opacity="0.6" d="M223.946 126.722C218.636 127.118 208.984 128.086 208.984 128.086C203.419 131.414 202.005 134.155 200.974 142.066C200.528 145.448 203.101 154.436 205.304 167.216L209.48 190.906L209.022 202.663C206.857 209.837 201.955 218.743 197.625 231.877C218.891 244.588 236.718 245.065 252.89 242.788C265.217 241.083 271.75 237.891 273.927 234.727C273.469 221.757 272.654 213.737 272.399 200.18C272.31 194.493 272.628 188.737 272.845 182.191C281.109 174.908 281.211 162.797 276.665 154.913C266.185 136.733 255.985 125.29 249.236 125.877L223.946 126.722Z" fill="white"/>
<path opacity="0.1" d="M256.385 182.368C256.385 182.368 246.681 190.442 235.59 186.228C232.476 185.177 229.667 183.283 227.436 180.728C225.205 178.174 223.628 175.047 222.856 171.648C222.856 171.648 221.685 185.219 235.654 189.842C249.19 194.302 256.385 182.368 256.385 182.368Z" fill="black"/>
<path d="M269.547 89.4747C269.127 109.169 263.18 114.024 260.175 115.388C257.17 116.752 251.414 115.934 245.811 114.938V126.831C245.811 126.831 252.28 134.087 251.796 139.502C251.312 144.916 241.609 145.53 234.376 140.224C230.385 137.288 226.775 133.798 223.641 129.845C223.039 129.083 222.71 128.116 222.712 127.118V99.2946C222.712 99.2946 219.643 102.772 214.218 98.79C213.048 97.9899 212.045 96.9377 211.275 95.7004C210.505 94.463 209.983 93.0675 209.744 91.6027C209.504 90.1378 209.552 88.6355 209.884 87.1914C210.216 85.7473 210.824 84.393 211.671 83.2145C214.04 80.2276 220.05 80.023 222.928 84.5784C224.558 87.9744 224.775 91.3978 226.596 90.0339C231.434 86.2969 228.837 77.759 234.682 73.6674C236.6 72.5952 238.592 71.6832 240.641 70.9396C251.07 67.0799 260.111 63.8339 262.289 56.1962C266.389 58.7057 270.057 66.2479 269.547 89.4747Z" fill="#FFA8A7"/>
<path d="M248.982 107.068C250.318 107.068 251.401 105.908 251.401 104.477C251.401 103.046 250.318 101.886 248.982 101.886C247.646 101.886 246.562 103.046 246.562 104.477C246.562 105.908 247.646 107.068 248.982 107.068Z" fill="#B16668"/>
<path d="M247.379 86.488C247.378 87.0215 247.231 87.5432 246.957 87.9883C246.682 88.4335 246.292 88.7826 245.834 88.9925C245.376 89.2023 244.87 89.2637 244.38 89.1691C243.89 89.0744 243.436 88.8278 243.076 88.4599C242.715 88.0919 242.463 87.6187 242.351 87.0989C242.238 86.579 242.271 86.0354 242.444 85.5352C242.618 85.035 242.924 84.6003 243.326 84.2848C243.728 83.9693 244.207 83.7869 244.705 83.7602C245.05 83.7417 245.395 83.7986 245.718 83.9274C246.042 84.0562 246.338 84.2542 246.588 84.5093C246.839 84.7645 247.038 85.0715 247.173 85.4116C247.309 85.7518 247.379 86.118 247.379 86.488Z" fill="#263238"/>
<path d="M266.674 86.7606C266.7 87.0943 266.664 87.4302 266.568 87.7487C266.471 88.0673 266.316 88.3621 266.113 88.616C265.909 88.8699 265.66 89.0778 265.38 89.2275C265.1 89.3773 264.796 89.466 264.484 89.4883C264.169 89.5195 263.852 89.4785 263.553 89.3682C263.254 89.2579 262.981 89.0808 262.751 88.8486C262.521 88.6165 262.339 88.3345 262.219 88.0215C262.098 87.7086 262.041 87.3717 262.052 87.0333C262.019 86.6972 262.05 86.3574 262.144 86.0348C262.239 85.7122 262.393 85.4135 262.599 85.1571C262.805 84.9008 263.057 84.6921 263.34 84.5439C263.624 84.3957 263.933 84.3111 264.248 84.2953C264.563 84.2795 264.878 84.3328 265.174 84.452C265.469 84.5711 265.738 84.7536 265.966 84.9883C266.193 85.2229 266.373 85.5048 266.495 85.8166C266.616 86.1284 266.677 86.4635 266.674 86.8015V86.7606Z" fill="#263238"/>
<path d="M244.106 93.4981C241.91 93.4981 239.803 92.5645 238.249 90.9024C236.695 89.2402 235.82 86.9854 235.816 84.6329C235.816 78.6046 241.623 78.6046 244.106 78.6046C246.589 78.6046 252.383 78.6046 252.383 84.6329C252.38 86.983 251.507 89.2358 249.955 90.8976C248.404 92.5594 246.3 93.4945 244.106 93.4981ZM244.106 79.9958C239.013 79.9958 237.128 81.3596 237.128 84.6329C237.128 86.6224 237.866 88.5304 239.179 89.9372C240.493 91.3439 242.274 92.1342 244.132 92.1342C245.989 92.1342 247.771 91.3439 249.084 89.9372C250.397 88.5304 251.135 86.6224 251.135 84.6329C251.084 81.2914 249.123 79.9958 244.106 79.9958Z" fill="#455A64"/>
<path d="M265.13 93.4981C262.933 93.4981 260.827 92.5645 259.272 90.9024C257.718 89.2402 256.843 86.9854 256.84 84.6329C256.84 78.6046 262.647 78.6046 265.13 78.6046C267.613 78.6046 273.407 78.6046 273.407 84.6329C273.403 86.983 272.53 89.2358 270.979 90.8976C269.427 92.5594 267.324 93.4945 265.13 93.4981ZM265.13 79.9958C260.112 79.9958 258.151 81.3596 258.151 84.6329C258.151 86.6224 258.889 88.5304 260.203 89.9372C261.516 91.3439 263.298 92.1342 265.155 92.1342C267.013 92.1342 268.794 91.3439 270.107 89.9372C271.421 88.5304 272.159 86.6224 272.159 84.6329C272.108 81.2914 270.147 79.9958 265.13 79.9958Z" fill="#455A64"/>
<path d="M253.672 81.769L254.079 98.3401L262.216 95.6396L253.672 81.769Z" fill="#F28F8F"/>
<path d="M245.799 114.979C239.89 114.147 227.729 110.41 225.832 105.255C226.596 107.86 228.084 110.154 230.098 111.829C233.727 115.17 245.799 118.921 245.799 118.921V114.979Z" fill="#F28F8F"/>
<path d="M246.09 73.7219L240.691 77.2543C240.266 76.4605 240.142 75.5215 240.346 74.6326C240.55 73.7436 241.066 72.973 241.786 72.4808C242.143 72.2493 242.539 72.0975 242.951 72.0347C243.364 71.9719 243.784 71.9993 244.186 72.1153C244.589 72.2313 244.965 72.4335 245.292 72.7096C245.619 72.9858 245.891 73.3301 246.09 73.7219Z" fill="#263238"/>
<path d="M268.057 77.6502L262.047 75.3998C262.163 74.9731 262.36 74.5765 262.625 74.2342C262.889 73.8919 263.217 73.6112 263.586 73.4094C263.956 73.2076 264.36 73.0889 264.774 73.0606C265.189 73.0323 265.604 73.095 265.994 73.2448C266.801 73.5551 267.464 74.1856 267.848 75.0056C268.232 75.8257 268.307 76.7726 268.057 77.6502Z" fill="#263238"/>
<path d="M251.736 85.3421C251.649 85.3421 251.564 85.3237 251.484 85.2879C251.404 85.2521 251.332 85.1996 251.272 85.1336C251.211 85.0676 251.164 84.9893 251.132 84.9033C251.1 84.8173 251.084 84.7254 251.086 84.6329C251.086 83.5009 253.174 82.7644 255.059 82.7644C256.944 82.7644 258.153 83.5009 258.153 84.6329C258.114 84.7811 258.03 84.9115 257.916 85.0043C257.801 85.0971 257.661 85.1473 257.517 85.1473C257.373 85.1473 257.233 85.0971 257.118 85.0043C257.003 84.9115 256.92 84.7811 256.88 84.6329C256.88 84.4965 256.231 84.1556 255.097 84.1556C254.185 84.1348 253.277 84.3014 252.423 84.6465C252.423 84.7414 252.405 84.8354 252.37 84.9225C252.335 85.0097 252.284 85.0883 252.22 85.1534C252.155 85.2186 252.079 85.269 251.996 85.3014C251.913 85.3338 251.824 85.3477 251.736 85.3421Z" fill="#455A64"/>
<path d="M236.493 84.7419H236.417L221.862 83.378C221.182 82.6561 220.371 82.0899 219.48 81.7141L236.569 83.4053C236.741 83.4292 236.897 83.5239 237.004 83.6691C237.111 83.8144 237.161 83.9987 237.143 84.1827C237.113 84.3427 237.031 84.4864 236.913 84.5886C236.794 84.6908 236.645 84.7451 236.493 84.7419Z" fill="#455A64"/>
<path d="M176.731 101C181.494 94.1803 184.741 89.0385 189.083 83.2693C191.554 79.9551 193.133 77.5819 195.45 74.1859C197.08 71.84 197.997 69.8624 199.856 69.1395C201.865 68.258 203.675 66.9283 205.166 65.2389C206.083 64.1527 206.934 63.0047 207.713 61.8019C210.442 57.8672 213.684 54.372 217.34 51.4228C221.16 48.3405 225.426 45.9673 229.361 43.035C231.704 41.2756 234.213 38.3569 231.36 35.6292C230.485 34.84 229.438 34.3005 228.317 34.0607C221.377 32.4513 215.341 35.0018 208.554 36.8567C205.605 37.6448 202.722 38.6893 199.933 39.9799C198.561 40.5611 197.274 41.3512 196.112 42.3258C194.489 44.0794 193.158 46.1184 192.178 48.3541C189.211 54.0278 182.844 59.1014 178.387 63.5886C173.179 68.8395 168.518 73.654 162.571 79.4368C157.223 84.6604 151.989 89.4613 147.087 95.1623C143.024 99.8676 144.54 103.55 145.075 104.832C148.385 112.115 152.091 114.734 156.535 119.248C164.176 127.063 190.599 149.554 199.347 156.987C201.226 158.568 202.703 160.632 203.638 162.988L205.319 167.148C215.303 169.112 221.962 153.059 213.698 133.733C212.329 130.607 210.239 127.908 207.624 125.89C197.182 117.748 176.731 101 176.731 101Z" fill="#FFA8A7"/>
<path d="M176.73 101C173.553 105.186 169.318 108.306 164.531 109.987C164.531 109.987 170.898 111.733 179.621 103.345L176.73 101Z" fill="#F28F8F"/>
<path d="M306.182 200.357L304.552 198.857C304.309 198.685 304.031 198.577 303.741 198.542C303.451 198.506 303.158 198.544 302.884 198.653L285.197 203.808C284.306 204.126 283.49 204.647 282.804 205.334C282.118 206.022 281.579 206.859 281.224 207.791L268.49 247.111C268.336 247.431 268.276 247.794 268.317 248.151C268.358 248.509 268.498 248.845 268.719 249.116L270.4 250.671C270.645 250.851 270.927 250.966 271.222 251.004C271.517 251.042 271.816 251.002 272.094 250.889L289.806 245.734C290.697 245.415 291.514 244.895 292.199 244.207C292.885 243.52 293.424 242.682 293.779 241.751C296.326 234.018 303.967 210.164 306.513 202.431C306.819 201.462 306.666 200.726 306.182 200.357Z" fill="#455A64"/>
<path d="M270.163 248.625L282.897 209.304C283.251 208.374 283.789 207.537 284.475 206.852C285.161 206.166 285.978 205.649 286.87 205.336L304.545 200.18C306.187 199.703 307.091 200.712 306.506 202.431C303.959 210.164 296.318 234.018 293.772 241.751C293.416 242.682 292.877 243.52 292.192 244.207C291.506 244.895 290.69 245.415 289.799 245.734L272.124 250.944C270.494 251.353 269.615 250.343 270.163 248.625Z" fill="#6C63FF"/>
<path d="M284.945 206.427C284.026 207.173 283.313 208.172 282.883 209.319L270.149 248.625C270.003 248.938 269.942 249.287 269.974 249.635C270.005 249.982 270.128 250.313 270.327 250.589L268.748 249.144C268.522 248.876 268.377 248.54 268.334 248.182C268.291 247.823 268.351 247.46 268.506 247.139L281.24 207.818C281.643 206.749 282.296 205.81 283.137 205.091L284.945 206.427Z" fill="#37474F"/>
<path d="M301.338 218.279C300.065 222.275 295.646 224.949 288.337 226.803C281.028 228.658 276.991 236.964 278.15 239.487C279.309 242.011 291.126 244.37 295.85 243.647C300.574 242.924 305.311 235.614 306.75 233.35C308.189 231.086 309.845 215.292 308.329 213.124C306.814 210.955 303.618 211.296 303.618 211.296L301.338 218.279Z" fill="#F28F8F"/>
</svg>
