<svg width="568" height="568" viewBox="0 0 568 568" fill="none" xmlns="http://www.w3.org/2000/svg">
<path d="M284 485.708C405.646 485.708 504.259 479.951 504.259 472.849C504.259 465.747 405.646 459.989 284 459.989C162.354 459.989 63.741 465.747 63.741 472.849C63.741 479.951 162.354 485.708 284 485.708Z" fill="#F5F5F5"/>
<path d="M568 434.406H0V434.69H568V434.406Z" fill="#EBEBEB"/>
<path d="M153.519 452.685H115.895V452.969H153.519V452.685Z" fill="#EBEBEB"/>
<path d="M243.888 444.085H194.415V444.369H243.888V444.085Z" fill="#EBEBEB"/>
<path d="M114.759 442.142H59.5945V442.426H114.759V442.142Z" fill="#EBEBEB"/>
<path d="M320.238 445.982H281.285V446.266H320.238V445.982Z" fill="#EBEBEB"/>
<path d="M385.524 445.982H330.349V446.266H385.524V445.982Z" fill="#EBEBEB"/>
<path d="M477.461 450.776H371.04V451.06H477.461V450.776Z" fill="#EBEBEB"/>
<path d="M269.232 383.741H49.8817C48.1633 383.738 46.5164 383.053 45.3023 381.837C44.0883 380.621 43.4065 378.973 43.4065 377.254V68.9097C43.4215 67.2012 44.1099 65.5676 45.3223 64.3637C46.5347 63.1598 48.1731 62.4829 49.8817 62.48H269.232C270.952 62.48 272.602 63.1634 273.819 64.3799C275.035 65.5963 275.718 67.2462 275.718 68.9665V377.254C275.718 378.975 275.035 380.624 273.819 381.841C272.602 383.057 270.952 383.741 269.232 383.741ZM49.8817 62.7072C48.2386 62.7102 46.6639 63.365 45.5032 64.5279C44.3424 65.6908 43.6905 67.2667 43.6905 68.9097V377.254C43.6905 378.897 44.3424 380.473 45.5032 381.636C46.6639 382.799 48.2386 383.454 49.8817 383.457H269.232C270.875 383.451 272.449 382.795 273.611 381.633C274.773 380.472 275.429 378.897 275.434 377.254V68.9097C275.429 67.2666 274.773 65.6924 273.611 64.5305C272.449 63.3686 270.875 62.7132 269.232 62.7072H49.8817Z" fill="#EBEBEB"/>
<path d="M514.96 383.741H295.599C293.88 383.735 292.234 383.049 291.019 381.834C289.803 380.619 289.118 378.973 289.112 377.254V68.9097C289.13 67.2002 289.821 65.5666 291.035 64.363C292.249 63.1594 293.889 62.4829 295.599 62.48H514.96C516.667 62.4859 518.302 63.1641 519.512 64.3677C520.722 65.5713 521.409 67.2032 521.424 68.9097V377.254C521.426 378.105 521.26 378.947 520.936 379.733C520.611 380.519 520.136 381.234 519.536 381.836C518.935 382.439 518.222 382.917 517.437 383.243C516.652 383.57 515.811 383.739 514.96 383.741ZM295.599 62.7072C293.955 62.7132 292.381 63.3686 291.219 64.5305C290.057 65.6924 289.402 67.2666 289.396 68.9097V377.254C289.402 378.897 290.057 380.472 291.219 381.633C292.381 382.795 293.955 383.451 295.599 383.457H514.96C516.603 383.451 518.178 382.795 519.339 381.633C520.501 380.472 521.157 378.897 521.163 377.254V68.9097C521.157 67.2666 520.501 65.6924 519.339 64.5305C518.178 63.3686 516.603 62.7132 514.96 62.7072H295.599Z" fill="#EBEBEB"/>
<path d="M249.943 175.217H138.876V434.406H249.943V175.217Z" fill="#E0E0E0"/>
<path d="M233.13 175.217H122.063V434.406H233.13V175.217Z" fill="#F0F0F0"/>
<path d="M223.201 372.551H132.833V419.468H223.201V372.551Z" fill="#E0E0E0"/>
<path d="M223.201 311.014H132.833V357.942H223.201V311.014Z" fill="#E0E0E0"/>
<path d="M223.201 249.488H132.833V296.416H223.201V249.488Z" fill="#E0E0E0"/>
<path d="M223.201 187.963H132.833V234.891H223.201V187.963Z" fill="#E0E0E0"/>
<path opacity="0.05" d="M151.713 187.963H132.833V234.891H151.713V187.963Z" fill="black"/>
<path opacity="0.05" d="M151.713 249.488H132.833V296.416H151.713V249.488Z" fill="black"/>
<path opacity="0.05" d="M151.713 311.014H132.833V357.942H151.713V311.014Z" fill="black"/>
<path opacity="0.05" d="M151.713 372.551H132.833V419.468H151.713V372.551Z" fill="black"/>
<path d="M147.51 89.4827H68.1599V168.832H147.51V89.4827Z" fill="#E0E0E0"/>
<path d="M143.352 89.4827H64.0022V168.832H143.352V89.4827Z" fill="#EBEBEB"/>
<path d="M134.23 98.6161H73.1357V159.71H134.23V98.6161Z" fill="#F5F5F5"/>
<path d="M75.1578 98.6161H73.1357V159.71H75.1578V98.6161Z" fill="#E0E0E0"/>
<path d="M112.914 137.816C117.703 133.148 117.802 125.481 113.135 120.691C108.467 115.902 100.8 115.803 96.0104 120.47C91.2206 125.138 91.1216 132.805 95.7892 137.595C100.457 142.384 108.124 142.483 112.914 137.816Z" fill="#FAFAFA"/>
<path d="M63.7979 415.197C63.7979 415.197 57.5385 409.801 53.2104 397.452C48.8822 385.104 38.8513 370.949 38.8513 370.949C38.8513 370.949 51.9721 377.152 56.5956 388.955C56.5956 388.955 50.9156 365.031 38.8513 356.284C38.8513 356.284 60.4353 363.236 65.854 385.74C65.854 385.74 69.4552 367.871 63.582 350.115C63.582 350.115 74.6353 364.008 75.9304 381.242C75.9304 381.242 77.464 351.399 87.2904 342.618C87.2904 342.618 84.2004 369.632 87.2904 383.264C87.2904 383.264 91.664 359.339 111.215 356C111.215 356 98.6049 371.177 99.1275 384.547C101.327 379.929 104.688 375.96 108.882 373.031C113.075 370.102 117.958 368.312 123.052 367.837C123.052 367.837 109.056 377.64 107.795 393.59C106.534 409.539 106.5 414.424 98.0142 416.742C89.5283 419.059 63.7979 415.197 63.7979 415.197Z" fill="#F5F5F5"/>
<path d="M50.2227 400.599V431.68C50.2227 431.68 54.2214 442.813 79.9063 444.244C105.591 445.675 111.589 431.964 111.589 431.964V400.599H50.2227Z" fill="#E6E6E6"/>
<path d="M506.202 312.718H345.287V435.349H506.202V312.718Z" fill="#E0E0E0"/>
<path d="M466.135 312.718H305.22V435.349H466.135V312.718Z" fill="#EBEBEB"/>
<path d="M458.126 324.067H310.969V369.495H458.126V324.067Z" stroke="#E0E0E0" stroke-miterlimit="10"/>
<path d="M458.126 377.061H310.969V422.49H458.126V377.061Z" stroke="#E0E0E0" stroke-miterlimit="10"/>
<path d="M384.547 350.899C386.825 350.899 388.671 349.053 388.671 346.775C388.671 344.498 386.825 342.652 384.547 342.652C382.27 342.652 380.424 344.498 380.424 346.775C380.424 349.053 382.27 350.899 384.547 350.899Z" fill="#E0E0E0"/>
<path d="M384.547 407.358C386.825 407.358 388.671 405.512 388.671 403.235C388.671 400.957 386.825 399.111 384.547 399.111C382.27 399.111 380.424 400.957 380.424 403.235C380.424 405.512 382.27 407.358 384.547 407.358Z" fill="#E0E0E0"/>
<path d="M512.188 306.175H298.132V312.718H512.188V306.175Z" fill="#E0E0E0"/>
<path opacity="0.05" d="M512.188 306.175H472.212V312.718H512.188V306.175Z" fill="black"/>
<path d="M509.871 123.279H331.655V224.042H509.871V123.279Z" fill="#E0E0E0"/>
<path d="M505.213 123.279H326.998V224.042H505.213V123.279Z" fill="#F0F0F0"/>
<path d="M497.716 130.89H333.95V216.919H497.716V130.89Z" fill="#F5F5F5"/>
<path d="M335.733 130.89H333.95V216.919H335.733V130.89Z" fill="#E0E0E0"/>
<path d="M489.018 158.143L468.312 150.368L461.959 167.289L482.665 175.064L489.018 158.143Z" fill="#FAFAFA"/>
<path d="M469.872 154.61C470.305 154.61 470.656 154.259 470.656 153.826C470.656 153.393 470.305 153.042 469.872 153.042C469.439 153.042 469.088 153.393 469.088 153.826C469.088 154.259 469.439 154.61 469.872 154.61Z" fill="#E6E6E6"/>
<path d="M389.421 180.317L433.475 184.748L430.782 202.265L388.364 197.187L389.421 180.317Z" fill="#FAFAFA"/>
<path d="M431.169 187.963C431.169 188.118 431.123 188.269 431.037 188.398C430.951 188.527 430.828 188.627 430.685 188.687C430.542 188.746 430.384 188.762 430.232 188.731C430.08 188.701 429.94 188.626 429.831 188.517C429.721 188.407 429.646 188.268 429.616 188.115C429.586 187.963 429.601 187.806 429.661 187.663C429.72 187.519 429.821 187.397 429.949 187.311C430.078 187.225 430.23 187.179 430.385 187.179C430.593 187.179 430.792 187.261 430.939 187.408C431.086 187.555 431.169 187.755 431.169 187.963Z" fill="#E6E6E6"/>
<path d="M413.504 306.175L423.239 256.418H468.827L459.353 306.175H413.504Z" fill="#EBEBEB"/>
<path d="M420.445 299.938L427.738 262.655H461.897L454.797 299.938H420.445Z" fill="#FAFAFA"/>
<path d="M429.499 262.655L422.433 299.938H420.445L427.738 262.655H429.499Z" fill="#E6E6E6"/>
<path d="M468.827 256.418H470.713L461.898 306.175H459.353L468.827 256.418Z" fill="#E6E6E6"/>
<path d="M467.487 274.571L473.95 306.175H461.897L467.487 274.571Z" fill="#E0E0E0"/>
<path d="M368.291 113.918V249.999C368.293 252.21 367.859 254.399 367.014 256.441C366.169 258.484 364.93 260.34 363.367 261.903C361.805 263.467 359.95 264.707 357.908 265.553C355.866 266.399 353.677 266.835 351.467 266.835H337.96V113.918H368.291Z" fill="#6C63FF"/>
<path opacity="0.8" d="M368.291 113.918V249.999C368.293 252.21 367.859 254.399 367.014 256.441C366.169 258.484 364.93 260.34 363.367 261.903C361.805 263.467 359.95 264.707 357.908 265.553C355.866 266.399 353.677 266.835 351.467 266.835H337.96V113.918H368.291Z" fill="white"/>
<path d="M368.291 103.58V249.999C368.293 252.21 367.858 254.399 367.014 256.441C366.169 258.484 364.93 260.34 363.367 261.903C361.805 263.467 359.95 264.707 357.908 265.553C355.866 266.399 353.677 266.835 351.467 266.835H113.668C109.203 266.835 104.921 265.061 101.764 261.904C98.6063 258.747 96.8325 254.465 96.8325 249.999V103.58C96.831 101.369 97.2655 99.1793 98.111 97.136C98.9565 95.0928 100.197 93.2362 101.76 91.6726C103.324 90.109 105.18 88.869 107.224 88.0234C109.267 87.1779 111.457 86.7434 113.668 86.7449H351.467C353.677 86.7449 355.866 87.1805 357.908 88.0267C359.95 88.8729 361.805 90.1132 363.367 91.6766C364.93 93.2401 366.169 95.0961 367.014 97.1386C367.858 99.1811 368.293 101.37 368.291 103.58Z" fill="white" stroke="#6C63FF" stroke-miterlimit="10"/>
<path d="M367.519 98.5253H97.605C98.6807 95.1081 100.818 92.1232 103.707 90.0045C106.596 87.8859 110.086 86.744 113.668 86.7449H351.467C355.047 86.7464 358.534 87.8894 361.421 90.0079C364.307 92.1263 366.443 95.1099 367.519 98.5253Z" fill="#6C63FF"/>
<path d="M131.14 95.0264C132.457 95.0264 133.525 93.9583 133.525 92.6408C133.525 91.3233 132.457 90.2552 131.14 90.2552C129.822 90.2552 128.754 91.3233 128.754 92.6408C128.754 93.9583 129.822 95.0264 131.14 95.0264Z" fill="white"/>
<path d="M139.66 95.0264C140.977 95.0264 142.045 93.9583 142.045 92.6408C142.045 91.3233 140.977 90.2552 139.66 90.2552C138.342 90.2552 137.274 91.3233 137.274 92.6408C137.274 93.9583 138.342 95.0264 139.66 95.0264Z" fill="white"/>
<path d="M150.554 92.6408C150.554 93.1153 150.413 93.5792 150.149 93.9736C149.885 94.368 149.51 94.6752 149.072 94.8563C148.633 95.0374 148.15 95.0842 147.685 94.9908C147.22 94.8974 146.793 94.668 146.458 94.3316C146.123 93.9952 145.896 93.5671 145.805 93.1014C145.713 92.6357 145.763 92.1534 145.946 91.7156C146.129 91.2778 146.438 90.9042 146.834 90.6422C147.229 90.3802 147.694 90.2416 148.168 90.2438C148.483 90.2438 148.794 90.3059 149.084 90.4265C149.374 90.5471 149.638 90.7238 149.859 90.9465C150.081 91.1693 150.256 91.4336 150.376 91.7243C150.495 92.0151 150.555 92.3265 150.554 92.6408Z" fill="white"/>
<path d="M368.291 103.58V113.918H96.7871V103.58C96.7869 101.866 97.0474 100.161 97.5596 98.5253H367.473C368.001 100.159 368.277 101.864 368.291 103.58Z" fill="#6C63FF"/>
<path opacity="0.5" d="M368.291 103.58V113.918H96.7871V103.58C96.7869 101.866 97.0474 100.161 97.5596 98.5253H367.473C368.001 100.159 368.277 101.864 368.291 103.58Z" fill="white"/>
<path d="M128.765 113.918V266.835H113.293C109.655 266.865 106.1 265.739 103.142 263.62C100.184 261.501 97.9748 258.498 96.8325 255.043V113.918H128.765Z" fill="#6C63FF"/>
<path opacity="0.1" d="M128.765 113.918V266.835H113.293C109.655 266.865 106.1 265.739 103.142 263.62C100.184 261.501 97.9748 258.498 96.8325 255.043V113.918H128.765Z" fill="black"/>
<path opacity="0.1" d="M327.315 124.755H139.66V251.408H327.315V124.755Z" fill="#6C63FF"/>
<path opacity="0.2" d="M109.794 131.14H101.729V139.205H109.794V131.14Z" fill="black"/>
<path opacity="0.2" d="M122.006 131.14H113.941V139.205H122.006V131.14Z" fill="black"/>
<path d="M252.26 187.576C259.133 178.67 263.62 166.981 262.689 155.564C261.814 144.851 253.169 138.319 242.672 140.887C238.242 142.023 234.186 144.181 230.097 146.215C223.281 149.623 216.101 152.531 208.513 153.451C200.924 154.371 193.415 153.451 186.02 156.348C173.149 161.369 169.571 177.818 174.535 189.746C178.943 200.334 189.439 208.513 200.606 210.785" stroke="#263238" stroke-linecap="round" stroke-linejoin="round"/>
<path opacity="0.2" d="M109.794 143.931H101.729V151.997H109.794V143.931Z" fill="black"/>
<path opacity="0.2" d="M122.006 143.931H113.941V151.997H122.006V143.931Z" fill="black"/>
<path opacity="0.2" d="M109.794 156.723H101.729V164.788H109.794V156.723Z" fill="black"/>
<path opacity="0.2" d="M122.006 156.723H113.941V164.788H122.006V156.723Z" fill="black"/>
<path opacity="0.2" d="M109.794 169.514H101.729V177.58H109.794V169.514Z" fill="black"/>
<path opacity="0.2" d="M122.006 169.514H113.941V177.58H122.006V169.514Z" fill="black"/>
<path opacity="0.2" d="M109.794 182.294H101.729V190.359H109.794V182.294Z" fill="black"/>
<path opacity="0.2" d="M122.006 182.294H113.941V190.359H122.006V182.294Z" fill="black"/>
<path opacity="0.2" d="M109.794 195.085H101.729V203.151H109.794V195.085Z" fill="black"/>
<path opacity="0.2" d="M122.006 195.085H113.941V203.151H122.006V195.085Z" fill="black"/>
<path d="M109.533 207.513C109.533 207.696 109.479 207.874 109.377 208.025C109.275 208.177 109.131 208.295 108.962 208.364C108.793 208.434 108.608 208.451 108.429 208.415C108.25 208.378 108.086 208.289 107.958 208.16C107.83 208.03 107.743 207.865 107.709 207.686C107.675 207.506 107.695 207.321 107.766 207.153C107.837 206.985 107.957 206.842 108.11 206.742C108.263 206.643 108.442 206.591 108.624 206.593C108.744 206.593 108.864 206.617 108.975 206.663C109.086 206.71 109.186 206.777 109.271 206.863C109.355 206.949 109.422 207.05 109.467 207.162C109.512 207.273 109.534 207.393 109.533 207.513Z" fill="#263238"/>
<path d="M112.839 207.513C112.839 207.695 112.785 207.873 112.684 208.024C112.583 208.176 112.439 208.294 112.271 208.363C112.103 208.433 111.918 208.451 111.739 208.416C111.561 208.38 111.397 208.292 111.268 208.164C111.139 208.035 111.052 207.871 111.016 207.693C110.981 207.514 110.999 207.329 111.069 207.161C111.138 206.993 111.256 206.849 111.407 206.748C111.559 206.647 111.737 206.593 111.919 206.593C112.04 206.591 112.16 206.614 112.273 206.66C112.385 206.706 112.487 206.773 112.573 206.859C112.658 206.945 112.726 207.047 112.772 207.159C112.818 207.271 112.84 207.392 112.839 207.513Z" fill="#263238"/>
<path d="M116.133 207.513C116.133 207.696 116.079 207.874 115.977 208.025C115.876 208.177 115.731 208.295 115.563 208.364C115.394 208.434 115.208 208.451 115.029 208.415C114.851 208.378 114.687 208.289 114.558 208.16C114.43 208.03 114.343 207.865 114.309 207.686C114.275 207.506 114.295 207.321 114.366 207.153C114.438 206.985 114.557 206.842 114.71 206.742C114.863 206.643 115.042 206.591 115.224 206.593C115.345 206.593 115.464 206.617 115.575 206.663C115.686 206.71 115.787 206.777 115.871 206.863C115.956 206.949 116.022 207.05 116.067 207.162C116.112 207.273 116.135 207.393 116.133 207.513Z" fill="#263238"/>
<path d="M228.45 198.891L227.007 199.902L226.144 193.597L231.403 196.801L230.097 197.687L232.13 200.686L230.528 202.004L228.45 198.891Z" fill="#263238"/>
<path d="M338.641 268.198C338.641 268.198 332.848 296.167 328.929 303.312C325.009 310.457 302.539 310.128 302.539 310.128L276.525 308.833C276.525 308.833 271.572 292.622 292.781 301.029C292.781 301.029 310.673 297.621 317.5 291.941L324.657 262.598L338.641 268.198Z" fill="#FF8B7B"/>
<path d="M416.06 476.7H409.119L390.284 374.244L389.636 370.711L396.339 369.473L397.214 374.244L416.06 476.7Z" fill="#6C63FF"/>
<path opacity="0.5" d="M416.06 476.7H409.119L390.284 374.244L389.636 370.711L396.339 369.473L397.214 374.244L416.06 476.7Z" fill="white"/>
<path d="M386.126 476.7H379.276L369.87 374.244L368.87 363.338L368.643 360.919L375.425 360.294L375.709 363.338L376.709 374.244L386.126 476.7Z" fill="#6C63FF"/>
<path opacity="0.5" d="M386.126 476.7H379.276L369.87 374.244L368.87 363.338L368.643 360.919L375.425 360.294L375.709 363.338L376.709 374.244L386.126 476.7Z" fill="white"/>
<path d="M316.081 364.633L315.354 374.244L307.561 476.7H300.722L308.504 374.244L309.276 364.122L316.081 364.633Z" fill="#6C63FF"/>
<path opacity="0.5" d="M316.081 364.633L315.354 374.244L307.561 476.7H300.722L308.504 374.244L309.276 364.122L316.081 364.633Z" fill="white"/>
<path d="M296.325 364.94L294.792 374.244L277.9 476.7H270.993L287.896 374.244L289.612 363.827L296.325 364.94Z" fill="#6C63FF"/>
<path opacity="0.5" d="M296.325 364.94L294.792 374.244L277.9 476.7H270.993L287.896 374.244L289.612 363.827L296.325 364.94Z" fill="white"/>
<path d="M407.733 361.736L407.108 363.338L404.121 370.893C403.737 371.884 403.061 372.735 402.182 373.333C401.304 373.931 400.265 374.249 399.202 374.244H286.67C285.578 374.246 284.512 373.911 283.617 373.285C282.723 372.659 282.043 371.772 281.671 370.745L279.024 363.338L278.4 361.577C278.113 360.779 278.023 359.923 278.137 359.082C278.252 358.242 278.567 357.441 279.056 356.748C279.545 356.055 280.194 355.49 280.948 355.1C281.702 354.711 282.538 354.509 283.387 354.511H402.814C403.676 354.51 404.526 354.72 405.288 355.123C406.05 355.525 406.702 356.109 407.187 356.821C407.673 357.534 407.976 358.354 408.071 359.211C408.166 360.068 408.05 360.935 407.733 361.736Z" fill="#6C63FF"/>
<path opacity="0.3" d="M407.108 363.338L404.12 370.893C403.736 371.884 403.06 372.735 402.182 373.333C401.304 373.931 400.264 374.249 399.202 374.244H286.669C285.578 374.246 284.511 373.911 283.617 373.285C282.722 372.659 282.043 371.772 281.671 370.745L279.024 363.338H407.108Z" fill="black"/>
<path d="M293.145 428.658L298.461 416.583C298.77 415.879 299.324 415.311 300.019 414.985C300.715 414.659 301.506 414.597 302.244 414.81L310.651 417.196C311.09 417.322 311.498 417.541 311.845 417.838C312.193 418.136 312.473 418.504 312.665 418.919C312.858 419.333 312.96 419.785 312.963 420.242C312.966 420.699 312.871 421.152 312.684 421.57C310.412 426.704 306.095 436.269 304.732 439.689C302.88 444.449 301.324 450.185 298.848 451.787C298.696 451.887 298.536 451.975 298.37 452.048C297.849 452.263 297.279 452.333 296.721 452.252C296.163 452.171 295.637 451.941 295.198 451.587C294.759 451.233 294.423 450.767 294.226 450.239C294.029 449.711 293.977 449.139 294.076 448.584C294.735 444.585 295.451 437.11 293.043 431.078C292.896 430.688 292.829 430.273 292.847 429.858C292.864 429.442 292.966 429.034 293.145 428.658Z" fill="#263238"/>
<path d="M339.05 313.877C339.05 313.877 281.626 306.038 264.279 322.351C264.279 322.351 253.532 337.017 258.701 365.724C262.082 383.44 269.425 400.163 280.183 414.64L295.258 401.826C295.258 401.826 281.841 368.78 286.385 348.332L307.242 347.093L337.153 326.645L340.289 318.171L339.05 313.877Z" fill="#263238"/>
<path d="M281.569 420.411L275.946 413.584L296.553 396.634L300.449 400.69L281.569 420.411Z" fill="#6C63FF"/>
<path d="M395.498 313.252C395.498 313.252 397.089 329.61 391.897 341.584C386.706 353.557 368.359 357.942 355.988 357.147C343.617 356.352 327.656 355.329 320.874 357.238C320.874 357.238 312.093 407.029 296.928 443.335L278.57 441.745C278.57 441.745 288.544 371.472 290.146 355.148C291.747 338.823 290.941 336.392 300.915 328.418C310.889 320.443 361.975 309.662 395.498 313.252Z" fill="#263238"/>
<path d="M292.259 449.913L290.521 457.513L275.946 462.613L280.183 446.425L292.259 449.913Z" fill="#FF8B7B"/>
<path d="M275.753 462.136L288.135 457.535C288.856 457.269 289.649 457.273 290.368 457.547C291.086 457.821 291.681 458.345 292.043 459.023L296.178 466.714C296.402 467.119 296.536 467.568 296.569 468.029C296.602 468.491 296.534 468.955 296.37 469.387C296.205 469.82 295.948 470.211 295.617 470.535C295.286 470.858 294.888 471.105 294.451 471.258C289.169 473.178 279.32 476.768 275.946 478.199C271.243 480.199 266.04 483.073 263.166 482.402C262.988 482.365 262.814 482.316 262.643 482.255C262.126 482.028 261.678 481.666 261.348 481.208C261.018 480.749 260.817 480.21 260.766 479.648C260.715 479.085 260.815 478.519 261.058 478.008C261.3 477.497 261.675 477.061 262.143 476.745C265.472 474.473 271.333 469.747 273.98 463.817C274.147 463.432 274.389 463.084 274.694 462.795C274.999 462.506 275.359 462.282 275.753 462.136Z" fill="#263238"/>
<path d="M338.641 317.637C338.641 317.637 331.167 268.198 329.553 256.168C327.94 244.138 329.553 237.992 334.097 234.05C338.641 230.108 359.476 221.69 373.46 223.962C387.444 226.234 394.271 237.947 396.18 251.226L392.931 252.851C392.931 252.851 397.089 298.927 395.578 314.865L338.641 317.637Z" fill="#6C63FF"/>
<path d="M334.086 234.016C334.086 234.016 323.033 243.774 323.033 262.632L340.266 269.232L334.086 234.016Z" fill="#6C63FF"/>
<path d="M393.192 252.669C393.192 252.669 399.452 274.798 397.736 283.943C396.021 293.088 380.446 305.357 358.794 309.446C358.794 309.446 349.172 311.128 343.629 306.561L335.211 304.153L337.619 296.689C344.035 296.803 350.352 298.286 356.147 301.04C356.147 301.04 376.834 291.657 383.332 284.443C383.332 284.443 382.605 269.766 379.004 259.451L393.192 252.669Z" fill="#FF8B7B"/>
<path d="M299.484 443.335L275.321 439.7L274.446 447.3L296.371 451.776L299.484 443.335Z" fill="#6C63FF"/>
<path d="M321.976 203.548C320.48 207.915 320.666 212.683 322.499 216.919C321.648 213.54 321.806 209.985 322.953 206.695C324.089 203.583 325.964 200.845 327.418 197.891C328.872 194.938 329.86 191.495 328.895 188.349C328.69 187.724 328.236 186.997 327.588 187.099C326.941 187.201 326.804 187.747 326.623 188.235C325.996 189.529 325.516 190.89 325.191 192.291C325.032 193.37 325.191 194.438 325.032 195.54C324.498 198.311 322.919 200.833 321.976 203.548Z" fill="#263238"/>
<path d="M328.667 193.972C327.795 194.301 327.032 194.869 326.466 195.61C325.9 196.351 325.552 197.235 325.464 198.164C323.77 197.073 322.511 195.425 321.903 193.504C321.296 191.584 321.378 189.511 322.135 187.644C324.76 180.828 328.315 171.161 338.903 172.57C349.49 173.978 371.688 177.114 363.736 200.765C355.784 224.417 347.9 195.528 347.9 195.528L328.667 193.972Z" fill="#263238"/>
<path d="M351.83 238.174C342.186 237.572 346.275 229.256 346.718 226.178C346.836 224.835 346.543 223.488 345.878 222.315C345.428 221.444 344.879 220.628 344.242 219.884C340.016 219.884 335.336 219.316 331.985 216.476C328.236 213.352 326.748 207.524 326.134 202.901C325.653 198.624 325.569 194.311 325.884 190.019C325.884 189.383 325.975 188.758 325.998 188.133C326.146 185.668 326.305 183.214 326.395 180.806C326.395 180.806 335.745 178.75 344.094 180.658C350.274 182.067 354.614 187.201 356.488 195.278C357.178 198.355 357.525 201.498 357.522 204.65C357.692 218.078 362.952 220.429 365.008 224.371C367.064 228.313 361.498 238.742 351.83 238.174Z" fill="#FF8B7B"/>
<path d="M334.597 205.809L332.325 197.164L330.769 206.252C330.769 206.252 332.03 207.286 334.597 205.809Z" fill="#FF5652"/>
<path d="M341.277 207.286C341.277 207.286 339.857 210.33 335.336 210.864" stroke="#263238" stroke-width="0.5" stroke-linecap="round" stroke-linejoin="round"/>
<path d="M340.8 192.643C340.183 191.964 339.373 191.492 338.479 191.288C337.585 191.085 336.651 191.162 335.802 191.507" stroke="#263238" stroke-width="0.75" stroke-linecap="round" stroke-linejoin="round"/>
<path d="M337.21 196.88C337.29 197.755 337.801 198.425 338.346 198.38C338.891 198.334 339.278 197.584 339.21 196.71C339.141 195.835 338.619 195.165 338.074 195.21C337.528 195.256 337.142 196.005 337.21 196.88Z" fill="#263238"/>
<path d="M327.168 199.357C327.247 200.231 327.759 200.902 328.304 200.856C328.849 200.811 329.235 200.061 329.167 199.186C329.099 198.312 328.577 197.63 328.031 197.687C327.486 197.744 327.168 198.482 327.168 199.357Z" fill="#263238"/>
<path d="M325.714 188.269C329.357 187.437 332.779 185.829 335.745 183.555C339.085 194.597 353.307 194.994 356.863 194.994C355 186.917 350.524 181.306 344.367 179.897C336.029 177.988 326.191 180.192 326.191 180.192C326.1 182.612 325.85 185.816 325.714 188.269Z" fill="#263238"/>
<path d="M338.073 195.21L335.745 194.767C335.745 194.767 336.347 196.46 338.073 195.21Z" fill="#263238"/>
<path d="M328.497 197.732L326.168 197.3C326.168 197.3 326.77 198.982 328.497 197.732Z" fill="#263238"/>
<path d="M359.238 174.334C360.397 169.534 357.252 164.658 352.215 163.442C347.177 162.226 342.154 165.131 340.996 169.931C339.837 174.731 342.982 179.607 348.019 180.823C353.057 182.039 358.08 179.134 359.238 174.334Z" fill="#263238"/>
<path d="M332.7 185.168L330.814 187.644C330.814 187.644 335.802 186.781 336.903 183.373C338.005 179.965 333.848 182.635 333.848 182.635L332.7 185.168Z" fill="#263238"/>
<path opacity="0.1" d="M350.615 217.18C349.394 219.191 347.783 220.936 345.878 222.315C345.428 221.444 344.879 220.629 344.242 219.884C346.489 219.306 348.638 218.395 350.615 217.18Z" fill="black"/>
<path d="M325.032 195.471C325.292 194.663 325.828 193.973 326.548 193.522C327.267 193.071 328.122 192.888 328.963 193.006" stroke="#263238" stroke-width="0.75" stroke-linecap="round" stroke-linejoin="round"/>
<path d="M353.955 196.38C354.266 195.916 354.619 195.483 355.011 195.085C356.34 193.733 358.51 191.961 360.521 192.95C362.952 194.086 362.441 197.55 361.759 199.641C361.21 201.512 359.955 203.096 358.26 204.06C355.863 205.298 352.296 204.639 352.319 201.413C352.357 199.611 352.926 197.86 353.955 196.38Z" fill="#FF8B7B"/>
<path d="M356.488 192.666C356.488 192.666 352.512 199.368 354.137 205.298C355.761 211.228 354.864 214.022 353.739 217.169C353.739 217.169 354.182 208.161 352.319 204.912C349.479 199.947 353.455 192.643 353.455 192.643L356.488 192.666Z" fill="#263238"/>
<path d="M341.129 172.672C341.129 172.672 351.422 173.899 357.613 178.125C357.613 178.068 352.239 170.923 341.129 172.672Z" fill="#6C63FF"/>
<path d="M214.068 306.175H278.82C279.477 306.175 280.127 306.026 280.718 305.738C281.309 305.45 281.827 305.031 282.232 304.513C282.637 303.995 282.919 303.392 283.056 302.749C283.193 302.105 283.182 301.44 283.023 300.801L271.504 254.896C271.271 253.958 270.73 253.125 269.968 252.53C269.206 251.935 268.267 251.612 267.301 251.613H202.549C201.891 251.612 201.242 251.762 200.651 252.049C200.06 252.337 199.542 252.756 199.137 253.274C198.731 253.792 198.45 254.395 198.313 255.039C198.176 255.682 198.187 256.348 198.346 256.986L209.796 302.892C210.033 303.841 210.583 304.682 211.359 305.279C212.135 305.875 213.09 306.191 214.068 306.175Z" fill="#263238"/>
<path d="M320.591 306.016H276.582V302.608H318.341C318.944 302.608 319.522 302.847 319.948 303.273C320.374 303.699 320.613 304.277 320.613 304.88V306.084L320.591 306.016Z" fill="#263238"/>
<path opacity="0.3" d="M214.068 306.175H278.82C279.477 306.175 280.127 306.026 280.718 305.738C281.309 305.45 281.827 305.031 282.232 304.513C282.637 303.995 282.919 303.392 283.056 302.749C283.193 302.105 283.182 301.44 283.023 300.801L271.504 254.896C271.271 253.958 270.73 253.125 269.968 252.53C269.206 251.935 268.267 251.612 267.301 251.613H202.549C201.891 251.612 201.242 251.762 200.651 252.049C200.06 252.337 199.542 252.756 199.137 253.274C198.731 253.792 198.45 254.395 198.313 255.039C198.176 255.682 198.187 256.348 198.346 256.986L209.796 302.892C210.033 303.841 210.583 304.682 211.359 305.279C212.135 305.875 213.09 306.191 214.068 306.175Z" fill="black"/>
<path d="M210.671 306.175H275.423C276.081 306.175 276.73 306.026 277.321 305.738C277.912 305.45 278.43 305.031 278.835 304.513C279.241 303.995 279.522 303.392 279.659 302.749C279.797 302.105 279.785 301.44 279.626 300.801L268.096 254.896C267.863 253.958 267.322 253.125 266.56 252.53C265.798 251.935 264.859 251.612 263.893 251.613H199.141C198.483 251.612 197.834 251.762 197.243 252.049C196.652 252.337 196.134 252.756 195.729 253.274C195.324 253.792 195.042 254.395 194.905 255.039C194.768 255.682 194.779 256.348 194.938 256.986L206.389 302.892C206.627 303.842 207.18 304.684 207.958 305.28C208.735 305.876 209.692 306.191 210.671 306.175Z" fill="#263238"/>
<path opacity="0.2" d="M210.671 306.175H275.423C276.081 306.175 276.73 306.026 277.321 305.738C277.912 305.45 278.43 305.031 278.835 304.513C279.241 303.995 279.522 303.392 279.659 302.749C279.797 302.105 279.785 301.44 279.626 300.801L268.096 254.896C267.863 253.958 267.322 253.125 266.56 252.53C265.798 251.935 264.859 251.612 263.893 251.613H199.141C198.483 251.612 197.834 251.762 197.243 252.049C196.652 252.337 196.134 252.756 195.729 253.274C195.324 253.792 195.042 254.395 194.905 255.039C194.768 255.682 194.779 256.348 194.938 256.986L206.389 302.892C206.627 303.842 207.18 304.684 207.958 305.28C208.735 305.876 209.692 306.191 210.671 306.175Z" fill="white"/>
<path opacity="0.3" d="M240.162 277.548C241.059 281.376 239.253 285.091 236.118 285.829C232.982 286.567 229.688 284.068 228.779 280.24C227.87 276.412 229.688 272.697 232.823 271.958C235.959 271.22 239.253 273.776 240.162 277.548Z" fill="black"/>
<path d="M194.96 310.162L171.07 458.319H165.776L189.803 309.321L194.96 310.162Z" fill="#6C63FF"/>
<path opacity="0.5" d="M194.96 310.162L171.07 458.319H165.776L189.803 309.321L194.96 310.162Z" fill="white"/>
<path d="M230.108 458.319H224.803L201.719 310.151L206.888 309.344L230.108 458.319Z" fill="#6C63FF"/>
<path opacity="0.5" d="M230.108 458.319H224.803L201.719 310.151L206.888 309.344L230.108 458.319Z" fill="white"/>
<path d="M285.227 310.162L261.337 458.319H256.032L280.058 309.321L285.227 310.162Z" fill="#6C63FF"/>
<path opacity="0.5" d="M285.227 310.162L261.337 458.319H256.032L280.058 309.321L285.227 310.162Z" fill="white"/>
<path d="M364.963 458.319H359.669L336.574 310.151L341.743 309.344L364.963 458.319Z" fill="#6C63FF"/>
<path opacity="0.5" d="M364.963 458.319H359.669L336.574 310.151L341.743 309.344L364.963 458.319Z" fill="white"/>
<path d="M371.472 305.107H151.94V312.002H371.472V305.107Z" fill="#6C63FF"/>
<path opacity="0.3" d="M371.574 305.107H283.091V312.002H371.574V305.107Z" fill="black"/>
<path d="M363.6 305.107H327.338C327.338 304.571 327.551 304.056 327.931 303.677C328.31 303.298 328.824 303.085 329.36 303.085H361.566C362.103 303.085 362.619 303.297 363 303.676C363.381 304.055 363.597 304.57 363.6 305.107Z" fill="#263238"/>
<path d="M350.433 285.783L345.548 297.507C344.651 297.325 343.844 297.2 343.276 297.121L348.366 284.909C348.482 284.63 348.704 284.409 348.983 284.294C349.262 284.179 349.575 284.179 349.854 284.295C350.133 284.411 350.354 284.633 350.469 284.912C350.584 285.191 350.583 285.505 350.467 285.783H350.433Z" fill="#263238"/>
<path d="M353.887 276.605C360.161 276.605 365.247 270.715 365.247 263.45C365.247 256.185 360.161 250.295 353.887 250.295C347.613 250.295 342.527 256.185 342.527 263.45C342.527 270.715 347.613 276.605 353.887 276.605Z" fill="#263238"/>
<path d="M379.004 259.406L378.231 256.668L395.623 248L396.214 251.283L379.004 259.406Z" fill="#263238"/>
<path opacity="0.1" d="M378.231 256.668L372.96 248.773L381.332 268.335L378.231 256.668Z" fill="black"/>
<path d="M330.883 265.631L330.406 262.666L323.033 259.86V262.666L330.883 265.631Z" fill="#263238"/>
<path opacity="0.1" d="M330.883 265.631C330.735 265.063 328.929 252.669 328.929 252.669V264.892L330.883 265.631Z" fill="black"/>
<path d="M345.571 228.268C345.571 228.268 340.596 239.378 352.319 239.026C364.043 238.674 366.996 230.017 367.587 223.576L363.929 222.315C363.929 222.315 361.816 231.403 353.887 233.209C345.958 235.016 346.616 226.746 346.616 226.746L345.571 228.268Z" fill="#263238"/>
<path opacity="0.1" d="M278.956 451.094L291.327 454.002L292.031 450.901L279.672 448.368L278.956 451.094Z" fill="black"/>
</svg>
