<svg width="568" height="568" viewBox="0 0 568 568" fill="none" xmlns="http://www.w3.org/2000/svg">
<path d="M284 568C440.849 568 568 496.698 568 408.741C568 320.785 440.849 249.483 284 249.483C127.151 249.483 0 320.785 0 408.741C0 496.698 127.151 568 284 568Z" fill="#F0F0F0"/>
<path d="M309.229 503.742C361.7 503.742 404.236 479.892 404.236 450.471C404.236 421.051 361.7 397.2 309.229 397.2C256.758 397.2 214.222 421.051 214.222 450.471C214.222 479.892 256.758 503.742 309.229 503.742Z" fill="#E0E0E0"/>
<path d="M480.084 445.179C506.481 445.179 527.88 433.181 527.88 418.38C527.88 403.579 506.481 391.581 480.084 391.581C453.687 391.581 432.289 403.579 432.289 418.38C432.289 433.181 453.687 445.179 480.084 445.179Z" fill="#E0E0E0"/>
<path d="M108.019 478.543C157.989 478.543 198.498 455.827 198.498 427.805C198.498 399.783 157.989 377.066 108.019 377.066C58.0496 377.066 17.541 399.783 17.541 427.805C17.541 455.827 58.0496 478.543 108.019 478.543Z" fill="#E0E0E0"/>
<path d="M456.012 424.428C443.211 411.211 435.697 357.373 448.175 346.878H511.695C524.135 357.373 516.671 411.135 503.883 424.415L503.534 424.781L503.086 425.222C502.726 425.574 502.34 425.927 501.929 426.267L501.631 426.507L500.661 427.25C500.128 427.637 499.576 427.994 499.006 428.321C488.481 434.47 471.401 434.47 460.876 428.321C460.317 427.993 459.757 427.628 459.209 427.238C458.898 427.011 458.6 426.784 458.314 426.545L457.928 426.242C457.542 425.915 457.169 425.587 456.821 425.247L456.311 424.743L456.012 424.428Z" fill="#37474F"/>
<path d="M506.184 342.657C520.677 351.136 520.677 364.87 506.184 373.349C491.691 381.829 468.191 381.829 453.698 373.349C439.205 364.87 439.205 351.136 453.698 342.657C468.191 334.177 491.691 334.177 506.184 342.657Z" fill="#455A64"/>
<path d="M499.217 346.739C509.854 352.963 509.854 363.043 499.217 369.267C488.581 375.491 471.314 375.491 460.652 369.267C449.991 363.043 450.016 352.963 460.652 346.739C471.289 340.515 488.568 340.515 499.217 346.739Z" fill="#242424"/>
<path d="M460.665 357.411C471.314 351.187 488.568 351.187 499.23 357.411C501.803 358.816 503.992 360.846 505.599 363.32C503.996 365.8 501.807 367.836 499.23 369.242C488.581 375.466 471.326 375.466 460.665 369.242C458.09 367.832 455.902 365.797 454.295 363.32C455.906 360.85 458.094 358.82 460.665 357.411Z" fill="#F5F5F5"/>
<path d="M486.13 340.427L477.074 333.862C477.074 333.862 469.61 294.211 476.066 277.164C482.523 260.117 494.378 260.18 500.039 264.754C505.699 269.327 502.601 283.653 500.287 291.918C497.488 301.885 488.593 346.537 494.863 362.375L486.13 340.427Z" fill="#6C63FF"/>
<g opacity="0.2">
<path d="M486.13 340.427L477.074 333.862C477.074 333.862 469.61 294.211 476.066 277.164C482.523 260.117 494.378 260.18 500.039 264.754C505.699 269.327 502.601 283.653 500.287 291.918C497.488 301.885 488.593 346.537 494.863 362.375L486.13 340.427Z" fill="black"/>
</g>
<path d="M484.314 335.815C484.48 335.745 484.617 335.619 484.701 335.458C484.785 335.297 484.811 335.111 484.774 334.933C477.385 301.028 492.637 269.516 492.786 269.201C492.877 269.019 492.892 268.808 492.829 268.614C492.766 268.42 492.63 268.26 492.45 268.168C492.27 268.076 492.062 268.06 491.87 268.124C491.679 268.188 491.521 268.326 491.43 268.508C491.268 268.823 475.78 300.813 483.281 335.286C483.326 335.485 483.446 335.659 483.616 335.77C483.786 335.881 483.992 335.919 484.19 335.878L484.314 335.815Z" fill="white"/>
<path d="M482.224 330.107C482.224 330.107 481.204 326.995 485.732 326.202C490.26 325.408 491.952 321.59 492.425 315.19C492.898 308.789 494.764 304.203 500.437 303.258C506.109 302.313 510.687 305.211 514.382 302.325C518.077 299.44 527.619 292.485 535.531 295.66C543.443 298.835 540.868 305.74 536.775 310.15C532.682 314.56 531.45 316.109 534.61 323.354C537.77 330.599 535.468 337.365 528.166 339.066C520.864 340.767 516.771 339.885 516.659 348.011C516.547 355.269 515.091 362.06 507.615 364.807C501.697 366.976 495.338 367.613 489.116 366.659C487.023 366.473 485.037 365.637 483.431 364.265C481.913 362.715 482.187 360.989 482.187 358.973V330.107H482.224Z" fill="#6C63FF"/>
<g opacity="0.1">
<path d="M482.224 330.107C482.224 330.107 481.204 326.995 485.732 326.202C490.26 325.408 491.952 321.59 492.425 315.19C492.898 308.789 494.764 304.203 500.437 303.258C506.109 302.313 510.687 305.211 514.382 302.325C518.077 299.44 527.619 292.485 535.531 295.66C543.443 298.835 540.868 305.74 536.775 310.15C532.682 314.56 531.45 316.109 534.61 323.354C537.77 330.599 535.468 337.365 528.166 339.066C520.864 340.767 516.771 339.885 516.659 348.011C516.547 355.269 515.091 362.06 507.615 364.807C501.697 366.976 495.338 367.613 489.116 366.659C487.023 366.473 485.037 365.637 483.431 364.265C481.913 362.715 482.187 360.989 482.187 358.973V330.107H482.224Z" fill="black"/>
</g>
<path d="M482.224 363.572C482.357 363.573 482.487 363.53 482.594 363.451C482.701 363.372 482.781 363.26 482.821 363.131C496.12 323.127 526.238 306.962 526.536 306.811C526.684 306.733 526.795 306.599 526.846 306.439C526.897 306.279 526.884 306.105 526.81 305.954C526.773 305.879 526.722 305.812 526.659 305.757C526.596 305.703 526.523 305.661 526.444 305.635C526.366 305.61 526.283 305.6 526.2 305.607C526.118 305.614 526.037 305.638 525.964 305.677C525.653 305.841 495.099 322.208 481.627 362.728C481.599 362.807 481.588 362.891 481.594 362.975C481.599 363.059 481.621 363.141 481.658 363.216C481.695 363.291 481.747 363.358 481.81 363.413C481.873 363.467 481.946 363.509 482.025 363.534C482.088 363.56 482.156 363.573 482.224 363.572Z" fill="white"/>
<path d="M501.307 328.696H501.444C510.152 326.693 524.036 327.777 524.173 327.789C524.339 327.803 524.504 327.75 524.632 327.642C524.76 327.533 524.841 327.378 524.857 327.21C524.864 327.125 524.854 327.04 524.828 326.96C524.802 326.879 524.761 326.804 524.707 326.74C524.652 326.676 524.586 326.623 524.512 326.584C524.437 326.546 524.356 326.523 524.272 326.517C523.7 326.517 510.04 325.408 501.17 327.462C501.026 327.503 500.901 327.595 500.817 327.721C500.733 327.847 500.696 327.999 500.712 328.15C500.729 328.301 500.797 328.442 500.906 328.546C501.015 328.651 501.157 328.713 501.307 328.722V328.696Z" fill="white"/>
<path d="M494.229 347.923C498.197 347.923 502.402 347.659 502.676 347.646C502.758 347.641 502.84 347.62 502.914 347.583C502.989 347.546 503.055 347.494 503.11 347.431C503.164 347.367 503.205 347.293 503.231 347.214C503.257 347.134 503.267 347.049 503.26 346.966C503.257 346.881 503.237 346.798 503.201 346.722C503.165 346.645 503.114 346.577 503.051 346.522C502.988 346.466 502.915 346.425 502.835 346.399C502.756 346.373 502.672 346.365 502.589 346.373C502.501 346.373 492.798 346.978 489.004 346.373C488.839 346.351 488.673 346.394 488.539 346.492C488.404 346.591 488.313 346.738 488.282 346.903C488.257 347.07 488.298 347.24 488.395 347.377C488.493 347.513 488.64 347.606 488.805 347.633C490.604 347.858 492.416 347.954 494.229 347.923Z" fill="white"/>
<path d="M505.388 323.997C505.47 323.992 505.551 323.97 505.626 323.933C505.701 323.896 505.767 323.845 505.821 323.781C505.876 323.718 505.917 323.644 505.943 323.564C505.969 323.484 505.979 323.4 505.972 323.316C505.67 318.743 504.736 314.234 503.198 309.923C503.134 309.766 503.013 309.641 502.86 309.573C502.707 309.505 502.534 309.499 502.377 309.558C502.299 309.588 502.229 309.634 502.169 309.693C502.109 309.751 502.062 309.821 502.029 309.899C501.997 309.976 501.98 310.06 501.98 310.144C501.98 310.228 501.996 310.312 502.029 310.389C503.522 314.577 504.442 318.952 504.766 323.392C504.772 323.555 504.84 323.708 504.956 323.821C505.072 323.934 505.227 323.997 505.388 323.997Z" fill="white"/>
<path d="M482.05 367.906C475.786 369.849 469.13 370.097 462.742 368.624C451.67 366.218 448.996 359.364 448.996 359.364C448.996 359.364 456.883 351.061 463.862 350.544C456.895 349.493 449.803 349.646 442.887 350.998C442.887 350.998 436.481 348.604 437.687 337.755C437.687 337.755 443.721 333.308 457.592 335.047C457.592 335.047 450.638 330.082 438.434 328.608C437.476 328.608 438.782 314.497 439.939 308.197C441.096 301.897 443.41 302.88 448.399 303.422C453.387 303.963 469.087 309.217 470.953 312.834C472.819 316.45 470.953 325.635 470.953 325.635C470.953 325.635 475.518 321.855 476.526 317.218C480.029 317.54 483.352 318.933 486.055 321.212C490.447 324.992 489.178 327.373 487.747 331.115C486.335 334.896 484.396 338.451 481.987 341.674C481.987 341.674 486.665 339.96 491.106 328.671C491.106 328.671 495.697 337.314 496.505 343.501C497.314 349.687 491.517 362.854 482.05 367.906Z" fill="#6C63FF"/>
<path d="M481.764 368.498C481.652 368.456 481.554 368.383 481.482 368.287C481.409 368.191 481.365 368.077 481.353 367.957C479.686 346.953 456.211 314.131 445.836 307.542C445.695 307.451 445.595 307.307 445.557 307.142C445.52 306.977 445.549 306.804 445.637 306.66C445.731 306.522 445.872 306.424 446.034 306.387C446.195 306.349 446.364 306.375 446.508 306.458C457.057 313.161 480.905 346.512 482.585 367.856C482.592 367.939 482.582 368.022 482.557 368.101C482.532 368.18 482.492 368.253 482.439 368.317C482.385 368.38 482.32 368.432 482.247 368.469C482.174 368.507 482.094 368.53 482.013 368.536C481.928 368.545 481.842 368.532 481.764 368.498Z" fill="white"/>
<path d="M108.84 472.71C108.336 472.71 107.851 472.506 107.494 472.145C107.138 471.783 106.937 471.293 106.937 470.782V346.915C106.937 346.404 107.138 345.914 107.494 345.552C107.851 345.191 108.336 344.988 108.84 344.988C109.345 344.988 109.829 345.191 110.186 345.552C110.543 345.914 110.744 346.404 110.744 346.915V470.807C110.737 471.314 110.534 471.798 110.178 472.154C109.821 472.51 109.341 472.71 108.84 472.71Z" fill="#455A64"/>
<path d="M184.477 427.628C184.091 427.624 183.716 427.502 183.4 427.277C183.085 427.052 182.844 426.735 182.711 426.368L145.216 330.234C145.07 329.768 145.104 329.264 145.311 328.822C145.518 328.381 145.883 328.036 146.332 327.857C146.78 327.678 147.279 327.678 147.728 327.857C148.177 328.036 148.542 328.381 148.749 328.822L186.244 424.957C186.34 425.193 186.389 425.447 186.387 425.702C186.386 425.958 186.333 426.211 186.234 426.446C186.134 426.68 185.989 426.893 185.807 427.07C185.625 427.247 185.41 427.385 185.174 427.477C184.953 427.571 184.717 427.622 184.477 427.628Z" fill="#455A64"/>
<path d="M179.974 416.074C179.715 416.075 179.459 416.022 179.221 415.918C178.983 415.814 178.77 415.661 178.593 415.47L108.84 340.691L39.1744 415.155C39.0069 415.354 38.8011 415.516 38.5696 415.632C38.3381 415.748 38.0857 415.815 37.8278 415.829C37.5699 415.843 37.3119 415.804 37.0695 415.714C36.827 415.624 36.6053 415.484 36.4176 415.305C36.23 415.125 36.0805 414.908 35.9781 414.668C35.8758 414.428 35.8227 414.169 35.8223 413.908C35.8218 413.646 35.8739 413.387 35.9754 413.147C36.0769 412.906 36.2256 412.689 36.4126 412.509L107.447 336.559C107.63 336.374 107.847 336.229 108.087 336.132C108.326 336.035 108.582 335.987 108.84 335.992C109.099 335.993 109.354 336.048 109.591 336.152C109.828 336.256 110.043 336.407 110.221 336.596L181.355 412.849C181.61 413.122 181.78 413.466 181.845 413.836C181.909 414.207 181.866 414.588 181.719 414.934C181.572 415.279 181.329 415.574 181.018 415.781C180.708 415.988 180.345 416.099 179.974 416.1V416.074Z" fill="#455A64"/>
<path d="M33.1537 427.628C32.915 427.626 32.6788 427.579 32.4571 427.49C32.2214 427.398 32.0063 427.26 31.8243 427.082C31.6423 426.905 31.4972 426.693 31.3974 426.458C31.2977 426.223 31.2455 425.971 31.2437 425.715C31.2419 425.459 31.2907 425.206 31.3872 424.97L68.8823 328.835C69.0671 328.359 69.431 327.977 69.8941 327.772C70.3573 327.568 70.8816 327.558 71.3517 327.745C71.8219 327.932 72.1994 328.301 72.4012 328.77C72.603 329.239 72.6126 329.77 72.4278 330.246L34.9203 426.381C34.7846 426.745 34.5432 427.059 34.2279 427.282C33.9126 427.505 33.5381 427.625 33.1537 427.628Z" fill="#455A64"/>
<path d="M181.89 413.113L186.866 426.356C186.878 426.469 186.878 426.583 186.866 426.696C186.879 426.775 186.879 426.856 186.866 426.935C186.734 427.303 186.466 427.606 186.12 427.779C185.652 428.016 185.137 428.139 184.615 428.139C184.092 428.139 183.577 428.016 183.109 427.779C182.85 427.642 182.644 427.42 182.525 427.149V426.973L177.934 414.55L181.89 413.113Z" fill="#6C63FF"/>
<path d="M35.7408 413.113L30.7646 426.356C30.7524 426.469 30.7524 426.583 30.7646 426.696C30.7523 426.775 30.7523 426.856 30.7646 426.935C30.8971 427.303 31.1644 427.606 31.511 427.779C31.9785 428.016 32.4939 428.139 33.0163 428.139C33.5388 428.139 34.0541 428.016 34.5216 427.779C34.7807 427.642 34.9866 427.42 35.1063 427.149V426.973L39.7092 414.55L35.7408 413.113Z" fill="#6C63FF"/>
<path d="M111.005 461.194V472.155C110.987 472.35 110.92 472.536 110.808 472.695C110.697 472.854 110.546 472.981 110.371 473.062C109.887 473.304 109.355 473.43 108.815 473.43C108.276 473.43 107.744 473.304 107.26 473.062C107.085 472.981 106.934 472.854 106.823 472.695C106.711 472.536 106.644 472.35 106.626 472.155V461.194C107.299 460.827 108.051 460.636 108.815 460.636C109.58 460.636 110.332 460.827 111.005 461.194Z" fill="#6C63FF"/>
<path d="M186.791 328.86C186.791 325.698 184.055 322.321 178.27 318.529C167.584 311.498 143.698 297.399 128.745 289.008C128.737 288.978 128.721 288.95 128.7 288.928C128.678 288.906 128.65 288.89 128.62 288.882C117.101 281.813 106.352 248.122 98.4029 222.507C95.6909 213.788 92.3569 208.849 88.4507 206.531C87.5176 205.977 84.0717 204.011 83.3004 203.583C75.4879 198.845 65.2246 204.54 52.4484 211.621C40.6674 218.148 31.474 226.501 29.6204 248.664C28.5008 262.171 29.6204 287.962 32.2826 307.504C36.2013 340.149 40.9909 340.263 47.9948 345.668C60.0121 355.08 87.0822 368.347 98.49 372.845C119.178 381.085 136.085 368.372 148.687 362.073C160.245 356.148 171.403 349.456 182.089 342.039C185.236 339.708 186.878 337.365 186.841 334.895C186.779 333.9 186.804 329.881 186.791 328.86Z" fill="#242424"/>
<path d="M148.649 355.987C160.201 350.072 171.355 343.392 182.039 335.992C189.205 330.725 188.545 325.332 178.307 318.579C170.644 313.539 171.042 313.098 113.331 280.969C113.331 280.969 39.7468 324.942 42.919 333.068C46.0913 341.195 84.1338 361.09 98.4775 366.81C119.128 375.05 136.035 362.287 148.649 355.987Z" fill="#37474F"/>
<path d="M87.9657 206.216C80.2154 202.096 70.1512 207.69 57.6984 214.595C49.7242 219.03 42.9318 224.271 38.8016 234.086L33.5518 231.012C37.6695 221.235 44.4619 215.993 52.4113 211.571C65.1875 204.49 75.4507 198.795 83.2633 203.532C83.9599 203.986 86.6719 205.523 87.9657 206.216Z" fill="#455A64"/>
<path d="M57.6982 214.658C76.819 204.049 90.3167 196.514 98.4029 222.507C106.365 248.122 117.063 281.813 128.62 288.882C128.62 288.882 124.888 285.681 96.2756 307.592C87.1693 314.56 76.1099 320.28 68.9069 324.664C54.6877 333.245 46.0541 336.684 44.6981 335.538C37.1717 329.238 33.1037 273.863 34.9573 251.7C36.8109 229.538 45.9297 221.184 57.6982 214.658Z" fill="#37474F"/>
<g opacity="0.5">
<path d="M57.6981 214.658C76.8189 204.049 90.3167 196.514 98.4029 222.507C106.365 248.122 117.063 281.813 128.62 288.882C128.62 288.882 108.878 288.882 80.2649 304.518C50.5325 320.784 45.9794 336.684 44.6234 335.538C37.097 329.238 33.029 273.863 34.8826 251.7C36.7362 229.538 45.9296 221.184 57.6981 214.658Z" fill="#455A64"/>
</g>
<path d="M423.904 152.542C428.967 151.395 433.433 150.324 436.867 149.43C455.129 144.705 460.628 138.582 461.188 130.404C462.096 117.351 457.269 117.25 448.946 123.084C445.485 125.572 441.695 127.553 437.688 128.968C439.08 127.357 440.24 125.554 441.134 123.613C442.378 120.363 440.686 118.284 439.579 117.729C438.708 117.301 437.825 119.556 434.814 122.051C430.933 125.239 427.798 125.831 424.588 130.278C423.36 131.915 421.596 133.055 419.612 133.491C417.796 133.907 387.976 142.172 374.006 144.604C365.808 134.033 358.194 122.756 349.523 111.53C336.175 94.2184 329.83 91.7993 322.341 93.1727L315.835 114.894C315.835 114.894 359.799 167.334 360.322 167.989C361.815 170.032 363.906 171.547 366.298 172.318C368.689 173.09 371.26 173.078 373.645 172.285C392.579 166.653 412.621 157.821 423.904 152.542Z" fill="#FFA8A7"/>
<path d="M320.599 88.8007C336.199 89.4936 340.827 98.3511 348.839 108.179C356.85 118.006 374.292 143.218 374.292 143.218L416.875 134.197C416.875 134.197 415.121 146.582 420.607 154.041C420.607 154.041 398.015 165.582 384.331 170.887C367.039 177.615 365.907 176.078 362.784 173.18C359.662 170.282 321.731 126.801 321.731 126.801L320.599 88.8007Z" fill="#37474F"/>
<path d="M144.569 118.019C148.612 105.596 153.078 105.079 158.589 113.672C160.863 117.303 163.626 120.594 166.8 123.45C166.097 121.419 165.678 119.298 165.556 117.15C165.556 113.66 167.969 112.374 169.201 112.299C170.171 112.299 170.134 114.655 172 118.12C174.388 122.568 177.063 124.331 178.382 129.661C178.879 131.664 180.173 135.646 181.828 136.83C190.287 142.853 205.663 150.274 220.952 156.259C226.376 144.655 233.529 130.178 238.978 120.035C249.354 100.758 256.221 98.6158 263.772 99.5229L271.46 120.829C271.46 120.829 230.407 175.675 229.984 176.355C226.837 180.841 220.393 183.915 215.379 181.836C201.06 175.889 190.424 165.456 178.27 157.065C171.054 152.101 164.237 148.245 159.883 144.944C144.818 133.58 142.031 125.806 144.569 118.019Z" fill="#FFA8A7"/>
<path d="M253.907 357.776C254.243 341.397 259.107 329.238 259.492 324.69C259.492 324.69 258.248 227.257 258.248 211.445L340.28 208.056C340.28 208.056 339.135 305.74 339.135 319.284C339.135 332.829 337.132 390.396 335.018 416.893L334.781 425.612L316.469 431.383C316.469 431.383 316.817 428.863 316.469 416.465C316.121 404.067 307.898 361.254 307.126 350.38C306.144 336.307 308.37 330.624 308.084 321.225C307.798 311.826 302.387 250.314 302.387 250.314C302.387 250.314 292.111 310.792 289.548 331.267C286.625 354.777 277.22 416.402 277.195 430.728C277.195 433.248 277.195 436.271 277.195 439.484C277.195 447.246 276.983 449.287 278.215 452.285C280.355 457.527 262.043 460.828 261.172 457.099L259.194 441.702V441.261V431.496C259.219 416.893 253.409 381.539 253.907 357.776Z" fill="#FFA8A7"/>
<path d="M370.647 449.929C371.145 451.434 371.056 453.075 370.398 454.516C369.763 455.864 362.847 459.82 353.504 459.177C346.582 458.684 339.917 456.326 334.197 452.349C330.639 449.955 326.931 449.514 322.304 449.236C317.676 448.959 311.605 446.641 310.597 444.449C309.59 442.256 310.747 438.489 310.747 438.489L370.647 449.929Z" fill="#37474F"/>
<path d="M332.965 420.409L333.712 420.245C334.117 420.134 334.541 420.112 334.956 420.182C335.406 420.327 335.804 420.603 336.1 420.976C337.02 422.151 337.82 423.417 338.489 424.755C340.442 427.981 344.56 430.665 349.038 433.109C352.098 434.772 355.084 436.057 358.232 437.494C361.379 438.93 365.696 439.85 368.184 441.563C371.854 444.083 372.326 450.383 368.184 452.827C364.589 454.969 355.109 457.288 345.169 454.44C339.758 452.89 333.749 447.031 326.646 446.464C322.117 446.112 313.571 444.827 310.66 441.349C309.59 439.799 311.021 434.911 312.202 430.702C313.446 426.091 315.026 418.884 316.532 419.287C316.594 420.194 316.42 420.421 317.004 421.039C317.589 421.656 318.311 421.984 318.92 422.513C319.963 423.561 320.807 424.796 321.408 426.154C321.644 426.759 322.085 427.26 322.652 427.565C323.423 427.855 323.983 427.364 324.655 427.061C325.502 426.668 326.46 426.596 327.355 426.86C327.266 425.95 327.108 425.048 326.882 424.163C326.778 423.886 326.752 423.585 326.807 423.294C326.928 423.015 327.133 422.781 327.392 422.626C329.076 421.499 330.974 420.744 332.965 420.409Z" fill="#455A64"/>
<path d="M296.03 476.729C296.577 477.258 296.415 480.861 295.806 481.769C295.196 482.676 291.389 486.052 284.609 486.556C278.128 487.023 272.331 486.141 268.524 483.684C264.717 481.227 262.864 478.53 262.516 474.788C262.167 471.046 262.515 467.43 260.799 464.558C259.169 461.899 256.581 458.9 256.022 457.451C254.778 454.314 256.022 449.829 256.022 449.829L296.03 476.729Z" fill="#37474F"/>
<path d="M278.265 444.045C278.313 445.465 278.565 446.869 279.012 448.216C280.011 451.113 281.348 453.879 282.993 456.456C283.8 457.805 284.702 459.094 285.692 460.311C287.658 462.68 290.096 464.62 292.173 466.888C294.388 469.032 295.803 471.885 296.179 474.965C296.453 480.118 290.929 481.869 286.675 482.625C282.075 483.443 277.352 483.206 272.854 481.932C270.493 481.305 268.361 480.004 266.711 478.183C265.061 476.362 263.963 474.099 263.548 471.664C263.312 470.227 263.399 468.766 263.237 467.329C262.669 464.039 261.31 460.941 259.281 458.308C258.096 456.786 257.079 455.139 256.246 453.394C254.915 450.206 255.972 446.616 256.831 443.441C257.565 440.694 258.386 437.594 259.319 437.846C259.319 439.27 259.319 439.421 260.326 440.366C261.57 441.626 261.645 443.428 263.001 444.499C262.562 443.313 262.246 442.084 262.055 440.832C261.965 440.33 262.067 439.812 262.342 439.383C262.784 438.978 263.318 438.688 263.897 438.539C265.914 437.843 267.999 437.366 270.117 437.116C272.114 436.782 274.153 436.782 276.15 437.116C276.743 437.228 277.279 437.544 277.668 438.01C278.02 438.524 278.206 439.136 278.203 439.761C278.29 440.568 278.228 442.685 278.265 444.045Z" fill="#455A64"/>
<path d="M283.677 457.527C281.773 456.091 277.531 456.078 275.205 456.33C272.847 456.538 270.58 457.344 268.611 458.673C268.323 458.885 267.969 458.986 267.614 458.958C267.258 458.931 266.924 458.776 266.671 458.522C266.521 458.378 266.405 458.202 266.33 458.007C266.255 457.812 266.223 457.603 266.236 457.394C266.249 457.185 266.307 456.982 266.405 456.798C266.504 456.614 266.641 456.454 266.807 456.33C268.984 454.703 271.573 453.737 274.272 453.545C279.994 453.13 281.661 454.125 281.661 454.125C281.661 454.125 284.249 455.826 283.677 457.527Z" fill="#F5F5F5"/>
<path d="M287.981 462.806C285.592 461.382 280.927 461.546 278.601 461.849C276.28 462.104 274.066 462.973 272.182 464.369C271.892 464.581 271.537 464.681 271.181 464.651C270.825 464.621 270.491 464.463 270.241 464.205C270.093 464.06 269.977 463.885 269.903 463.69C269.829 463.496 269.798 463.287 269.812 463.08C269.827 462.872 269.886 462.67 269.986 462.487C270.085 462.305 270.224 462.147 270.39 462.025C272.592 460.322 275.221 459.279 277.979 459.014C283.689 458.598 285.182 459.782 285.182 459.782C285.842 460.043 286.436 460.449 286.92 460.973C287.404 461.496 287.767 462.122 287.981 462.806Z" fill="#F5F5F5"/>
<path d="M271.958 448.002C274.366 447.577 276.842 447.785 279.149 448.606C280.156 449.186 280.816 450.799 280.169 451.202C278.15 450.379 275.962 450.076 273.799 450.32C271.644 450.525 269.54 451.105 267.579 452.034C267.094 452.26 266.522 452.563 266.012 452.853C265.85 452.942 265.673 452.997 265.491 453.016C265.308 453.034 265.124 453.015 264.948 452.96C264.773 452.905 264.611 452.814 264.471 452.694C264.33 452.574 264.216 452.426 264.133 452.26C263.989 451.971 263.961 451.638 264.053 451.328C264.146 451.018 264.353 450.757 264.631 450.597C266.861 449.21 269.36 448.324 271.958 448.002Z" fill="#F5F5F5"/>
<path d="M344.808 430.64C344.484 430.011 344.008 429.475 343.426 429.081C342.843 428.687 342.172 428.447 341.474 428.384C339.422 427.994 335.789 429.531 333.525 431.408C333.311 431.585 333.144 431.812 333.037 432.07C332.93 432.328 332.887 432.608 332.912 432.886C332.937 433.164 333.028 433.432 333.178 433.667C333.328 433.901 333.533 434.094 333.774 434.23C334.078 434.399 334.426 434.469 334.771 434.431C335.116 434.393 335.441 434.248 335.702 434.016C338.185 431.728 341.454 430.516 344.808 430.64Z" fill="#F5F5F5"/>
<path d="M351.178 434.268C350.733 433.628 350.143 433.105 349.456 432.746C348.769 432.386 348.007 432.199 347.234 432.202C347.234 432.202 341.86 432.366 338.526 435.503C338.322 435.674 338.162 435.892 338.059 436.139C337.956 436.387 337.914 436.655 337.936 436.923C337.958 437.19 338.043 437.448 338.185 437.675C338.327 437.901 338.521 438.09 338.75 438.224C339.042 438.391 339.378 438.459 339.711 438.421C340.044 438.382 340.356 438.239 340.604 438.01C341.976 436.622 343.639 435.565 345.469 434.917C347.3 434.27 349.251 434.048 351.178 434.268Z" fill="#F5F5F5"/>
<path d="M358.219 437.519C357.709 436.925 357.077 436.451 356.368 436.129C355.66 435.807 354.89 435.645 354.113 435.654C351.061 435.843 348.147 437.007 345.791 438.98C345.587 439.151 345.426 439.37 345.323 439.617C345.221 439.864 345.178 440.133 345.2 440.4C345.222 440.668 345.308 440.926 345.45 441.152C345.592 441.379 345.785 441.568 346.015 441.702C346.307 441.866 346.643 441.934 346.975 441.896C347.308 441.857 347.62 441.715 347.868 441.488C349.167 440.053 350.78 438.946 352.577 438.257C354.375 437.567 356.307 437.315 358.219 437.519Z" fill="#F5F5F5"/>
<path d="M340.33 208.056C340.33 208.056 341.425 276.887 341.574 288.983C341.723 301.078 341.574 324.261 341.574 336.08C341.574 336.08 338.551 341.246 321.309 341.233C304.066 341.22 301.578 336.395 301.578 336.395L299.028 280.755L294.201 338.511C290.712 340.916 286.775 342.571 282.63 343.375C278.486 344.178 274.223 344.114 270.104 343.186C255.91 340.086 253.82 335.803 253.82 335.803L256.619 208.282L340.33 208.056Z" fill="#37474F"/>
<path d="M299.003 280.755L301.491 257.395C301.491 257.395 313.322 254.472 321.234 248.437C318.685 251.57 315.652 254.264 312.252 256.413C307.45 259.147 305.136 260.268 305.136 260.268L301.678 282.872L301.068 326.97L299.003 280.755Z" fill="#242424"/>
<path d="M255.636 219.987C266.895 228.291 317.937 237.501 341.624 219.987C341.624 219.987 341.076 152.983 339.21 117.515C339.123 115.902 339.024 114.34 338.862 112.828C338.862 112.324 338.738 111.82 338.688 111.316C338.414 109.19 337.998 107.085 337.444 105.016C337.357 104.676 337.245 104.336 337.145 103.996C336.909 103.227 336.672 102.484 336.361 101.74C336.212 101.35 336.05 100.959 335.876 100.581C335.702 100.203 335.553 99.8632 335.354 99.523C335.338 99.4546 335.308 99.3903 335.267 99.334C335.093 98.9938 334.893 98.6536 334.707 98.326C334.52 97.9984 334.284 97.6078 334.035 97.255C333.786 96.9023 333.575 96.5873 333.338 96.2849C333.102 95.9825 332.791 95.6045 332.493 95.2769C332.223 94.9593 331.936 94.6565 331.634 94.3698L331.012 93.7776L330.39 93.261C330.129 93.0216 329.83 92.8074 329.544 92.5932C328.596 91.9198 327.598 91.3217 326.558 90.8041C326.272 90.6655 325.974 90.5143 325.675 90.4009C325.603 90.3722 325.532 90.3385 325.464 90.3001L324.394 89.8969C323.795 89.6591 323.185 89.453 322.565 89.2795C321.935 89.1031 321.275 88.9393 320.587 88.7881C319.816 88.7881 318.97 88.7881 318.099 88.7881H316.233L314.218 88.8637C305.36 89.2543 292.646 90.7033 282.445 92.0262L280.455 92.3034L278.701 92.5176C271.697 93.45 266.509 94.2186 265.713 94.3446H265.588C263.299 94.9367 261.172 95.4911 259.455 96.0077C254.778 97.4062 258.211 96.2093 257.229 100.796C254.206 114.252 257.726 163.201 257.726 163.201L255.636 219.987Z" fill="#455A64"/>
<path d="M276.001 51.9847C276.001 51.9847 279.646 69.3091 281.102 72.144C282.078 73.8969 283.681 75.2044 285.58 75.7979L285.319 63.6141L276.001 51.9847Z" fill="#242424"/>
<path d="M280.517 27.1762C279.243 27.0306 277.953 27.1819 276.745 27.6187C275.538 28.0554 274.445 28.766 273.55 29.6961C270.564 32.7704 272.269 42.4217 276.001 51.9848L282.855 52.7911L280.517 27.1762Z" fill="#242424"/>
<path d="M284.908 52.7911C283.54 53.6226 281.574 50.9515 279.932 49.1498C278.29 47.348 272.704 44.9037 269.98 50.7877C267.255 56.6717 272.468 64.7228 276.772 66.1088C284.236 68.5027 285.406 63.5889 285.406 63.5889L285.829 91.5599C293.691 105.986 320.301 98.6031 310.324 89.04V81.9464C314.097 82.2178 317.884 82.2178 321.657 81.9464C327.18 81.0771 329.444 77.209 331.124 71.1486C333.811 61.4218 334.856 53.5722 332.554 34.4461C330.066 13.493 305.982 13.2788 292.982 21.5567C279.982 29.8346 284.908 52.7911 284.908 52.7911Z" fill="#FFA8A7"/>
<path d="M281.761 15.7233C286.319 13.7514 291.08 12.2978 295.955 11.3891C306.455 9.08334 317.104 6.95401 326.732 2.05278C327.843 1.3237 329.141 0.942414 330.465 0.956621C332.953 1.29681 334.097 4.3963 334.197 6.96661C334.283 9.36248 333.972 11.7561 333.276 14.0476C334.04 13.3067 335.061 12.9005 336.118 12.917C337.175 12.9335 338.183 13.3714 338.924 14.1358C339.628 14.9394 340.141 15.895 340.426 16.9298C340.711 17.9646 340.758 19.0516 340.566 20.108C339.944 24.8706 336.349 28.8395 332.082 30.9562C327.815 33.0729 322.988 33.5895 318.248 33.7281C311.625 33.9293 305 33.4267 298.48 32.2287C296.916 31.8305 295.296 31.7111 293.691 31.876C292.889 31.9667 292.129 32.2843 291.498 32.7924C290.866 33.3004 290.389 33.9784 290.121 34.7487C289.424 37.3946 288.69 55.3993 285.045 55.4749C284.361 55.4749 281.773 50.9517 280.069 49.3389C277.954 47.2978 275.814 31.8759 275.441 29.0284C275.395 28.8067 275.296 28.5993 275.155 28.4237C272.766 25.0344 275.565 19.3268 278.514 17.462C279.562 16.8192 280.646 16.2386 281.761 15.7233Z" fill="#242424"/>
<path d="M276.461 28.663C276.035 29.1701 275.514 29.5872 274.928 29.8905C274.343 30.1938 273.704 30.3772 273.048 30.4305C272.393 30.4837 271.733 30.4056 271.108 30.2007C270.482 29.9958 269.902 29.6681 269.401 29.2363C268.901 28.8044 268.489 28.2769 268.189 27.6838C267.89 27.0908 267.709 26.4438 267.656 25.7799C267.604 25.1159 267.681 24.4479 267.883 23.8142C268.085 23.1804 268.409 22.5931 268.835 22.086L276.461 28.663Z" fill="#242424"/>
<path d="M310.299 81.9718C310.299 81.9718 297.983 80.7118 293.666 78.4439C291.13 77.1074 289.053 75.0256 287.707 72.4717C288.359 75.0249 289.509 77.4199 291.091 79.5148C294.251 83.5971 310.299 86.6084 310.299 86.6084V81.9718Z" fill="#F28F8F"/>
<path d="M307.338 49.6665C307.321 50.1607 307.16 50.639 306.877 51.0416C306.593 51.4442 306.199 51.7535 305.743 51.9307C305.287 52.108 304.79 52.1455 304.313 52.0385C303.836 51.9316 303.401 51.6849 303.062 51.3292C302.723 50.9735 302.494 50.5246 302.405 50.0383C302.316 49.5521 302.37 49.05 302.561 48.5947C302.751 48.1393 303.07 47.7509 303.477 47.4777C303.884 47.2045 304.361 47.0587 304.85 47.0584C305.184 47.0581 305.515 47.1261 305.823 47.2582C306.13 47.3904 306.408 47.5839 306.641 47.8273C306.873 48.0707 307.054 48.359 307.174 48.675C307.294 48.991 307.35 49.3282 307.338 49.6665Z" fill="#242424"/>
<path d="M304.726 40.2295L299.438 43.1778C299.061 42.4428 298.98 41.5885 299.212 40.7943C299.444 40.0001 299.971 39.328 300.682 38.9191C301.031 38.727 301.414 38.6085 301.809 38.5707C302.204 38.5328 302.603 38.5764 302.981 38.6989C303.358 38.8214 303.708 39.0201 304.008 39.2832C304.308 39.5463 304.552 39.8682 304.726 40.2295Z" fill="#242424"/>
<path d="M309.192 66.9531L314.827 69.095C314.704 69.4782 314.506 69.8323 314.245 70.1363C313.984 70.4403 313.665 70.6879 313.308 70.8643C312.95 71.0407 312.561 71.1423 312.164 71.163C311.766 71.1837 311.369 71.1232 310.995 70.985C310.238 70.6804 309.626 70.0899 309.29 69.3379C308.953 68.5858 308.918 67.7309 309.192 66.9531Z" fill="#F28F8F"/>
<path d="M329.37 42.3084L324.556 38.5285C324.781 38.1985 325.07 37.9184 325.405 37.7053C325.74 37.4923 326.115 37.3508 326.506 37.2894C326.898 37.2281 327.297 37.2483 327.68 37.3487C328.064 37.4491 328.423 37.6276 328.736 37.8733C329.386 38.3871 329.815 39.1353 329.933 39.9617C330.051 40.7882 329.849 41.6289 329.37 42.3084Z" fill="#242424"/>
<path d="M327.889 48.9608C327.872 49.4551 327.712 49.9333 327.428 50.336C327.145 50.7386 326.75 51.0478 326.294 51.2251C325.839 51.4024 325.341 51.4399 324.865 51.3329C324.388 51.2259 323.953 50.9793 323.613 50.6236C323.274 50.2679 323.046 49.819 322.956 49.3327C322.867 48.8465 322.921 48.3444 323.112 47.889C323.303 47.4337 323.621 47.0452 324.028 46.772C324.435 46.4989 324.913 46.353 325.401 46.3527C325.735 46.3525 326.066 46.4205 326.374 46.5526C326.681 46.6847 326.96 46.8783 327.192 47.1217C327.424 47.3651 327.606 47.6534 327.725 47.9694C327.845 48.2854 327.901 48.6226 327.889 48.9608Z" fill="#242424"/>
<path d="M317.34 47.1718L318.161 62.2157L325.911 59.532L317.34 47.1718Z" fill="#F28F8F"/>
<path d="M266.521 94.3319C248.296 94.6217 243.569 105.495 238.195 117.011C232.82 128.527 219.186 154.558 219.186 154.558L184.875 138.846C182.907 145.047 178.818 150.333 173.343 153.751C173.343 153.751 189.516 167.523 203.474 177.615C215.28 186.158 222.134 190.593 226.675 187.531C230.034 185.263 263.523 140.913 263.523 140.913C272.057 127.431 273.873 104.538 266.521 94.3319Z" fill="#37474F"/>
<path d="M324.555 55.7646L322.602 54.7567L320.687 51.9848C320.996 51.852 321.332 51.7953 321.667 51.8194C322.002 51.8435 322.327 51.9477 322.615 52.1234C323.486 52.7533 324.555 55.7646 324.555 55.7646Z" fill="#6C63FF"/>
<path opacity="0.65" d="M324.555 55.7646L322.602 54.7567L320.687 51.9848C320.996 51.852 321.332 51.7953 321.667 51.8194C322.002 51.8435 322.327 51.9477 322.615 52.1234C323.486 52.7533 324.555 55.7646 324.555 55.7646Z" fill="black"/>
<path d="M342.718 47.1088C342.596 49.1651 341.815 51.1248 340.492 52.6897C339.169 54.2545 337.378 55.3388 335.391 55.7773L332.318 56.3065C330.972 56.5574 329.605 56.6672 328.237 56.6341H327.827C327.603 56.6341 327.379 56.6341 327.168 56.6341C326.786 56.5967 326.408 56.5335 326.035 56.4451C325.84 56.4072 325.649 56.3524 325.463 56.2813C325.291 56.2316 325.124 56.1641 324.966 56.0797C324.893 56.0544 324.826 56.016 324.767 55.9663C324.682 55.925 324.603 55.8743 324.53 55.8151C324.405 55.7087 324.3 55.5807 324.219 55.4371L323.162 53.2448C322.918 52.8077 322.551 52.4542 322.108 52.2297C321.665 52.0053 321.165 51.92 320.674 51.9848L318.484 52.3754C317.942 52.5191 317.438 52.7822 317.008 53.1459C316.578 53.5096 316.232 53.965 315.996 54.4795C315.996 54.4795 315.536 55.6387 314.951 56.9994C314.366 58.3602 310.734 60.1367 306.853 60.7793L303.78 61.3337C303.157 61.427 302.524 61.427 301.901 61.3337C301.551 61.3097 301.205 61.2463 300.869 61.1447L300.396 61.0061L300.097 60.8801C299.828 60.7754 299.57 60.6446 299.326 60.4895C298.493 60.1493 285.094 54.6307 283.253 50.1831C280.317 43.0265 292.372 35.6558 296.714 34.2572C297.211 34.0525 297.728 33.9005 298.256 33.8036L329.904 28.3102C331.48 27.992 333.116 28.3035 334.47 29.1796C335.279 29.6962 338.264 31.4853 339.508 32.2413C339.619 32.2921 339.723 32.3555 339.819 32.4303C339.994 32.5311 340.168 32.6571 340.342 32.7705C340.401 32.8103 340.455 32.8568 340.504 32.9091C340.678 33.0477 340.839 33.1989 341.001 33.3501C341.196 33.5494 341.375 33.7643 341.536 33.9926C341.66 34.1497 341.768 34.3185 341.86 34.4966C342.014 34.7449 342.147 35.0063 342.258 35.2778C342.357 35.5172 342.432 35.7566 342.506 35.996C342.572 36.2224 342.618 36.4543 342.643 36.689C342.655 36.7429 342.655 36.7988 342.643 36.8527C342.662 37.117 342.662 37.3823 342.643 37.6465C342.784 40.83 342.809 43.9841 342.718 47.1088Z" fill="#6C63FF"/>
<g opacity="0.2">
<path d="M342.718 47.1088C342.596 49.1651 341.815 51.1248 340.492 52.6897C339.169 54.2545 337.378 55.3388 335.391 55.7773L332.318 56.3065C330.972 56.5574 329.605 56.6672 328.237 56.6341H327.827C327.603 56.6341 327.379 56.6341 327.168 56.6341C326.786 56.5967 326.408 56.5335 326.035 56.4451C325.84 56.4072 325.649 56.3524 325.463 56.2813C325.291 56.2316 325.124 56.1641 324.966 56.0797C324.893 56.0544 324.826 56.016 324.767 55.9663C324.682 55.925 324.603 55.8743 324.53 55.8151C324.405 55.7087 324.3 55.5807 324.219 55.4371L323.162 53.2448C322.918 52.8077 322.551 52.4542 322.108 52.2297C321.665 52.0053 321.165 51.92 320.674 51.9848L318.484 52.3754C317.942 52.5191 317.438 52.7822 317.008 53.1459C316.578 53.5096 316.232 53.965 315.996 54.4795C315.996 54.4795 315.536 55.6387 314.951 56.9994C314.366 58.3602 310.734 60.1367 306.853 60.7793L303.78 61.3337C303.157 61.427 302.524 61.427 301.901 61.3337C301.551 61.3097 301.205 61.2463 300.869 61.1447L300.396 61.0061L300.097 60.8801C299.828 60.7754 299.57 60.6446 299.326 60.4895C298.493 60.1493 285.094 54.6307 283.253 50.1831C280.317 43.0265 292.372 35.6558 296.714 34.2572C297.211 34.0525 297.728 33.9005 298.256 33.8036L329.904 28.3102C331.48 27.992 333.116 28.3035 334.47 29.1796C335.279 29.6962 338.264 31.4853 339.508 32.2413C339.619 32.2921 339.723 32.3555 339.819 32.4303C339.994 32.5311 340.168 32.6571 340.342 32.7705C340.401 32.8103 340.455 32.8568 340.504 32.9091C340.678 33.0477 340.839 33.1989 341.001 33.3501C341.196 33.5494 341.375 33.7643 341.536 33.9926C341.66 34.1497 341.768 34.3185 341.86 34.4966C342.014 34.7449 342.147 35.0063 342.258 35.2778C342.357 35.5172 342.432 35.7566 342.506 35.996C342.572 36.2224 342.618 36.4543 342.643 36.689C342.655 36.7429 342.655 36.7988 342.643 36.8527C342.662 37.117 342.662 37.3823 342.643 37.6465C342.784 40.83 342.809 43.9841 342.718 47.1088Z" fill="black"/>
</g>
<path d="M339.509 32.2413C338.249 31.5842 336.809 31.3714 335.416 31.6365L303.768 37.2937C301.869 37.711 300.146 38.7164 298.838 40.1704C297.529 41.6244 296.7 43.4549 296.465 45.4078L287.384 40.1034C290.125 37.6576 293.276 35.7288 296.689 34.4084C297.186 34.2037 297.703 34.0517 298.232 33.9548L329.905 28.3102C331.48 27.992 333.116 28.3035 334.47 29.1796C335.254 29.6962 338.265 31.4853 339.509 32.2413Z" fill="#6C63FF"/>
<path opacity="0.35" d="M339.509 32.2413C338.249 31.5842 336.809 31.3714 335.416 31.6365L303.768 37.2937C301.869 37.711 300.146 38.7164 298.838 40.1704C297.529 41.6244 296.7 43.4549 296.465 45.4078L287.384 40.1034C290.125 37.6576 293.276 35.7288 296.689 34.4084C297.186 34.2037 297.703 34.0517 298.232 33.9548L329.905 28.3102C331.48 27.992 333.116 28.3035 334.47 29.1796C335.254 29.6962 338.265 31.4853 339.509 32.2413Z" fill="white"/>
<path d="M342.718 37.6717C342.793 40.8132 342.793 43.9631 342.718 47.1214C342.598 49.1752 341.816 51.1324 340.493 52.6933C339.169 54.2543 337.377 55.3332 335.391 55.7647L332.318 56.3191C328.425 57.0121 324.854 56.5837 324.22 55.3867L323.162 53.1944C322.919 52.7573 322.552 52.4038 322.108 52.1793C321.665 51.9549 321.166 51.8696 320.674 51.9344L318.472 52.3376C317.928 52.4763 317.422 52.7375 316.991 53.1018C316.56 53.4661 316.216 53.9241 315.984 54.4417L314.927 56.9617C314.342 58.3728 310.722 60.0864 306.841 60.7415L303.768 61.2959C302.881 61.4879 301.963 61.4762 301.081 61.2618C300.2 61.0473 299.376 60.6355 298.672 60.0566C297.968 59.4777 297.401 58.7465 297.013 57.9166C296.625 57.0866 296.425 56.1791 296.428 55.2607C296.353 52.1234 296.353 48.9609 296.428 45.8236C296.551 43.7672 297.335 41.808 298.66 40.245C299.985 38.6821 301.779 37.6013 303.768 37.1677L335.416 31.5231C336.31 31.3329 337.234 31.3499 338.121 31.5727C339.007 31.7954 339.832 32.2183 340.535 32.8096C341.237 33.4009 341.798 34.1454 342.176 34.9874C342.555 35.8293 342.74 36.747 342.718 37.6717Z" fill="#6C63FF"/>
<path opacity="0.5" d="M342.718 47.1087C342.597 49.165 341.815 51.1248 340.492 52.6896C339.17 54.2545 337.378 55.3387 335.391 55.7772L332.318 56.3064C330.973 56.5573 329.605 56.6671 328.238 56.634H327.827C327.603 56.634 327.379 56.634 327.168 56.634C326.787 56.5966 326.409 56.5335 326.036 56.445C325.841 56.4071 325.649 56.3523 325.464 56.2812C325.291 56.2315 325.124 56.164 324.966 56.0796C324.893 56.0543 324.826 56.0159 324.767 55.9662C324.683 55.925 324.603 55.8742 324.53 55.815C324.406 55.7086 324.3 55.5807 324.219 55.437L323.162 53.2447C322.918 52.8076 322.551 52.4541 322.108 52.2297C321.665 52.0052 321.165 51.9199 320.674 51.9847L318.484 52.3753C317.942 52.519 317.438 52.7821 317.008 53.1458C316.578 53.5095 316.233 53.9649 315.996 54.4795C315.996 54.4795 315.536 55.6386 314.951 56.9994C314.367 58.3601 310.734 60.1367 306.853 60.7792L303.78 61.3336C303.157 61.4269 302.524 61.4269 301.902 61.3336C301.552 61.3096 301.205 61.2462 300.869 61.1446L300.396 61.006L300.098 60.88C299.829 60.7753 299.57 60.6445 299.326 60.4894C298.443 59.9383 297.714 59.1672 297.209 58.2496C296.704 57.332 296.439 56.2986 296.44 55.248C296.366 52.0981 296.366 48.9483 296.44 45.7984C296.563 43.7419 297.347 41.7827 298.672 40.2197C299.998 38.6568 301.791 37.576 303.78 37.1425L335.428 31.4853C336.821 31.2201 338.261 31.4329 339.521 32.09C339.631 32.1408 339.736 32.2042 339.832 32.279C340.006 32.3798 340.18 32.5058 340.355 32.6192C340.414 32.659 340.468 32.7055 340.516 32.7578C340.69 32.8964 340.852 33.0476 341.014 33.1988C341.209 33.3981 341.388 33.613 341.549 33.8414C341.672 33.9984 341.781 34.1672 341.872 34.3454C342.027 34.5937 342.16 34.855 342.27 35.1265C342.37 35.3659 342.445 35.6053 342.519 35.8447C342.585 36.0711 342.631 36.303 342.656 36.5377C342.667 36.5917 342.667 36.6475 342.656 36.7015C342.675 36.9657 342.675 37.231 342.656 37.4952C342.789 40.7795 342.809 43.984 342.718 47.1087Z" fill="white"/>
<g opacity="0.7">
<path d="M342.718 37.6717C342.737 37.4075 342.737 37.1422 342.718 36.8779C342.729 36.824 342.729 36.7681 342.718 36.7142C342.693 36.4795 342.647 36.2476 342.581 36.0212C342.507 35.7818 342.432 35.5424 342.332 35.303C342.222 35.0315 342.089 34.7701 341.934 34.5218C341.843 34.3437 341.734 34.1749 341.611 34.0179C341.45 33.7895 341.271 33.5746 341.076 33.3753C340.914 33.2241 340.752 33.0729 340.578 32.9343C340.534 32.8857 340.484 32.8433 340.429 32.8083L321.408 51.9722C321.782 52.024 322.138 52.1653 322.448 52.3844C322.757 52.6035 323.01 52.8941 323.187 53.2322L324.244 55.4245C324.325 55.5681 324.43 55.6961 324.555 55.8025C324.628 55.8617 324.707 55.9124 324.791 55.9537C324.851 56.0034 324.918 56.0418 324.991 56.0671C325.149 56.1515 325.316 56.219 325.488 56.2687C325.674 56.3398 325.865 56.3946 326.06 56.4325C326.433 56.5209 326.811 56.5841 327.192 56.6215C327.404 56.6215 327.628 56.6215 327.852 56.6215H328.262C329.093 56.6398 329.924 56.6019 330.75 56.5081L342.817 44.2991C342.805 42.0942 342.793 39.9018 342.718 37.6717Z" fill="#6C63FF"/>
<path d="M327.715 33.0225L300.06 61.0187L300.359 61.1447L300.832 61.2833C301.168 61.3849 301.514 61.4483 301.864 61.4723C302.487 61.5656 303.12 61.5656 303.743 61.4723L305.746 61.1069L334.669 31.8255L327.715 33.0225Z" fill="#6C63FF"/>
<path d="M308.035 36.5252L296.403 48.3184C296.403 50.6745 296.403 53.0306 296.403 55.3993C296.417 56.4817 296.699 57.5431 297.224 58.4862L321.234 34.1691L308.035 36.5252Z" fill="#6C63FF"/>
</g>
<path d="M289.1 48.8978C289.12 49.0682 289.102 49.2409 289.047 49.403C288.991 49.5651 288.9 49.7123 288.78 49.8336C288.661 49.9549 288.515 50.0471 288.355 50.1032C288.195 50.1594 288.025 50.1781 287.856 50.1578C287.496 50.069 287.176 49.8582 286.95 49.5604C286.724 49.2626 286.605 48.8955 286.612 48.5198C286.592 48.3495 286.611 48.1768 286.666 48.0147C286.722 47.8526 286.813 47.7054 286.932 47.5841C287.052 47.4628 287.198 47.3706 287.358 47.3144C287.518 47.2583 287.688 47.2396 287.856 47.2599C288.216 47.3508 288.534 47.5621 288.76 47.8594C288.986 48.1568 289.106 48.5227 289.1 48.8978Z" fill="#242424"/>
<g opacity="0.5">
<path d="M336.622 32.2035C337.522 32.2027 338.409 32.4186 339.21 32.8335C339.302 32.8799 339.389 32.9347 339.471 32.9973C339.634 33.0935 339.792 33.1986 339.944 33.3122H340.006H340.068L340.504 33.7028C340.682 33.886 340.844 34.0841 340.989 34.295C341.09 34.4194 341.178 34.5546 341.25 34.6982C341.377 34.9128 341.489 35.1359 341.586 35.366C341.66 35.5467 341.722 35.7318 341.773 35.9204V36.0211C341.831 36.2052 341.869 36.3954 341.885 36.5881V36.7771C341.902 37.012 341.902 37.2479 341.885 37.4827C341.972 40.6074 341.972 43.7825 341.885 46.8946C341.809 48.8071 341.122 50.6429 339.926 52.1249C338.729 53.6068 337.09 54.6544 335.254 55.1095L332.181 55.6513C331.039 55.8517 329.882 55.957 328.723 55.9663H328.188H327.802H327.205C326.845 55.9256 326.488 55.8625 326.135 55.7773C325.959 55.7414 325.784 55.6951 325.613 55.6387C325.493 55.5983 325.376 55.5477 325.264 55.4875H325.177L325.053 55.4119C324.996 55.36 324.946 55.3007 324.904 55.2355L323.846 53.0432C323.597 52.507 323.203 52.0532 322.71 51.7343C322.217 51.4154 321.645 51.2445 321.06 51.2414C320.898 51.2289 320.736 51.2289 320.574 51.2414L318.372 51.632C317.717 51.7954 317.107 52.107 316.588 52.5434C316.069 52.9798 315.654 53.5298 315.374 54.1519L314.317 56.6718C313.882 57.7176 310.66 59.3807 306.716 60.0863L303.656 60.6281C303.294 60.6906 302.928 60.7243 302.561 60.7289C302.354 60.7414 302.146 60.7414 301.939 60.7289C301.628 60.7007 301.32 60.6459 301.018 60.5651L300.645 60.4391L300.483 60.3761H300.334C300.098 60.2882 299.873 60.1741 299.662 60.0359C298.872 59.5436 298.221 58.854 297.77 58.0333C297.319 57.2125 297.084 56.2881 297.087 55.3489C297.025 52.2368 297.025 49.0491 297.087 45.937C297.216 44.04 297.948 42.2362 299.172 40.7944C300.396 39.3526 302.047 38.3501 303.88 37.9363L335.54 32.3421C335.897 32.2773 336.26 32.2436 336.622 32.2413M336.622 31.5735C336.206 31.5743 335.79 31.608 335.378 31.6743L303.73 37.3315C301.742 37.7651 299.948 38.8458 298.622 40.4088C297.297 41.9717 296.513 43.931 296.39 45.9874C296.316 49.1499 296.316 52.2872 296.39 55.4371C296.389 56.4877 296.654 57.5211 297.159 58.4386C297.665 59.3562 298.393 60.1274 299.277 60.6785C299.521 60.8336 299.779 60.9644 300.048 61.0691L300.346 61.1951L300.819 61.3337C301.155 61.4353 301.502 61.4987 301.852 61.5227C302.075 61.5359 302.3 61.5359 302.524 61.5227C302.94 61.5275 303.357 61.4937 303.768 61.4219L306.84 60.8675C310.722 60.1871 314.305 58.4736 314.939 57.0876C315.573 55.7017 315.984 54.5677 315.984 54.5677C316.22 54.0531 316.566 53.5978 316.996 53.234C317.426 52.8703 317.93 52.6072 318.472 52.4636L320.662 52.073C320.786 52.0606 320.911 52.0606 321.035 52.073C321.467 52.0778 321.89 52.1966 322.263 52.4175C322.636 52.6384 322.946 52.9539 323.162 53.333L324.219 55.5253C324.3 55.6689 324.406 55.7969 324.53 55.9033C324.603 55.9625 324.683 56.0132 324.767 56.0545C324.826 56.1041 324.893 56.1426 324.966 56.1679C325.124 56.2522 325.291 56.3198 325.463 56.3694C325.649 56.4406 325.841 56.4954 326.036 56.5332C326.409 56.6217 326.787 56.6848 327.168 56.7222C327.379 56.7222 327.603 56.7222 327.827 56.7222H328.748C329.945 56.7151 331.14 56.6013 332.318 56.382L335.391 55.8529C337.39 55.4108 339.19 54.3154 340.514 52.7354C341.838 51.1554 342.613 49.1783 342.718 47.1088C342.793 43.9589 342.793 40.8132 342.718 37.6717C342.737 37.4075 342.737 37.1422 342.718 36.8779C342.73 36.8239 342.73 36.7681 342.718 36.7141C342.693 36.4795 342.647 36.2476 342.581 36.0211C342.507 35.7818 342.432 35.5424 342.333 35.303C342.222 35.0315 342.089 34.7701 341.934 34.5218C341.843 34.3437 341.735 34.1749 341.611 34.0178C341.45 33.7894 341.271 33.5745 341.076 33.3752C340.914 33.224 340.753 33.0729 340.578 32.9343C340.53 32.882 340.476 32.8355 340.417 32.7957C340.243 32.6823 340.068 32.5563 339.894 32.4555C339.798 32.3807 339.694 32.3173 339.583 32.2665C338.692 31.7988 337.701 31.5567 336.697 31.5609L336.622 31.5735Z" fill="black"/>
</g>
<path d="M296.428 55.3992L296.266 48.6081C296.266 47.4741 296.179 46.3653 296.266 45.1936C296.4 44.0349 296.755 42.9137 297.311 41.8925C298.406 39.8237 300.198 38.2227 302.362 37.3818C303.448 37.0457 304.559 36.7971 305.684 36.6385L308.98 36.0337L322.179 33.7532C326.583 33.014 330.995 32.3126 335.416 31.649C331.037 32.5562 326.654 33.4298 322.266 34.2698L309.13 36.6889L305.833 37.2559C304.743 37.3985 303.666 37.626 302.611 37.9362C300.569 38.7305 298.863 40.2179 297.784 42.1445C297.238 43.0991 296.879 44.1515 296.727 45.244C296.602 46.3275 296.664 47.4867 296.627 48.6081L296.428 55.3992Z" fill="white"/>
<g opacity="0.3">
<path d="M520.739 0.944035V164.058C517.977 181.13 509.307 197.9 494.615 213.297C489.315 218.819 483.6 223.916 477.522 228.543C471.583 232.986 465.403 237.087 459.01 240.827C434.652 255.115 405.803 265.17 375.15 271.066C370.274 272.015 365.347 272.855 360.371 273.586V109.792C394.831 104.147 427.3 93.7524 454.495 78.5951C488.245 59.6958 508.834 36.374 516.298 11.9813C517.714 8.37625 518.866 4.67032 519.744 0.893638C519.783 0.788189 519.854 0.697974 519.946 0.636089C520.039 0.574205 520.149 0.543871 520.26 0.549489C520.371 0.555106 520.477 0.596384 520.563 0.667331C520.649 0.738278 520.711 0.835203 520.739 0.944035Z" fill="#6C63FF"/>
</g>
<path d="M359.662 274.367V109.199L360.222 109.111C395.478 103.341 427.947 92.5806 454.121 77.9903C486.603 59.8722 507.864 37.004 515.577 11.8678V11.3008H515.801C517.126 7.85319 518.215 4.3169 519.06 0.717211C519.172 0.479939 519.354 0.284042 519.581 0.156961C519.809 0.0298797 520.069 -0.0220176 520.327 0.00854053C520.585 0.0390987 520.827 0.15058 521.019 0.327368C521.211 0.504155 521.344 0.737394 521.399 0.994403V164.058C518.55 181.786 509.68 198.48 495.05 213.763C489.726 219.312 483.982 224.43 477.87 229.072C471.912 233.539 465.707 237.658 459.284 241.407C435.473 255.354 407.184 265.585 375.225 271.734C370.361 272.679 365.372 273.523 360.421 274.254L359.662 274.367ZM360.993 110.308V272.843C365.671 272.15 370.373 271.343 374.976 270.461C406.786 264.325 434.938 254.17 458.625 240.222C464.993 236.497 471.152 232.417 477.074 228.001C483.122 223.411 488.811 218.356 494.092 212.881C508.535 197.762 517.281 181.382 520.08 163.995V2.16616C519.225 5.57033 518.157 8.91597 516.883 12.1828C509.058 37.6717 487.586 60.8171 454.768 79.1117C428.557 93.7146 396.212 104.5 360.993 110.308Z" fill="#6C63FF"/>
<path d="M397.717 232.915C397.364 232.915 397.025 232.773 396.776 232.52C396.526 232.267 396.386 231.924 396.386 231.566V135.23C396.396 134.942 396.497 134.664 396.674 134.438C396.851 134.211 397.094 134.048 397.368 133.97C405.243 131.828 412.508 129.548 419.574 126.977C419.779 126.897 420 126.87 420.217 126.898C420.435 126.927 420.641 127.01 420.819 127.141C420.995 127.265 421.14 127.431 421.239 127.624C421.339 127.817 421.391 128.032 421.391 128.25V224.586C421.387 224.862 421.301 225.131 421.143 225.356C420.985 225.581 420.764 225.752 420.507 225.846C413.354 228.442 406.027 230.747 398.115 232.902C397.983 232.922 397.85 232.927 397.717 232.915ZM399.048 136.263V229.802C405.94 227.9 412.396 225.859 418.691 223.591V130.115C412.384 132.345 405.965 134.399 399.048 136.263Z" fill="white"/>
<path d="M440.511 217.43C440.255 217.435 440.003 217.361 439.79 217.215C439.602 217.094 439.447 216.926 439.341 216.728C439.234 216.53 439.179 216.307 439.18 216.082V119.745C439.177 119.481 439.25 119.222 439.389 118.998C439.528 118.775 439.728 118.597 439.964 118.485C446.232 115.64 452.348 112.465 458.289 108.973C459.645 108.242 460.901 107.461 462.108 106.692C462.308 106.562 462.541 106.493 462.78 106.493C463.018 106.493 463.251 106.562 463.451 106.692C463.661 106.806 463.836 106.975 463.959 107.181C464.082 107.387 464.147 107.623 464.148 107.864V204.2C464.149 204.43 464.091 204.657 463.98 204.858C463.868 205.059 463.708 205.227 463.514 205.347C462.269 206.14 460.963 206.972 459.57 207.715C453.55 211.244 447.35 214.449 440.997 217.316C440.843 217.385 440.679 217.423 440.511 217.43ZM441.842 120.627V214.003C447.043 211.571 452.442 208.736 458.289 205.334C459.408 204.742 460.453 204.074 461.486 203.444V110.207C460.864 110.585 460.242 110.951 459.57 111.304C453.288 115.02 447.465 118.019 441.842 120.627Z" fill="white"/>
<path d="M483.219 190.933C483.026 190.936 482.834 190.892 482.659 190.807C482.423 190.696 482.225 190.518 482.088 190.294C481.95 190.07 481.881 189.81 481.888 189.547V93.2485C481.889 93.0508 481.933 92.8557 482.017 92.6772C482.101 92.4986 482.223 92.341 482.373 92.2153C486.287 88.9391 490.025 85.4524 493.57 81.7703C497.545 77.6964 501.182 73.2968 504.442 68.6163C504.604 68.3799 504.836 68.2019 505.104 68.1084C505.373 68.0149 505.664 68.0107 505.935 68.0966C506.206 68.1824 506.442 68.3537 506.61 68.5855C506.778 68.8173 506.869 69.0974 506.868 69.3849V165.721C506.867 165.999 506.784 166.271 506.632 166.502C503.299 171.297 499.588 175.809 495.535 179.996C491.908 183.743 488.088 187.293 484.09 190.631C483.844 190.831 483.536 190.938 483.219 190.933ZM484.55 93.9163V186.687C487.785 183.877 490.833 181.004 493.619 178.107C497.474 174.126 501.01 169.841 504.194 165.293V73.5176C501.499 77.0559 498.59 80.4222 495.485 83.5972C492.017 87.2166 488.363 90.6484 484.538 93.8784L484.55 93.9163Z" fill="white"/>
<g opacity="0.3">
<path d="M376.444 249.622L430.547 148.397L473.814 205.334C473.814 205.334 455.577 231.768 376.444 249.622Z" fill="#6C63FF"/>
</g>
<g opacity="0.3">
<path d="M275.951 255.707C226.551 253.036 178.506 241.155 140.625 220.076C98.0546 196.326 76.396 165.331 75.6744 134.222V131.123L75.2515 26.2692C75.2515 18.7851 88.264 40.0027 115.521 61.7622C116.168 62.2914 116.765 62.7827 117.474 63.2993C118.992 64.4837 120.547 65.6428 122.164 66.802C128.122 71.0762 134.319 74.997 140.725 78.5448C178.506 99.5735 226.327 111.442 275.541 114.151L275.951 255.707Z" fill="#6C63FF"/>
</g>
<path d="M76.6695 26.4204C79.4227 28.8095 82.0121 31.3858 84.4198 34.1313C93.8232 44.4379 103.969 54.0231 114.774 62.8079C115.247 63.1985 115.732 63.5765 116.23 63.9544L116.74 64.3702C118.195 65.5042 119.738 66.6634 121.479 67.9107C127.474 72.2011 133.704 76.1427 140.14 79.7165C176.217 99.8758 223.739 112.475 274.234 115.424L274.632 254.283C224.373 251.373 177.075 238.824 141.297 218.879C100.567 196.136 77.7393 166.087 77.0053 134.197V131.098L76.6197 26.4204M76.0474 24.7824C75.5374 24.7824 75.2886 25.2738 75.2886 26.3196L75.6742 131.148V134.247C76.3958 165.356 98.0668 196.351 140.625 220.101C178.456 241.205 226.55 253.087 275.951 255.758L275.54 114.151C226.339 111.442 178.506 99.5734 140.774 78.5447C134.369 74.9969 128.171 71.0761 122.213 66.802C120.596 65.6428 119.041 64.4836 117.523 63.2993C116.864 62.7827 116.279 62.2913 115.57 61.7621C92.1203 43.0518 79.1948 24.7824 76.0474 24.7824Z" fill="#6C63FF"/>
<path d="M228.18 235.598H228.006C227.595 235.598 187.575 229.727 148.637 209.706C104.026 186.775 86.5099 151.232 86.3357 150.866C86.243 150.683 86.196 150.48 86.1988 150.274V123.059C86.1961 122.782 86.2836 122.512 86.4477 122.29L115.695 80.4095C115.837 80.2153 116.026 80.062 116.244 79.9648C116.462 79.8675 116.702 79.8297 116.939 79.8551C117.174 79.8789 117.399 79.9663 117.589 80.1082C117.779 80.25 117.929 80.4411 118.021 80.6614L154.31 166.338L151.137 150.539C151.088 150.281 151.113 150.014 151.21 149.77C151.307 149.526 151.472 149.316 151.685 149.165L180.994 128.313C181.142 128.201 181.312 128.124 181.493 128.087C181.673 128.05 181.86 128.054 182.039 128.099C182.219 128.138 182.389 128.214 182.539 128.322C182.689 128.431 182.815 128.569 182.91 128.729L229.387 207.804C229.509 208.014 229.574 208.253 229.574 208.497V234.25C229.577 234.428 229.545 234.605 229.479 234.77C229.413 234.935 229.315 235.085 229.191 235.211C229.067 235.337 228.919 235.436 228.756 235.503C228.593 235.569 228.418 235.602 228.242 235.598H228.18ZM88.8486 149.921C90.5405 153.21 108.094 185.817 149.806 207.274C184.079 224.914 219.186 231.39 226.812 232.65V208.862L181.255 131.349L153.887 150.866L159.398 178.585C159.43 178.894 159.355 179.205 159.187 179.465C159.018 179.725 158.766 179.918 158.474 180.011C158.181 180.105 157.865 180.093 157.58 179.977C157.295 179.862 157.058 179.651 156.91 179.379L116.503 84.0003L88.8611 123.513L88.8486 149.921Z" fill="white"/>
<path d="M227.67 155.818C226.835 155.813 226.002 155.729 225.182 155.566C217.158 153.978 210.639 145.083 210.639 135.747C210.557 133.491 210.968 131.245 211.844 129.169C212.719 127.093 214.037 125.239 215.702 123.739C217.067 122.588 218.671 121.764 220.394 121.327C222.117 120.891 223.915 120.854 225.655 121.219C233.666 122.807 240.185 131.702 240.185 141.039C240.269 143.295 239.859 145.541 238.983 147.617C238.108 149.694 236.789 151.548 235.122 153.046C233.036 154.827 230.398 155.809 227.67 155.818ZM223.179 123.739C221.066 123.721 219.013 124.457 217.382 125.818C216.022 127.068 214.951 128.605 214.244 130.321C213.536 132.037 213.21 133.889 213.289 135.747C213.289 143.861 218.85 151.559 225.729 152.92C227.082 153.216 228.484 153.2 229.83 152.873C231.176 152.546 232.432 151.916 233.505 151.03C234.864 149.78 235.935 148.243 236.643 146.527C237.35 144.812 237.676 142.959 237.597 141.102C237.597 132.987 232.049 125.289 225.157 123.928C224.505 123.801 223.843 123.733 223.179 123.727V123.739Z" fill="white"/>
<g opacity="0.3">
<path d="M84.9795 58.3098C84.9795 58.3098 97.1088 79.8928 122.188 89.2795V77.0831C98.1414 65.5671 84.9795 44.0093 84.9795 44.0093V58.3098Z" fill="#6C63FF"/>
</g>
<g opacity="0.3">
<path d="M84.9795 80.4095C84.9795 80.4095 97.1088 101.993 122.188 111.379V99.1829C98.1414 87.6669 84.9795 66.109 84.9795 66.109V80.4095Z" fill="#6C63FF"/>
</g>
<g opacity="0.3">
<path d="M84.9795 102.509C84.9795 102.509 97.1088 124.092 122.188 133.479V121.282C98.1414 109.766 84.9795 88.2086 84.9795 88.2086V102.509Z" fill="#6C63FF"/>
</g>
</svg>
