<svg width="568" height="568" viewBox="0 0 568 568" fill="none" xmlns="http://www.w3.org/2000/svg">
<path d="M65.5359 238.81C65.5359 238.81 39.4079 305.618 77.7934 358.09C116.179 410.562 181.328 409.13 231.858 425.636C258.326 434.281 274.73 457.853 297.598 472.212C370.745 518.084 480.608 453.821 505.759 379.606C527.524 315.354 512.393 255.236 460.387 192.404C408.381 129.572 374.301 83.0984 280.899 73.272C187.497 63.4456 102.854 154.042 65.5359 238.81Z" fill="#6C63FF"/>
<path opacity="0.8" d="M65.5359 238.81C65.5359 238.81 39.4079 305.618 77.7934 358.09C116.179 410.562 181.328 409.13 231.858 425.636C258.326 434.281 274.73 457.853 297.598 472.212C370.745 518.084 480.608 453.821 505.759 379.606C527.524 315.354 512.393 255.236 460.387 192.404C408.381 129.572 374.301 83.0984 280.899 73.272C187.497 63.4456 102.854 154.042 65.5359 238.81Z" fill="white"/>
<path d="M452.298 450.799C452.298 450.799 445.414 444.517 428.192 451.14C420.638 454.048 414.049 460.83 413.629 469.259C413.231 477.143 420.059 480.13 426.966 479.483C436.054 478.597 440.37 471.633 447.663 467.385C455.615 462.727 456.933 455.434 452.298 450.799Z" fill="#808080" stroke="#263238" stroke-linecap="round" stroke-linejoin="round"/>
<path d="M440.768 462.466C434.372 466.169 431.055 475.745 430.112 478.881C437.156 476.904 441.291 471.088 447.686 467.362C452.23 464.715 454.593 461.193 454.934 457.808C449.96 458.453 445.154 460.034 440.768 462.466Z" fill="#263238" stroke="#263238" stroke-linecap="round" stroke-linejoin="round"/>
<path d="M367.86 376.879L374.937 403.484C375.08 404.077 375.022 404.701 374.771 405.256C374.52 405.812 374.091 406.268 373.551 406.552L348.798 416.776L349.263 418.764L391.42 428.829L411.459 413.549C411.959 413.174 412.316 412.641 412.473 412.036C412.629 411.432 412.577 410.792 412.323 410.221L398.327 378.856L367.86 376.879Z" fill="#808080" stroke="#263238" stroke-linecap="round" stroke-linejoin="round"/>
<path d="M365.36 374.392L372.438 401.008C372.581 401.601 372.524 402.225 372.275 402.782C372.026 403.338 371.6 403.797 371.063 404.087L348.752 416.787L391.147 426.727L409.914 412.8C410.416 412.429 410.775 411.897 410.932 411.294C411.089 410.69 411.035 410.051 410.778 409.483L395.794 376.38L365.36 374.392Z" fill="#ABABAB" stroke="#263238" stroke-linecap="round" stroke-linejoin="round"/>
<path d="M403.428 410.289L406.2 410.948" stroke="#263238" stroke-linecap="round" stroke-linejoin="round"/>
<path d="M374.937 403.484L399.213 409.278" stroke="#263238" stroke-linecap="round" stroke-linejoin="round"/>
<path d="M395.839 376.38L365.36 374.392L368.462 386.876L404.496 395.498L395.839 376.38Z" fill="#263238" stroke="#263238" stroke-linecap="round" stroke-linejoin="round"/>
<path d="M189.269 427.647L165.049 423.194C164.242 423.042 163.5 422.649 162.92 422.068C162.34 421.486 161.95 420.742 161.802 419.934C161.653 419.126 161.752 418.292 162.087 417.542C162.421 416.791 162.975 416.16 163.675 415.731L227.552 377.016C230.516 375.221 234.069 374.674 237.435 375.493L345.037 401.621C346.005 401.858 347.015 401.867 347.987 401.646C348.959 401.426 349.867 400.982 350.638 400.351C351.409 399.72 352.023 398.918 352.431 398.009C352.839 397.1 353.03 396.108 352.989 395.112L352.16 374.221" stroke="#263238" stroke-linecap="round" stroke-linejoin="round"/>
<path d="M199.186 429.476L189.269 427.647" stroke="#263238" stroke-width="2" stroke-linecap="round" stroke-linejoin="round"/>
<path d="M327.85 251.715L464.556 273.935C466.634 274.282 468.495 275.425 469.745 277.122C470.994 278.819 471.533 280.935 471.247 283.023L453.184 394.272C453.036 395.24 452.685 396.165 452.154 396.989C451.624 397.812 450.926 398.515 450.106 399.05C449.287 399.586 448.363 399.943 447.396 400.099C446.429 400.254 445.44 400.204 444.494 399.952L309.571 367.689C307.616 367.22 305.905 366.04 304.771 364.38C303.637 362.719 303.162 360.695 303.437 358.703L319.716 257.486C319.857 256.566 320.181 255.684 320.67 254.893C321.159 254.101 321.801 253.416 322.56 252.877C323.319 252.339 324.178 251.959 325.087 251.759C325.996 251.559 326.935 251.544 327.85 251.715Z" fill="#808080" stroke="#263238" stroke-linecap="round" stroke-linejoin="round"/>
<path d="M328.872 259.712L462.227 281.399L444.176 392.59L312.571 361.123L328.872 259.712Z" fill="#263238" stroke="#263238" stroke-linecap="round" stroke-linejoin="round"/>
<path d="M306.55 535.726L127.062 492.615C122.234 491.479 120.973 488.525 124.244 486.06L199.22 429.476C202.492 427.011 209.047 425.955 213.875 427.113L393.363 470.213C398.191 471.349 399.452 474.314 396.191 476.779L321.215 533.352C317.944 535.817 311.378 536.885 306.55 535.726Z" fill="#808080" stroke="#263238" stroke-linecap="round" stroke-linejoin="round"/>
<path d="M128.005 483.186L307.981 526.4L375.369 475.552L195.392 432.339L128.005 483.186Z" fill="#808080" stroke="#263238" stroke-linecap="round" stroke-linejoin="round"/>
<path d="M164.55 491.968L307.981 526.4L375.369 475.552L231.937 441.12L164.55 491.968Z" fill="#263238" stroke="#263238" stroke-linecap="round" stroke-linejoin="round"/>
<path d="M189.928 464.544C193.597 461.773 192.2 458.467 186.758 457.172C181.317 455.877 173.956 457.058 170.286 459.83C166.617 462.602 168.014 465.896 173.456 467.203C178.897 468.509 186.304 467.316 189.928 464.544Z" fill="#808080" stroke="#263238" stroke-linecap="round" stroke-linejoin="round"/>
<path d="M185.407 463.488C187.383 462 186.622 460.216 183.691 459.512C180.76 458.808 176.784 459.455 174.808 460.943C172.831 462.432 173.592 464.226 176.523 464.931C179.454 465.635 183.419 464.953 185.407 463.488Z" fill="#263238" stroke="#263238" stroke-linecap="round" stroke-linejoin="round"/>
<path d="M210.728 443.438L201.561 441.234L205.559 438.223L214.727 440.427L210.728 443.438Z" fill="#808080" stroke="#263238" stroke-linecap="round" stroke-linejoin="round"/>
<path d="M204.753 447.948L195.574 445.755L199.572 442.745L208.74 444.948L204.753 447.948Z" fill="#808080" stroke="#263238" stroke-linecap="round" stroke-linejoin="round"/>
<path d="M198.766 452.469L189.598 450.265L193.586 447.255L202.753 449.458L198.766 452.469Z" fill="#808080" stroke="#263238" stroke-linecap="round" stroke-linejoin="round"/>
<path d="M192.779 456.99L183.612 454.786L187.599 451.776L196.767 453.98L192.779 456.99Z" fill="#808080" stroke="#263238" stroke-linecap="round" stroke-linejoin="round"/>
<path d="M171.672 472.905L162.505 470.713L166.492 467.703L175.66 469.895L171.672 472.905Z" fill="#808080" stroke="#263238" stroke-linecap="round" stroke-linejoin="round"/>
<path d="M165.686 477.427L156.518 475.223L160.517 472.212L169.684 474.416L165.686 477.427Z" fill="#808080" stroke="#263238" stroke-linecap="round" stroke-linejoin="round"/>
<path d="M159.71 481.948L150.531 479.744L154.53 476.734L163.698 478.938L159.71 481.948Z" fill="#808080" stroke="#263238" stroke-linecap="round" stroke-linejoin="round"/>
<path d="M153.724 486.458L144.556 484.254L148.544 481.244L157.711 483.448L153.724 486.458Z" fill="#808080" stroke="#263238" stroke-linecap="round" stroke-linejoin="round"/>
<path d="M413.958 57.777C403.77 54.491 392.815 54.428 382.589 57.5966C372.363 60.7651 363.364 67.011 356.818 75.4822C350.273 83.9535 346.499 94.2377 346.013 104.932C345.527 115.627 348.352 126.211 354.102 135.241C355.564 137.578 356.314 140.289 356.261 143.045L356.17 150.861L404.848 167.299L409.607 160.903C411.201 158.754 413.383 157.113 415.89 156.177C426.066 152.451 434.826 145.642 440.946 136.698C447.066 127.754 450.241 117.123 450.028 106.288C449.816 95.4531 446.226 84.9547 439.759 76.2581C433.293 67.5615 424.273 61.1006 413.958 57.777Z" fill="white"/>
<mask id="mask0_2016_1322" style="mask-type:luminance" maskUnits="userSpaceOnUse" x="345" y="55" width="106" height="113">
<path d="M413.958 57.777C403.77 54.491 392.815 54.428 382.589 57.5966C372.363 60.7651 363.364 67.011 356.818 75.4822C350.273 83.9535 346.499 94.2377 346.013 104.932C345.527 115.627 348.352 126.211 354.102 135.241C355.564 137.578 356.314 140.289 356.261 143.045L356.17 150.861L404.848 167.299L409.607 160.903C411.201 158.754 413.383 157.113 415.89 156.177C426.066 152.451 434.826 145.642 440.946 136.698C447.066 127.754 450.241 117.123 450.028 106.288C449.816 95.4531 446.226 84.9547 439.759 76.2581C433.293 67.5615 424.273 61.1006 413.958 57.777Z" fill="white"/>
</mask>
<g mask="url(#mask0_2016_1322)">
<path d="M369.881 150.963C369.495 152.213 369.257 152.906 369.257 152.906" stroke="#263238" stroke-linecap="round" stroke-linejoin="round"/>
<path d="M373.744 135.479C372.846 140.16 371.767 144.363 370.881 147.464" stroke="#263238" stroke-linecap="round" stroke-linejoin="round"/>
<path d="M377.856 108.965L374.391 107.829C376.141 114.463 375.777 122.677 374.675 130.276" stroke="#263238" stroke-linecap="round" stroke-linejoin="round"/>
<path d="M385.218 109.874L384.343 111.158L379.026 109.363" stroke="#263238" stroke-linecap="round" stroke-linejoin="round"/>
<path d="M387.66 115.19L386.683 116.588L386.717 107.704L385.797 109.033" stroke="#263238" stroke-linecap="round" stroke-linejoin="round"/>
<path d="M393.794 115.168L391.579 118.246L391.727 109.397L388.773 113.611" stroke="#263238" stroke-linecap="round" stroke-linejoin="round"/>
<path d="M401.576 116.781L401.735 112.782L396.475 119.905L396.725 111.089L395.226 113.18" stroke="#263238" stroke-linecap="round" stroke-linejoin="round"/>
<path d="M408.108 119.189L406.54 118.655L406.745 114.475L401.371 121.552L401.508 118.405" stroke="#263238" stroke-linecap="round" stroke-linejoin="round"/>
<path d="M404.643 136.252C408.051 130.742 411.993 125.505 416.48 122.018L409.755 119.746" stroke="#263238" stroke-linecap="round" stroke-linejoin="round"/>
<path d="M400.531 143.693C401.451 141.864 402.462 139.989 403.53 138.126" stroke="#263238" stroke-linecap="round" stroke-linejoin="round"/>
<path d="M396.362 152.747C397.179 150.793 398.145 148.6 399.258 146.283" stroke="#263238" stroke-linecap="round" stroke-linejoin="round"/>
<path d="M394.669 156.961C394.862 156.45 395.089 155.893 395.316 155.291" stroke="#263238" stroke-linecap="round" stroke-linejoin="round"/>
<path d="M393.204 161.005C393.204 161.005 393.51 160.062 394.101 158.472" stroke="#263238" stroke-linecap="round" stroke-linejoin="round"/>
<path opacity="0.2" d="M413.958 57.777C403.77 54.491 392.815 54.428 382.589 57.5966C372.363 60.7651 363.364 67.011 356.818 75.4822C350.273 83.9535 346.499 94.2377 346.013 104.932C345.527 115.627 348.352 126.211 354.102 135.241C355.564 137.578 356.314 140.289 356.261 143.045L356.17 150.861L404.848 167.299L409.607 160.903C411.201 158.754 413.383 157.113 415.89 156.177C426.066 152.451 434.826 145.642 440.946 136.698C447.066 127.754 450.241 117.123 450.028 106.288C449.816 95.4531 446.226 84.9547 439.759 76.2581C433.293 67.5615 424.273 61.1006 413.958 57.777ZM387.376 138.706C379.91 136.185 373.358 131.508 368.551 125.264C363.743 119.02 360.895 111.491 360.367 103.629C359.839 95.7662 361.655 87.9237 365.584 81.0931C369.513 74.2625 375.38 68.7506 382.442 65.2545C389.504 61.7584 397.444 60.4352 405.259 61.4521C413.073 62.4691 420.41 65.7806 426.342 70.9678C432.274 76.155 436.535 82.9849 438.585 90.5936C440.635 98.2024 440.383 106.248 437.86 113.714C434.478 123.721 427.26 131.976 417.793 136.662C408.325 141.349 397.385 142.084 387.376 138.706Z" fill="#6C63FF"/>
</g>
<path d="M413.958 57.777C403.77 54.491 392.815 54.428 382.589 57.5966C372.363 60.7651 363.364 67.011 356.818 75.4822C350.273 83.9535 346.499 94.2377 346.013 104.932C345.527 115.627 348.352 126.211 354.102 135.241C355.564 137.578 356.314 140.289 356.261 143.045L356.17 150.861L404.848 167.299L409.607 160.903C411.201 158.754 413.383 157.113 415.89 156.177C426.066 152.451 434.826 145.642 440.946 136.698C447.066 127.754 450.241 117.123 450.028 106.288C449.816 95.4531 446.226 84.9547 439.759 76.2581C433.293 67.5615 424.273 61.1006 413.958 57.777Z" stroke="#263238" stroke-linecap="round" stroke-linejoin="round"/>
<path d="M370.2 208.399L358.84 204.548C358.556 204.453 358.303 204.285 358.104 204.062C357.904 203.839 357.767 203.568 357.704 203.276L356.999 199.675L351.706 193.631L382.525 204.048L374.653 205.639L371.904 208.07C371.675 208.271 371.396 208.408 371.096 208.466C370.797 208.524 370.487 208.501 370.2 208.399Z" fill="#263238" stroke="#263238" stroke-linecap="round" stroke-linejoin="round"/>
<path d="M386.24 202.81L349.354 190.314C349.551 191.893 350.188 193.384 351.192 194.617C352.197 195.851 353.528 196.777 355.034 197.289L377.459 204.866C378.968 205.375 380.589 205.448 382.138 205.079C383.687 204.709 385.1 203.911 386.217 202.776L386.24 202.81Z" fill="#757575" stroke="#263238" stroke-linecap="round" stroke-linejoin="round"/>
<path d="M386.285 202.81L349.399 190.348L355.568 157.597L401.246 173.024L386.285 202.81Z" fill="#999999"/>
<mask id="mask1_2016_1322" style="mask-type:luminance" maskUnits="userSpaceOnUse" x="349" y="157" width="53" height="46">
<path d="M386.285 202.81L349.399 190.348L355.568 157.597L401.246 173.024L386.285 202.81Z" fill="white"/>
</mask>
<g mask="url(#mask1_2016_1322)">
<path opacity="0.4" d="M354.773 180.692L353.955 184.418L387.399 192.893L389.069 189.326L354.773 180.692Z" fill="white"/>
<path opacity="0.4" d="M363.929 194.052L367.178 195.188L367.916 195.437L380.946 199.834C381.494 200.018 382.081 200.054 382.648 199.938C383.214 199.822 383.74 199.559 384.172 199.175L363.929 194.052Z" fill="white"/>
<path opacity="0.4" d="M353.614 185.997L353.296 187.44C353.112 188.279 353.268 189.157 353.728 189.882L385.081 197.834L386.706 194.426L353.614 185.997Z" fill="white"/>
<path opacity="0.4" d="M392.022 183.01L392.522 181.93L374.528 175.841L373.789 175.592L357.102 169.957L356.238 173.933L392.022 183.01Z" fill="white"/>
<path opacity="0.4" d="M355.897 175.512L355.114 179.113L389.727 187.894L391.352 184.441L355.897 175.512Z" fill="white"/>
</g>
<path d="M386.285 202.81L349.399 190.348L355.568 157.597L401.246 173.024L386.285 202.81Z" stroke="#263238" stroke-linecap="round" stroke-linejoin="round"/>
<path d="M352.16 173.694C351.807 173.589 351.511 173.348 351.337 173.024C351.162 172.7 351.123 172.32 351.228 171.968C351.334 171.615 351.575 171.319 351.899 171.144C352.223 170.97 352.603 170.931 352.955 171.036L396.123 182.146C396.477 182.242 396.78 182.473 396.967 182.789C397.154 183.106 397.21 183.482 397.123 183.839C397.078 184.016 396.998 184.182 396.889 184.329C396.779 184.475 396.642 184.598 396.484 184.691C396.327 184.784 396.153 184.845 395.972 184.87C395.791 184.895 395.607 184.885 395.43 184.839L352.262 173.728L352.16 173.694Z" fill="#BFBFBF"/>
<mask id="mask2_2016_1322" style="mask-type:luminance" maskUnits="userSpaceOnUse" x="351" y="170" width="47" height="15">
<path d="M352.16 173.694C351.807 173.589 351.511 173.348 351.337 173.024C351.162 172.7 351.123 172.32 351.228 171.968C351.334 171.615 351.575 171.319 351.899 171.144C352.223 170.97 352.603 170.931 352.955 171.036L396.123 182.146C396.477 182.242 396.78 182.473 396.967 182.789C397.154 183.106 397.21 183.482 397.123 183.839C397.078 184.016 396.998 184.182 396.889 184.329C396.779 184.475 396.642 184.598 396.484 184.691C396.327 184.784 396.153 184.845 395.972 184.87C395.791 184.895 395.607 184.885 395.43 184.839L352.262 173.728L352.16 173.694Z" fill="white"/>
</mask>
<g mask="url(#mask2_2016_1322)">
<g opacity="0.4">
<path d="M397.1 183.282C396.932 183.45 396.722 183.569 396.493 183.629C396.263 183.689 396.022 183.687 395.794 183.623L352.626 172.513H352.535C352.289 172.43 352.071 172.279 351.906 172.079C351.741 171.878 351.636 171.635 351.603 171.377C351.775 171.214 351.984 171.098 352.213 171.038C352.441 170.979 352.681 170.978 352.91 171.036L396.078 182.158C396.338 182.228 396.572 182.371 396.754 182.57C396.935 182.77 397.055 183.017 397.1 183.282Z" fill="white"/>
</g>
</g>
<path d="M352.16 173.694C351.807 173.589 351.511 173.348 351.337 173.024C351.162 172.7 351.123 172.32 351.228 171.968C351.334 171.615 351.575 171.319 351.899 171.144C352.223 170.97 352.603 170.931 352.955 171.036L396.123 182.146C396.477 182.242 396.78 182.473 396.967 182.789C397.154 183.106 397.21 183.482 397.123 183.839C397.078 184.016 396.998 184.182 396.889 184.329C396.779 184.475 396.642 184.598 396.484 184.691C396.327 184.784 396.153 184.845 395.972 184.87C395.791 184.895 395.607 184.885 395.43 184.839L352.262 173.728L352.16 173.694Z" stroke="#263238" stroke-linecap="round" stroke-linejoin="round"/>
<path d="M351.115 179.022C350.779 178.912 350.498 178.678 350.329 178.368C350.16 178.057 350.116 177.694 350.206 177.352C350.302 176.998 350.533 176.695 350.849 176.508C351.165 176.322 351.542 176.266 351.899 176.353L393.601 187.088C393.957 187.181 394.262 187.412 394.449 187.729C394.636 188.046 394.691 188.424 394.601 188.78C394.556 188.958 394.476 189.124 394.367 189.27C394.257 189.416 394.12 189.539 393.963 189.632C393.805 189.725 393.631 189.786 393.45 189.812C393.269 189.837 393.085 189.826 392.908 189.78L351.206 179.045L351.115 179.022Z" fill="#BFBFBF"/>
<mask id="mask3_2016_1322" style="mask-type:luminance" maskUnits="userSpaceOnUse" x="350" y="176" width="45" height="14">
<path d="M351.115 179.022C350.779 178.912 350.498 178.678 350.329 178.368C350.16 178.057 350.116 177.694 350.206 177.352C350.302 176.998 350.533 176.695 350.849 176.508C351.165 176.322 351.542 176.266 351.899 176.353L393.601 187.088C393.957 187.181 394.262 187.412 394.449 187.729C394.636 188.046 394.691 188.424 394.601 188.78C394.556 188.958 394.476 189.124 394.367 189.27C394.257 189.416 394.12 189.539 393.963 189.632C393.805 189.725 393.631 189.786 393.45 189.812C393.269 189.837 393.085 189.826 392.908 189.78L351.206 179.045L351.115 179.022Z" fill="white"/>
</mask>
<g mask="url(#mask3_2016_1322)">
<g opacity="0.4">
<path d="M394.624 188.224C394.454 188.389 394.245 188.508 394.016 188.567C393.787 188.627 393.546 188.626 393.317 188.565L351.626 177.829H351.524C351.278 177.746 351.06 177.596 350.895 177.395C350.73 177.194 350.625 176.951 350.592 176.693C350.76 176.526 350.97 176.406 351.199 176.347C351.429 176.287 351.67 176.289 351.899 176.353L393.601 187.076C393.866 187.146 394.104 187.291 394.286 187.495C394.468 187.7 394.585 187.953 394.624 188.224Z" fill="white"/>
</g>
</g>
<path d="M351.115 179.022C350.779 178.912 350.498 178.678 350.329 178.368C350.16 178.057 350.116 177.694 350.206 177.352C350.302 176.998 350.533 176.695 350.849 176.508C351.165 176.322 351.542 176.266 351.899 176.353L393.601 187.088C393.957 187.181 394.262 187.412 394.449 187.729C394.636 188.046 394.691 188.424 394.601 188.78C394.556 188.958 394.476 189.124 394.367 189.27C394.257 189.416 394.12 189.539 393.963 189.632C393.805 189.725 393.631 189.786 393.45 189.812C393.269 189.837 393.085 189.826 392.908 189.78L351.206 179.045L351.115 179.022Z" stroke="#263238" stroke-linecap="round" stroke-linejoin="round"/>
<path d="M350.115 184.35C349.788 184.223 349.52 183.978 349.366 183.662C349.211 183.347 349.181 182.985 349.281 182.648C349.382 182.312 349.605 182.025 349.907 181.846C350.209 181.667 350.567 181.608 350.91 181.68L391.125 192.041C391.302 192.086 391.468 192.166 391.614 192.276C391.759 192.386 391.882 192.523 391.975 192.68C392.068 192.837 392.129 193.011 392.155 193.192C392.18 193.373 392.17 193.557 392.124 193.733C392.079 193.91 391.999 194.076 391.889 194.222C391.78 194.368 391.642 194.491 391.485 194.584C391.328 194.677 391.154 194.738 390.973 194.763C390.793 194.789 390.609 194.779 390.432 194.733L350.217 184.373L350.115 184.35Z" fill="#BFBFBF"/>
<mask id="mask4_2016_1322" style="mask-type:luminance" maskUnits="userSpaceOnUse" x="349" y="181" width="44" height="14">
<path d="M350.115 184.35C349.788 184.223 349.52 183.978 349.366 183.662C349.211 183.347 349.181 182.985 349.281 182.648C349.382 182.312 349.605 182.025 349.907 181.846C350.209 181.667 350.567 181.608 350.91 181.68L391.125 192.041C391.302 192.086 391.468 192.166 391.614 192.276C391.759 192.386 391.882 192.523 391.975 192.68C392.068 192.837 392.129 193.011 392.155 193.192C392.18 193.373 392.17 193.557 392.124 193.733C392.079 193.91 391.999 194.076 391.889 194.222C391.78 194.368 391.642 194.491 391.485 194.584C391.328 194.677 391.154 194.738 390.973 194.763C390.793 194.789 390.609 194.779 390.432 194.733L350.217 184.373L350.115 184.35Z" fill="white"/>
</mask>
<g mask="url(#mask4_2016_1322)">
<g opacity="0.4">
<path d="M392.147 193.177C391.976 193.34 391.767 193.457 391.538 193.517C391.31 193.577 391.069 193.577 390.841 193.518L350.626 183.157H350.524C350.387 183.182 350.246 183.171 350.114 183.126C349.982 183.081 349.863 183.004 349.769 182.902C349.675 182.799 349.608 182.674 349.575 182.539C349.541 182.404 349.543 182.262 349.578 182.128C349.614 181.993 349.683 181.87 349.779 181.769C349.875 181.668 349.995 181.593 350.128 181.551C350.261 181.508 350.402 181.5 350.539 181.527C350.675 181.553 350.803 181.614 350.91 181.703L391.125 192.064C391.385 192.13 391.62 192.271 391.801 192.469C391.982 192.666 392.103 192.912 392.147 193.177Z" fill="white"/>
</g>
</g>
<path d="M350.115 184.35C349.788 184.223 349.52 183.978 349.366 183.662C349.211 183.347 349.181 182.985 349.281 182.648C349.382 182.312 349.605 182.025 349.907 181.846C350.209 181.667 350.567 181.608 350.91 181.68L391.125 192.041C391.302 192.086 391.468 192.166 391.614 192.276C391.759 192.386 391.882 192.523 391.975 192.68C392.068 192.837 392.129 193.011 392.155 193.192C392.18 193.373 392.17 193.557 392.124 193.733C392.079 193.91 391.999 194.076 391.889 194.222C391.78 194.368 391.642 194.491 391.485 194.584C391.328 194.677 391.154 194.738 390.973 194.763C390.793 194.789 390.609 194.779 390.432 194.733L350.217 184.373L350.115 184.35Z" stroke="#263238" stroke-linecap="round" stroke-linejoin="round"/>
<path d="M349.115 189.712C348.763 189.607 348.467 189.365 348.292 189.042C348.117 188.718 348.078 188.338 348.184 187.985C348.289 187.633 348.531 187.337 348.854 187.162C349.178 186.987 349.558 186.948 349.911 187.054L388.648 197.028C388.825 197.073 388.991 197.153 389.137 197.263C389.283 197.373 389.406 197.51 389.499 197.667C389.591 197.824 389.652 197.998 389.678 198.179C389.704 198.36 389.693 198.544 389.648 198.72C389.602 198.897 389.523 199.063 389.413 199.209C389.303 199.355 389.166 199.478 389.009 199.571C388.851 199.664 388.678 199.725 388.497 199.75C388.316 199.776 388.132 199.766 387.955 199.72L349.218 189.712H349.115Z" fill="#BFBFBF"/>
<mask id="mask5_2016_1322" style="mask-type:luminance" maskUnits="userSpaceOnUse" x="348" y="186" width="42" height="14">
<path d="M349.115 189.712C348.763 189.607 348.467 189.365 348.292 189.042C348.117 188.718 348.078 188.338 348.184 187.985C348.289 187.633 348.531 187.337 348.854 187.162C349.178 186.987 349.558 186.948 349.911 187.054L388.648 197.028C388.825 197.073 388.991 197.153 389.137 197.263C389.283 197.373 389.406 197.51 389.499 197.667C389.591 197.824 389.652 197.998 389.678 198.179C389.704 198.36 389.693 198.544 389.648 198.72C389.602 198.897 389.523 199.063 389.413 199.209C389.303 199.355 389.166 199.478 389.009 199.571C388.851 199.664 388.678 199.725 388.497 199.75C388.316 199.776 388.132 199.766 387.955 199.72L349.218 189.712H349.115Z" fill="white"/>
</mask>
<g mask="url(#mask5_2016_1322)">
<g opacity="0.4">
<path d="M389.648 198.118C389.477 198.281 389.267 198.397 389.039 198.457C388.81 198.517 388.57 198.517 388.342 198.459L349.593 188.485H349.49C349.352 188.511 349.21 188.502 349.077 188.458C348.943 188.415 348.823 188.338 348.728 188.235C348.632 188.132 348.564 188.007 348.53 187.871C348.496 187.734 348.498 187.592 348.534 187.456C348.57 187.32 348.641 187.196 348.738 187.095C348.835 186.994 348.957 186.919 349.091 186.878C349.225 186.837 349.368 186.83 349.505 186.859C349.642 186.888 349.77 186.951 349.877 187.042L388.614 197.016C388.874 197.082 389.11 197.22 389.293 197.416C389.476 197.611 389.599 197.855 389.648 198.118Z" fill="white"/>
</g>
</g>
<path d="M349.115 189.712C348.763 189.607 348.467 189.365 348.292 189.042C348.117 188.718 348.078 188.338 348.184 187.985C348.289 187.633 348.531 187.337 348.854 187.162C349.178 186.987 349.558 186.948 349.911 187.054L388.648 197.028C388.825 197.073 388.991 197.153 389.137 197.263C389.283 197.373 389.406 197.51 389.499 197.667C389.591 197.824 389.652 197.998 389.678 198.179C389.704 198.36 389.693 198.544 389.648 198.72C389.602 198.897 389.523 199.063 389.413 199.209C389.303 199.355 389.166 199.478 389.009 199.571C388.851 199.664 388.678 199.725 388.497 199.75C388.316 199.776 388.132 199.766 387.955 199.72L349.218 189.712H349.115Z" stroke="#263238" stroke-linecap="round" stroke-linejoin="round"/>
<path d="M409.664 164.879L402.769 180.533L398.52 181.942L352.33 166.333L349.808 162.641L353.818 146.01L355.681 143.795L409.528 161.982L409.664 164.879Z" fill="#6C63FF"/>
<mask id="mask6_2016_1322" style="mask-type:luminance" maskUnits="userSpaceOnUse" x="349" y="143" width="61" height="39">
<path d="M409.664 164.879L402.769 180.533L398.52 181.942L352.33 166.333L349.808 162.641L353.818 146.01L355.681 143.795L409.528 161.982L409.664 164.879Z" fill="white"/>
</mask>
<g mask="url(#mask6_2016_1322)">
<path opacity="0.2" d="M402.769 180.533L398.52 181.942L352.33 166.333L349.808 162.641L402.769 180.533Z" fill="black" fill-opacity="0.7"/>
<path opacity="0.4" d="M409.664 164.879L353.818 146.01L355.681 143.795L409.528 161.982L409.664 164.879Z" fill="white"/>
</g>
<path d="M409.664 164.879L402.769 180.533L398.52 181.942L352.33 166.333L349.808 162.641L353.818 146.01L355.681 143.795L409.528 161.982L409.664 164.879Z" stroke="#263238" stroke-linecap="round" stroke-linejoin="round"/>
<path d="M353.818 146.01L374.505 152.996" stroke="#263238" stroke-linecap="round" stroke-linejoin="round"/>
<path d="M377.743 154.098L382.946 155.859" stroke="#263238" stroke-linecap="round" stroke-linejoin="round"/>
<path d="M386.66 157.109L387.808 157.495" stroke="#263238" stroke-linecap="round" stroke-linejoin="round"/>
<path d="M409.664 164.879L404.575 163.164" stroke="#263238" stroke-linecap="round" stroke-linejoin="round"/>
<path d="M402.769 180.533L382.355 173.638" stroke="#263238" stroke-linecap="round" stroke-linejoin="round"/>
<path d="M379.004 172.502L372.29 170.23" stroke="#263238" stroke-linecap="round" stroke-linejoin="round"/>
<path d="M367.076 168.48L365.69 168.003" stroke="#263238" stroke-linecap="round" stroke-linejoin="round"/>
<path d="M349.808 162.641L355.352 164.516" stroke="#263238" stroke-linecap="round" stroke-linejoin="round"/>
<path opacity="0.4" d="M355.716 193.324C357.045 195.733 361.214 198.527 366.576 200.345C371.938 202.163 376.936 202.458 379.458 201.345L355.716 193.324Z" fill="white"/>
<path opacity="0.2" d="M367.223 206.604L362.248 204.923C362.078 204.868 361.93 204.759 361.826 204.614C361.722 204.469 361.667 204.295 361.668 204.116V201.742L369.62 204.412L368.2 206.309C368.092 206.459 367.938 206.569 367.762 206.622C367.585 206.675 367.396 206.669 367.223 206.604Z" fill="white"/>
<path opacity="0.2" d="M361.986 200.89L369.893 203.56L370.995 203.185L361.327 199.925L361.986 200.89Z" fill="white"/>
<path d="M340.8 397.6C340.8 397.6 341.584 380.344 318.455 374.88C299.143 370.336 260.439 373.744 237.31 383.9C214.181 394.056 200.845 403.893 200.061 411.346C199.277 418.798 215.749 418.003 220.055 414.867C224.36 411.732 215.352 408.994 222.406 401.144C229.461 393.295 270.629 379.981 292.588 378.424C314.547 376.868 330.61 387.047 331.394 398.418" fill="#6C63FF"/>
<path opacity="0.4" d="M340.8 397.6C340.8 397.6 341.584 380.344 318.455 374.88C299.143 370.336 260.439 373.744 237.31 383.9C214.181 394.056 200.845 403.893 200.061 411.346C199.277 418.798 215.749 418.003 220.055 414.867C224.36 411.732 215.352 408.994 222.406 401.144C229.461 393.295 270.629 379.981 292.588 378.424C314.547 376.868 330.61 387.047 331.394 398.418" fill="white"/>
<path d="M271.379 344.208L302.744 349.695C302.744 349.695 293.338 354 289.021 361.055C284.704 368.109 282.75 379.878 280.785 384.195C278.82 388.512 269.028 406.54 269.028 406.54L268.641 435.542C268.641 435.542 277.263 407.324 280.785 402.598C284.307 397.873 321.556 363.009 326.657 355.557C331.757 348.104 336.881 341.834 334.495 335.563C332.11 329.292 308.992 313.252 302.744 310.128C296.496 307.004 269.425 316.399 263.541 327.384C257.656 338.369 271.379 344.208 271.379 344.208Z" fill="white" stroke="#263238" stroke-linecap="round" stroke-linejoin="round"/>
<path d="M229.824 336.381C229.824 336.381 234.925 367.36 240.798 381.071C246.671 394.783 251.783 403.03 250.602 410.868C249.42 418.707 243.933 426.557 247.864 439.882C251.794 453.207 257.27 473.201 258.44 478.688C259.031 481.425 259.417 483.572 259.667 485.038C259.794 485.791 260.149 486.487 260.683 487.033C261.216 487.579 261.904 487.949 262.654 488.094C265.335 488.639 269.391 488.696 271.379 484.958C271.379 484.958 272.163 421.456 272.163 408.131C272.163 394.805 273.73 384.604 273.73 374.051C273.73 363.497 274.514 336.029 274.514 336.029C274.514 336.029 255.305 325.055 241.57 326.225C227.836 327.395 229.824 336.381 229.824 336.381Z" fill="white" stroke="#263238" stroke-linecap="round" stroke-linejoin="round"/>
<path d="M270.004 200.345C270.004 200.345 277.4 194.131 283.318 189.996C289.237 185.861 301.051 163.675 301.347 161.903C301.642 160.131 302.539 152.44 302.539 152.44C302.539 152.44 297.212 104.512 296.916 97.4347C296.621 90.3574 294.849 72.3064 294.849 68.7507C294.849 65.195 302.801 50.1317 304.312 47.1667C305.822 44.2018 311.4 36.227 311.707 38.8853C312.014 41.5435 309.923 43.327 309.037 44.5653C308.151 45.8035 306.97 54.0282 306.97 54.0282C306.97 54.0282 309.333 51.0746 310.219 49.8931C311.105 48.7117 315.16 48.4958 312.002 54.3235C310.787 56.5955 309.264 59.197 308.696 60.2421C306.64 64.059 306.652 66.3992 304.88 69.0574C303.626 70.8409 302.139 72.4492 300.46 73.84C300.46 73.84 311.4 109.329 312.888 118.78C314.376 128.232 321.76 153.383 321.158 158.404C320.556 163.425 306.39 187.383 300.46 197.437C294.531 207.49 284.795 218.441 284.204 221.395C283.614 224.349 280.058 227.302 272.969 224.053C265.881 220.804 264.688 208.626 270.004 200.345Z" fill="white" stroke="#263238" stroke-linecap="round" stroke-linejoin="round"/>
<path d="M234.334 148.725C234.334 148.725 221.293 141.807 213.045 143.409C204.798 145.01 204.264 153.519 208.501 160.449C212.739 167.378 225.541 172.945 232.448 165.504C239.355 158.063 234.334 148.725 234.334 148.725Z" fill="#263238" stroke="#263238" stroke-linecap="round" stroke-linejoin="round"/>
<path d="M288.635 206.252L288.34 218.68C288.34 218.68 292.781 231.096 293.963 239.128C295.144 247.16 286.567 265.438 286.567 265.438L285.681 271.652C285.681 271.652 288.34 280.524 269.118 283.182C249.897 285.84 244.24 277.82 244.24 277.82L233.596 243.513L228.859 234.345C228.859 234.345 198.993 242.922 193.643 243.218C181.254 243.41 168.864 242.86 156.541 241.57C144.795 240.207 116.463 238.162 116.463 238.162C115.285 239.033 113.988 239.729 112.612 240.23C110 241.198 107.52 242.488 105.228 244.07C103.081 246.274 100.805 248.349 98.4117 250.284C96.3442 251.76 93.0838 250.284 94.2766 249.397C95.4694 248.511 100.479 242.581 99.5931 243.184C98.707 243.786 89.5395 250 88.6534 251.136C87.7674 252.272 88.0627 256.452 85.9952 257.043C83.9277 257.633 85.1091 252.612 85.4045 250.227C85.6998 247.841 92.4931 241.059 96.3442 238.401C100.195 235.743 107.875 232.187 112.248 232.482C116.622 232.778 133.832 233.618 141.523 232.482C149.214 231.346 187.065 230.415 187.065 230.415C187.065 230.415 191.496 228.938 195.347 227.45C199.198 225.962 218.703 219.771 224.031 216.51C229.358 213.25 251.522 209.694 251.522 209.694C251.522 209.694 251.124 198.823 251.124 192.654C251.124 186.486 242.752 183.339 236.583 179.022C229.404 173.967 224.985 159.404 230.46 150.281C234.459 143.624 239.253 141.761 239.253 141.761C239.253 141.761 252.283 136.172 263.2 138.831C274.117 141.489 277.832 147.919 279.967 152.144C282.103 156.37 290.078 158.529 290.339 159.597C290.6 160.664 288.476 164.913 287.681 165.447C286.885 165.981 291.941 179.022 291.145 181.419C290.35 183.816 289.282 185.145 286.09 185.963C282.898 186.781 270.379 188.621 270.379 188.621C270.379 188.621 271.334 197.357 274.299 203.867" fill="white"/>
<path d="M288.635 206.252L288.34 218.68C288.34 218.68 292.781 231.096 293.963 239.128C295.144 247.16 286.567 265.438 286.567 265.438L285.681 271.652C285.681 271.652 288.34 280.524 269.118 283.182C249.897 285.84 244.24 277.82 244.24 277.82L233.596 243.513L228.859 234.345C228.859 234.345 198.993 242.922 193.643 243.218C181.254 243.41 168.864 242.86 156.541 241.57C144.795 240.207 116.463 238.162 116.463 238.162C115.285 239.033 113.988 239.729 112.612 240.23C110 241.198 107.52 242.488 105.228 244.07C103.081 246.274 100.805 248.349 98.4117 250.284C96.3442 251.76 93.0838 250.284 94.2766 249.397C95.4694 248.511 100.479 242.581 99.5931 243.184C98.707 243.786 89.5395 250 88.6534 251.136C87.7674 252.272 88.0627 256.452 85.9952 257.043C83.9277 257.633 85.1091 252.612 85.4045 250.227C85.6998 247.841 92.4931 241.059 96.3442 238.401C100.195 235.743 107.875 232.187 112.248 232.482C116.622 232.778 133.832 233.618 141.523 232.482C149.214 231.346 187.065 230.415 187.065 230.415C187.065 230.415 191.496 228.938 195.347 227.45C199.198 225.962 218.703 219.771 224.031 216.51C229.358 213.25 251.522 209.694 251.522 209.694C251.522 209.694 251.124 198.823 251.124 192.654C251.124 186.486 242.752 183.339 236.583 179.022C229.404 173.967 224.985 159.404 230.46 150.281C234.459 143.624 239.253 141.761 239.253 141.761C239.253 141.761 252.283 136.172 263.2 138.831C274.117 141.489 277.832 147.919 279.967 152.144C282.103 156.37 290.078 158.529 290.339 159.597C290.6 160.664 288.476 164.913 287.681 165.447C286.885 165.981 291.941 179.022 291.145 181.419C290.35 183.816 289.282 185.145 286.09 185.963C282.898 186.781 270.379 188.621 270.379 188.621C270.379 188.621 271.334 197.357 274.299 203.867" stroke="#263238" stroke-linecap="round" stroke-linejoin="round"/>
<path d="M270.368 141.546C268.153 140.348 265.788 139.45 263.336 138.876C252.419 136.218 239.389 141.807 239.389 141.807C239.389 141.807 234.595 143.67 230.597 150.327C225.121 159.415 229.54 174.012 236.72 179.068C240.366 181.635 244.808 183.68 247.841 186.077C248.162 185.924 248.451 185.712 248.693 185.452C250.515 183.169 252.042 180.665 253.237 178L255.1 175.069C255.1 175.069 261.485 172.149 262.019 168.423C262.552 164.697 258.02 158.836 259.36 152.19C260.405 146.942 266.892 144.181 270.368 141.546Z" fill="#263238" stroke="#263238" stroke-linecap="round" stroke-linejoin="round"/>
<path d="M258.554 176.137C258.554 176.137 254.294 168.957 248.705 173.206C243.115 177.455 251.533 181.919 254.464 182.726C257.395 183.532 260.417 180.658 260.417 180.658" fill="white"/>
<path d="M258.554 176.137C258.554 176.137 254.294 168.957 248.705 173.206C243.115 177.455 251.533 181.919 254.464 182.726C257.395 183.532 260.417 180.658 260.417 180.658" stroke="#263238" stroke-linecap="round" stroke-linejoin="round"/>
<path d="M277.979 154.314C278.515 155.495 279.137 156.634 279.842 157.722L280.91 159.313C279.01 160.545 276.79 161.193 274.526 161.176" stroke="#263238" stroke-linecap="round" stroke-linejoin="round"/>
<path d="M278.979 187.326L264.029 185.6L270.538 188.644L278.979 187.326Z" fill="#263238" stroke="#263238" stroke-linecap="round" stroke-linejoin="round"/>
<path d="M275.594 149.259C275.594 149.259 271.868 148.464 270.527 152.985" stroke="#263238" stroke-linecap="round" stroke-linejoin="round"/>
<path d="M165.538 316.387C165.538 316.387 163.573 318.739 164.402 323.453C164.745 326.058 165.834 328.508 167.537 330.508L184.395 323.056C184.395 323.056 173.376 311.264 165.538 316.387Z" fill="#808080" stroke="#263238" stroke-linecap="round" stroke-linejoin="round"/>
<path d="M188.667 340.3C188.667 340.3 196.108 334.813 211.012 320.704C225.916 306.595 205.128 310.48 196.892 318.739C188.656 326.998 188.667 340.3 188.667 340.3Z" fill="#808080" stroke="#263238" stroke-linecap="round" stroke-linejoin="round"/>
<path d="M338.028 345.015L311.366 325.021C311.366 325.021 304.698 305.811 325.475 301.892C346.253 297.973 359.192 314.82 359.555 318.739C359.919 322.658 358.419 324.623 358.419 324.623L338.426 319.136L338.028 345.015Z" fill="#808080" stroke="#263238" stroke-linecap="round" stroke-linejoin="round"/>
<path d="M298.825 347.366C298.825 347.366 286.67 333.246 284.318 329.724C281.967 326.202 286.272 317.955 292.554 323.84C298.836 329.724 299.211 339.914 298.825 347.366Z" fill="#808080" stroke="#263238" stroke-linecap="round" stroke-linejoin="round"/>
<path d="M244.331 274.832L165.538 316.387C165.538 316.387 169.457 311.684 173.762 321.102C178.068 330.519 182.782 346.968 188.667 340.3C194.551 333.632 192.972 320.307 200.811 320.704C208.649 321.102 208.66 353.648 219.634 352.069C230.608 350.49 230.608 334.813 239.23 334.813C247.852 334.813 258.054 357.158 265.108 357.158C272.163 357.158 279.615 332.076 287.067 331.292C298.018 330.156 295.826 354.477 306.266 352.069C311.366 350.933 312.934 326.975 321.17 325.021C329.406 323.067 335.279 348.934 339.982 344.617C344.685 340.3 341.947 314.82 346.65 314.036C351.353 313.252 356.874 330.11 361.157 323.453C365.44 316.796 367.814 300.733 367.814 300.733L282.353 274.071L244.331 274.832Z" fill="#6C63FF" stroke="#263238" stroke-linecap="round" stroke-linejoin="round"/>
<path d="M248.648 281.501L234.959 293.452" stroke="#263238" stroke-linecap="round" stroke-linejoin="round"/>
<path d="M262.359 284.25L261.428 288.669" stroke="#263238" stroke-linecap="round" stroke-linejoin="round"/>
<path d="M281.546 296.439L283.534 300.313" stroke="#263238" stroke-linecap="round" stroke-linejoin="round"/>
<path d="M274.514 282.682L280.126 293.656" stroke="#263238" stroke-linecap="round" stroke-linejoin="round"/>
<path d="M283.137 278.365L295.292 284.636" stroke="#263238" stroke-linecap="round" stroke-linejoin="round"/>
<path d="M330.769 304.471L328.338 303.005" stroke="#263238" stroke-linecap="round" stroke-linejoin="round"/>
<path d="M346.65 314.036L334.393 306.652" stroke="#263238" stroke-linecap="round" stroke-linejoin="round"/>
<path d="M322.829 324.692L295.258 299.7" stroke="#263238" stroke-linecap="round" stroke-linejoin="round"/>
<path d="M246.762 306.902L247.83 304.471" stroke="#263238" stroke-linecap="round" stroke-linejoin="round"/>
<path d="M235.697 332.053L245.16 310.526" stroke="#263238" stroke-linecap="round" stroke-linejoin="round"/>
<path d="M219.782 303.687L222.826 301.165" stroke="#263238" stroke-linecap="round" stroke-linejoin="round"/>
<path d="M199.3 320.647L217.203 305.823" stroke="#263238" stroke-linecap="round" stroke-linejoin="round"/>
<path d="M280.399 220.736C270.993 221.134 266.676 236.027 266.676 236.027C266.676 236.027 254.521 223.531 246.285 227.791C238.049 232.051 233.641 243.513 233.641 243.513L244.285 277.82C244.285 277.82 249.897 285.772 269.118 283.137C288.34 280.501 285.681 271.606 285.681 271.606L286.567 265.392C286.567 265.392 295.144 247.057 293.963 239.083C293.148 234.423 292.009 229.827 290.555 225.326C289.39 223.762 287.847 222.521 286.07 221.718C284.294 220.915 282.342 220.577 280.399 220.736Z" fill="#6C63FF" stroke="#263238" stroke-linecap="round" stroke-linejoin="round"/>
<path d="M254.044 262.416C254.938 262.654 255.844 262.843 256.759 262.984" stroke="#263238" stroke-linecap="round" stroke-linejoin="round"/>
<path d="M241.468 253.998C243.87 257.32 247.168 259.889 250.977 261.405" stroke="#263238" stroke-linecap="round" stroke-linejoin="round"/>
<path d="M306.97 53.9714L302.823 60.4806" stroke="#263238" stroke-linecap="round" stroke-linejoin="round"/>
<path d="M200.027 379.117C200.027 379.117 235.709 345.798 278.047 319.136C320.386 292.475 340.8 277.184 341.164 265.824C341.527 254.464 321.17 263.075 309.799 262.689C298.427 262.302 312.15 242.695 335.279 243.479C358.408 244.263 361.941 256.407 348.218 277.559C334.495 298.711 307.833 304.221 278.434 322.999C249.034 341.777 205.911 377.152 202.378 380.287C198.845 383.423 197.664 381.071 200.027 379.117Z" fill="#6C63FF"/>
<path opacity="0.4" d="M200.027 379.117C200.027 379.117 235.709 345.798 278.047 319.136C320.386 292.475 340.8 277.184 341.164 265.824C341.527 254.464 321.17 263.075 309.799 262.689C298.427 262.302 312.15 242.695 335.279 243.479C358.408 244.263 361.941 256.407 348.218 277.559C334.495 298.711 307.833 304.221 278.434 322.999C249.034 341.777 205.911 377.152 202.378 380.287C198.845 383.423 197.664 381.071 200.027 379.117Z" fill="white"/>
<path d="M195.721 181.93C196.857 181.93 152.201 183.066 156.904 143.897C161.607 104.728 214.147 80.781 245.115 67.024C276.082 53.267 285.886 33.3189 284.704 25.8667C283.523 18.4146 289.419 12.9277 292.554 24.7307C295.689 36.5338 295.689 49.0411 280.785 61.1963C265.881 73.3515 220.02 84.7115 191.041 105.887C162.062 127.062 158.097 151.327 165.561 164.686C173.024 178.045 194.54 181.93 195.721 181.93Z" fill="#6C63FF"/>
<path opacity="0.4" d="M195.721 181.93C196.857 181.93 152.201 183.066 156.904 143.897C161.607 104.728 214.147 80.781 245.115 67.024C276.082 53.267 285.886 33.3189 284.704 25.8667C283.523 18.4146 289.419 12.9277 292.554 24.7307C295.689 36.5338 295.689 49.0411 280.785 61.1963C265.881 73.3515 220.02 84.7115 191.041 105.887C162.062 127.062 158.097 151.327 165.561 164.686C173.024 178.045 194.54 181.93 195.721 181.93Z" fill="white"/>
<path d="M337.63 387.74C343.117 399.497 341.947 413.22 333.711 420.684C316.774 436.008 270.595 448.913 255.327 459.887C240.059 470.861 251.806 477.915 251.806 477.915C251.806 477.915 240.446 479.483 240.821 469.293C241.195 459.103 257.679 447.709 285.125 436.349C312.57 424.989 339.221 418.321 329.429 391.272" fill="#6C63FF"/>
<path opacity="0.4" d="M337.63 387.74C343.117 399.497 341.947 413.22 333.711 420.684C316.774 436.008 270.595 448.913 255.327 459.887C240.059 470.861 251.806 477.915 251.806 477.915C251.806 477.915 240.446 479.483 240.821 469.293C241.195 459.103 257.679 447.709 285.125 436.349C312.57 424.989 339.221 418.321 329.429 391.272" fill="white"/>
<path d="M200.027 199.572C200.027 200.427 199.773 201.262 199.299 201.972C198.824 202.682 198.149 203.235 197.359 203.562C196.57 203.888 195.701 203.973 194.864 203.805C194.026 203.638 193.257 203.226 192.654 202.621C192.05 202.016 191.64 201.246 191.475 200.408C191.31 199.57 191.397 198.701 191.725 197.913C192.054 197.124 192.609 196.451 193.32 195.978C194.031 195.505 194.867 195.253 195.721 195.256C196.288 195.256 196.849 195.367 197.372 195.584C197.895 195.802 198.37 196.12 198.77 196.521C199.17 196.922 199.487 197.398 199.702 197.921C199.918 198.445 200.028 199.006 200.027 199.572Z" fill="#6C63FF"/>
<path d="M235.118 194.086C236.31 194.086 237.276 193.119 237.276 191.927C237.276 190.735 236.31 189.769 235.118 189.769C233.926 189.769 232.959 190.735 232.959 191.927C232.959 193.119 233.926 194.086 235.118 194.086Z" fill="#6C63FF"/>
<path d="M315.478 218.385C317.969 218.385 319.988 216.365 319.988 213.875C319.988 211.384 317.969 209.365 315.478 209.365C312.988 209.365 310.969 211.384 310.969 213.875C310.969 216.365 312.988 218.385 315.478 218.385Z" fill="#6C63FF"/>
<path d="M332.144 171.729C332.146 172.119 332.032 172.5 331.817 172.825C331.602 173.15 331.295 173.404 330.936 173.554C330.576 173.704 330.18 173.744 329.798 173.668C329.416 173.593 329.064 173.406 328.789 173.13C328.513 172.855 328.326 172.503 328.25 172.121C328.175 171.739 328.215 171.343 328.365 170.983C328.515 170.624 328.769 170.317 329.094 170.102C329.419 169.887 329.8 169.773 330.19 169.775C330.708 169.775 331.205 169.981 331.571 170.347C331.938 170.714 332.144 171.211 332.144 171.729Z" fill="#6C63FF"/>
<path d="M212.182 121.95C212.182 122.494 212.021 123.026 211.718 123.478C211.415 123.93 210.985 124.283 210.482 124.491C209.979 124.698 209.426 124.752 208.892 124.645C208.359 124.538 207.869 124.275 207.485 123.889C207.101 123.504 206.84 123.013 206.735 122.479C206.63 121.945 206.687 121.392 206.896 120.89C207.106 120.388 207.46 119.959 207.914 119.658C208.367 119.358 208.9 119.198 209.444 119.2C209.805 119.2 210.162 119.272 210.495 119.41C210.828 119.548 211.13 119.751 211.384 120.006C211.639 120.262 211.84 120.565 211.977 120.898C212.114 121.232 212.184 121.589 212.182 121.95Z" fill="#6C63FF"/>
<path d="M191.405 271.902C191.405 272.328 191.278 272.746 191.041 273.101C190.804 273.456 190.467 273.732 190.072 273.896C189.678 274.059 189.244 274.102 188.825 274.019C188.407 273.935 188.022 273.73 187.72 273.428C187.418 273.126 187.213 272.741 187.129 272.323C187.046 271.904 187.089 271.47 187.252 271.076C187.416 270.681 187.692 270.344 188.047 270.107C188.402 269.87 188.819 269.743 189.246 269.743C189.819 269.743 190.368 269.971 190.773 270.375C191.177 270.78 191.405 271.329 191.405 271.902Z" fill="#6C63FF"/>
<path d="M203.753 362.657C203.753 363.084 203.626 363.501 203.389 363.856C203.152 364.211 202.815 364.487 202.42 364.651C202.026 364.814 201.592 364.857 201.173 364.774C200.755 364.69 200.37 364.485 200.068 364.183C199.766 363.881 199.561 363.496 199.478 363.078C199.394 362.659 199.437 362.225 199.6 361.831C199.764 361.436 200.04 361.099 200.395 360.862C200.75 360.625 201.168 360.498 201.594 360.498C202.167 360.498 202.716 360.726 203.121 361.13C203.525 361.535 203.753 362.084 203.753 362.657Z" fill="#6C63FF"/>
<path d="M194.54 368.927C194.54 369.509 194.367 370.078 194.044 370.562C193.721 371.046 193.261 371.423 192.724 371.646C192.186 371.868 191.594 371.927 191.024 371.813C190.453 371.7 189.929 371.419 189.517 371.008C189.106 370.596 188.826 370.072 188.712 369.501C188.599 368.931 188.657 368.339 188.879 367.801C189.102 367.264 189.479 366.804 189.963 366.481C190.447 366.158 191.016 365.985 191.598 365.985C191.985 365.984 192.368 366.059 192.725 366.206C193.083 366.353 193.408 366.57 193.682 366.844C193.955 367.117 194.172 367.442 194.319 367.8C194.466 368.157 194.542 368.541 194.54 368.927Z" fill="#6C63FF"/>
<path d="M334.109 365.394C334.111 365.863 333.974 366.321 333.716 366.711C333.457 367.102 333.088 367.406 332.656 367.587C332.223 367.767 331.747 367.815 331.288 367.724C330.829 367.633 330.407 367.408 330.075 367.077C329.744 366.745 329.519 366.323 329.428 365.864C329.337 365.405 329.385 364.928 329.565 364.496C329.746 364.064 330.05 363.695 330.441 363.436C330.831 363.178 331.289 363.041 331.758 363.043C332.381 363.043 332.979 363.291 333.42 363.732C333.861 364.173 334.109 364.771 334.109 365.394Z" fill="#6C63FF"/>
<path d="M289.612 423.421C291.237 423.421 292.554 422.104 292.554 420.479C292.554 418.854 291.237 417.537 289.612 417.537C287.987 417.537 286.67 418.854 286.67 420.479C286.67 422.104 287.987 423.421 289.612 423.421Z" fill="#6C63FF"/>
<path d="M286.863 466.544C286.863 467.126 286.69 467.695 286.367 468.178C286.044 468.662 285.584 469.039 285.046 469.262C284.509 469.485 283.917 469.543 283.347 469.43C282.776 469.316 282.252 469.036 281.84 468.624C281.429 468.213 281.148 467.689 281.035 467.118C280.921 466.547 280.98 465.956 281.202 465.418C281.425 464.88 281.802 464.421 282.286 464.097C282.77 463.774 283.339 463.602 283.92 463.602C284.701 463.602 285.449 463.912 286.001 464.463C286.553 465.015 286.863 465.764 286.863 466.544Z" fill="#6C63FF"/>
<path d="M347.923 237.924C347.923 237.924 368.643 243.411 371.688 253.771C374.732 264.131 364.372 274.492 364.372 274.492C364.372 274.492 380.219 269.618 380.219 254.373C380.219 239.128 364.372 234.266 359.498 233.05C354.625 231.835 343.072 232.437 347.923 237.924Z" fill="#6C63FF"/>
<path opacity="0.4" d="M347.923 237.924C347.923 237.924 368.643 243.411 371.688 253.771C374.732 264.131 364.372 274.492 364.372 274.492C364.372 274.492 380.219 269.618 380.219 254.373C380.219 239.128 364.372 234.266 359.498 233.05C354.625 231.835 343.072 232.437 347.923 237.924Z" fill="white"/>
<path d="M141.114 230.835H138.138V233.812H141.114V230.835Z" fill="white" stroke="#263238" stroke-linecap="round" stroke-linejoin="round"/>
<path d="M113.248 230.369H110.271V233.346H113.248V230.369Z" fill="white" stroke="#263238" stroke-linecap="round" stroke-linejoin="round"/>
<path d="M195.199 241.729H192.223V244.706H195.199V241.729Z" fill="white" stroke="#263238" stroke-linecap="round" stroke-linejoin="round"/>
<path d="M118.03 236.697H115.054V239.673H118.03V236.697Z" fill="white" stroke="#263238" stroke-linecap="round" stroke-linejoin="round"/>
<path d="M106.784 242.616H103.808V245.592H106.784V242.616Z" fill="white" stroke="#263238" stroke-linecap="round" stroke-linejoin="round"/>
<path d="M90.2324 249.716H87.2561V252.692H90.2324V249.716Z" fill="white" stroke="#263238" stroke-linecap="round" stroke-linejoin="round"/>
<path d="M188.701 229.018H185.725V231.994H188.701V229.018Z" fill="white" stroke="#263238" stroke-linecap="round" stroke-linejoin="round"/>
<path d="M227.552 214.352H224.576V217.328H227.552V214.352Z" fill="white" stroke="#263238" stroke-linecap="round" stroke-linejoin="round"/>
<path d="M110.158 231.596H92.05" stroke="#263238" stroke-linecap="round" stroke-linejoin="round"/>
<path d="M131.731 231.596H113.623" stroke="#263238" stroke-linecap="round" stroke-linejoin="round"/>
<path d="M92.0501 233.459C93.079 233.459 93.9131 232.625 93.9131 231.596C93.9131 230.567 93.079 229.733 92.0501 229.733C91.0211 229.733 90.187 230.567 90.187 231.596C90.187 232.625 91.0211 233.459 92.0501 233.459Z" fill="#263238"/>
<path d="M133.866 231.596C133.866 231.228 133.757 230.868 133.552 230.561C133.348 230.255 133.057 230.016 132.716 229.875C132.376 229.734 132.001 229.697 131.64 229.769C131.278 229.841 130.946 230.018 130.686 230.279C130.425 230.54 130.248 230.871 130.176 231.233C130.104 231.594 130.141 231.969 130.282 232.309C130.423 232.65 130.662 232.941 130.968 233.145C131.275 233.35 131.635 233.459 132.003 233.459C132.497 233.459 132.971 233.263 133.321 232.914C133.67 232.564 133.866 232.09 133.866 231.596Z" fill="#263238"/>
<path d="M191.916 243.047H173.808" stroke="#263238" stroke-linecap="round" stroke-linejoin="round"/>
<path d="M213.488 243.047H195.381" stroke="#263238" stroke-linecap="round" stroke-linejoin="round"/>
<path d="M175.671 243.104C175.671 242.736 175.562 242.375 175.357 242.069C175.152 241.763 174.861 241.524 174.521 241.383C174.181 241.242 173.806 241.205 173.445 241.277C173.083 241.349 172.751 241.526 172.491 241.787C172.23 242.047 172.053 242.379 171.981 242.741C171.909 243.102 171.946 243.477 172.087 243.817C172.228 244.157 172.467 244.448 172.773 244.653C173.079 244.858 173.44 244.967 173.808 244.967C174.053 244.969 174.296 244.921 174.523 244.828C174.75 244.735 174.956 244.598 175.129 244.425C175.302 244.251 175.439 244.045 175.532 243.819C175.626 243.592 175.673 243.349 175.671 243.104Z" fill="#263238"/>
<path d="M213.75 244.91C214.779 244.91 215.613 244.076 215.613 243.047C215.613 242.018 214.779 241.184 213.75 241.184C212.721 241.184 211.887 242.018 211.887 243.047C211.887 244.076 212.721 244.91 213.75 244.91Z" fill="#263238"/>
</svg>
