<svg width="108" height="98" viewBox="0 0 108 98" fill="none" xmlns="http://www.w3.org/2000/svg">
<path d="M53.6574 0C39.4571 0.0144768 25.843 5.16423 15.8019 14.3195C5.76076 23.4747 0.112679 35.8876 0.0968018 48.8351C0.120594 61.7803 5.77121 74.1891 15.8106 83.3427C25.85 92.4964 39.4596 97.6485 53.6574 97.6701C67.8626 97.6701 81.486 92.525 91.5305 83.3667C101.575 74.2083 107.218 61.7869 107.218 48.8351C107.218 35.8832 101.575 23.4618 91.5305 14.3035C81.486 5.14511 67.8626 0 53.6574 0ZM86.2352 77.0149C83.2271 71.4828 78.5833 66.8274 72.8277 63.5737C67.0722 60.3201 60.4339 58.5977 53.6618 58.601C46.8897 58.6042 40.2534 60.3329 34.5016 63.5921C28.7498 66.8513 24.1114 71.5112 21.1097 77.0461C13.101 69.4728 8.6384 59.3553 8.6665 48.8351C8.6665 37.9555 13.4066 27.5215 21.844 19.8285C30.2815 12.1355 41.7251 7.81361 53.6574 7.81361C65.5898 7.81361 77.0334 12.1355 85.4708 19.8285C93.9083 27.5215 98.6484 37.9555 98.6484 48.8351C98.6752 59.3406 94.2243 69.4447 86.2352 77.0149ZM53.6574 19.534C49.8438 19.534 46.1159 20.5651 42.945 22.4969C39.7741 24.4287 37.3027 27.1744 35.8433 30.3868C34.3839 33.5993 34.0021 37.1342 34.7461 40.5445C35.4901 43.9548 37.3265 47.0873 40.0231 49.546C42.7197 52.0047 46.1554 53.6791 49.8957 54.3575C53.636 55.0358 57.513 54.6877 61.0363 53.357C64.5596 52.0264 67.571 49.773 69.6897 46.8819C71.8084 43.9908 72.9393 40.5918 72.9393 37.1147C72.9393 34.8059 72.4405 32.5198 71.4715 30.3868C70.5025 28.2539 69.0822 26.3158 67.2917 24.6833C65.5013 23.0508 63.3756 21.7558 61.0363 20.8723C58.6969 19.9888 56.1896 19.534 53.6574 19.534Z" fill="black"/>
</svg>
