<svg width="100" height="100" viewBox="0 0 100 100" fill="none" xmlns="http://www.w3.org/2000/svg">
<g clip-path="url(#clip0_611_189)">
<path d="M40.3828 70.4531H33.2891L33.1797 78.5781C33.1797 82.1172 36.1797 85.5156 39.7422 85.5156H41.0312C44.5938 85.5156 47.6328 82.25 47.6328 78.7109L47.4766 70.4531H40.3828ZM65.6484 40.3438C65.6484 40.3438 70.25 41.1406 70.25 46.1016C70.25 50.4766 66.8906 52.2031 63.5312 52.2031V40.3438H65.6484ZM15.4297 40.3438C15.4297 40.3438 10.8281 41.1406 10.8281 46.1016C10.8281 50.4766 14.1875 52.2031 17.5469 52.2031V40.3438H15.4297Z" fill="black"/>
<path d="M40.5391 7.86719C20.6953 7.86719 15.5078 23.25 15.5078 44.8594C15.5078 67.2656 29.9063 73.0625 40.5391 73.0625C51.0156 73.0625 65.5703 67.4375 65.5703 44.8594C65.5703 23.25 60.375 7.86719 40.5391 7.86719Z" fill="#FADCBC"/>
<path d="M32.2891 46.8672C32.2891 49.1016 30.7969 50.9063 28.9453 50.9063C27.1016 50.9063 25.5938 49.0938 25.5938 46.8672C25.5938 44.6328 27.0938 42.8203 28.9453 42.8203C30.7969 42.8203 32.2891 44.625 32.2891 46.8672ZM48.7734 46.8672C48.7734 49.1016 50.2656 50.9063 52.125 50.9063C53.9688 50.9063 55.4688 49.0938 55.4688 46.8672C55.4688 44.6328 53.9688 42.8203 52.125 42.8203C50.2734 42.8203 48.7734 44.625 48.7734 46.8672ZM47.7813 60.5156H33.2969C32.4688 60.5156 32.1094 61.0703 32.6563 61.9141C33.4219 63.0859 36.2813 65.3359 40.5391 65.3359C44.7969 65.3359 47.6562 63.0859 48.4219 61.9141C48.9688 61.0703 48.6094 60.5156 47.7813 60.5156Z" fill="#312D2D"/>
<path d="M44.039 54.3594C42.8046 54.7109 41.5234 54.875 40.539 54.875C39.5546 54.875 38.2734 54.7031 37.039 54.3594C36.5156 54.2109 36.3046 54.7109 36.4921 55.0391C36.8828 55.7266 38.4609 57.1172 40.539 57.1172C42.6171 57.1172 44.1953 55.7266 44.5859 55.0391C44.7734 54.7031 44.5625 54.2031 44.039 54.3594Z" fill="black"/>
<path d="M41.1328 5.04687C41.1328 5.04687 40.7422 5.03125 40.5781 5.03906C40.4141 5.03906 40.0234 5.04687 40.0234 5.04687C18.6094 5.46094 12.1562 18.3437 12.1562 27.2734C12.1562 35.9531 12.1641 42.3359 12.1641 42.3359C12.1641 42.3359 12.5078 41.9844 13.1328 41.4922C13.8047 40.9687 14.5469 40.6797 14.5469 40.6797L15.625 47.9297L22.7578 33.0234C22.8047 32.9297 22.8984 32.875 23 32.8906L27.2266 33.3594C31.4766 33.8281 35.75 34.0625 40.0156 34.0703V34.0781C40.2031 34.0781 40.3828 34.0703 40.5703 34.0703C40.7578 34.0703 40.9375 34.0781 41.125 34.0781V34.0625C45.3906 34.0469 49.6641 33.8203 53.9141 33.3516L58.1406 32.8828C58.2422 32.875 58.3359 32.9297 58.3828 33.0156L65.5156 47.9219L66.5938 40.6719C66.5938 40.6719 67.3359 40.9687 68.0078 41.4844C68.6406 41.9766 68.9766 42.3281 68.9766 42.3281C68.9766 42.3281 68.9844 35.9531 68.9844 27.2656C69 18.3437 62.5469 5.46094 41.1328 5.04687Z" fill="#312D2D"/>
<path d="M92.8516 57.7187L90.9922 64.2734C91.9844 64.5 92.8203 64.9375 93.6016 65.2578L95.6641 58.5469L92.8516 57.7187Z" fill="#D0CCD0" fill-opacity="0.803922"/>
<path d="M79.1328 106.125L80.8906 106.641L93.6016 65.25C92.8203 64.9297 91.9844 64.4922 90.9922 64.2656L79.1328 106.125Z" fill="#603913"/>
<path d="M95.4219 53.7266C93.6094 54.6328 93.5469 57.2734 91.0078 56.6016C91.0781 57.9453 91.8594 59.1797 93.3984 59.6875C95.0078 60.2188 96.8203 59.4375 97.7188 57.875C96.9688 56.3594 98.6797 52.9141 95.4219 53.7266Z" fill="#D1D3D4"/>
<path d="M94.7109 47.4688C94.8906 47.7031 94.3906 48.9922 94.289 49.2813C94.0703 49.9063 93.789 50.5078 93.4843 51.1016C92.8672 52.2969 91.9687 53.3125 91.4375 54.5547C91.1484 55.2344 90.9687 55.9219 91 56.6016C93.539 57.2734 93.6093 54.6328 95.414 53.7266C98.6718 52.9141 96.9609 56.3594 97.7109 57.875C97.875 57.5938 98.0078 57.3047 98.1093 56.9766C99.4375 52.4063 96.1562 49.3203 94.7109 47.4688Z" fill="#547DBE"/>
<path d="M76.3281 58.7188L78.25 65.7109C79.2734 65.3672 80.2813 65.3125 81.1641 65.1719L79.3438 57.9297L76.3281 58.7188Z" fill="#D0CCD0" fill-opacity="0.803922"/>
<path d="M90.5234 110.344L92.4062 109.852L81.1641 65.1641C80.2812 65.3047 79.2734 65.3672 78.25 65.7031L90.5234 110.344Z" fill="#754C29"/>
<path d="M74.8828 57.9141C74.5703 57.7266 74.1719 57.5625 73.7891 57.3594C73.9375 58.4219 74.3594 59.3984 75.3047 59.9922C76.4766 60.7344 78.1563 60.7031 79.3516 60.0156C81.8125 58.5859 81.6875 54.5547 79.9609 52.6484C79.9063 52.5938 79.8672 52.5391 79.8125 52.4766C79.6172 52.5469 79.4219 52.6328 79.2188 52.7656C77.8906 53.9141 77.3438 58.0859 74.8828 57.9141Z" fill="#D1D3D4"/>
<path d="M76.5234 46.9766C76.3281 46.9922 76.1328 47.4922 76.0625 47.6328C75.7812 48.1719 75.5469 48.7422 75.3281 49.3047C75.3047 49.3594 75.2891 49.4141 75.2656 49.4687C74.6641 51.0547 74.2187 52.6875 73.9297 54.3594C73.7734 55.2656 73.6562 56.3516 73.7969 57.3594C74.1797 57.5625 74.5781 57.7266 74.8906 57.9141C77.3516 58.0937 77.8984 53.9219 79.2187 52.7734C79.4219 52.6406 79.6172 52.5547 79.8125 52.4844C76.6016 48.8984 76.5234 46.9766 76.5234 46.9766Z" fill="#D0CCD0" fill-opacity="0.803922"/>
<path d="M87.8203 55.4375L87.5313 63.125C86.3906 63.0234 85.3359 63.2031 84.3906 63.2734L84.5156 55.3516L87.8203 55.4375Z" fill="#D0CCD0" fill-opacity="0.803922"/>
<path d="M85.6797 112.219L83.6094 112.164L84.3906 63.2734C85.3359 63.2031 86.3906 63.0234 87.5313 63.125L85.6797 112.219Z" fill="#8B5E3C"/>
<path d="M84.0312 52.6719L84.4375 56.25L87.8672 56.2812L88.6719 50.8437C87.0547 50.1016 85.5703 51.9062 84.0312 52.6719Z" fill="#D1D3D4"/>
<path d="M89.211 47.0391C89.1485 46.7109 88.9766 46.4688 88.6094 46.4453C88.4219 46.4297 88.1875 46.6563 88.0469 46.6406C87.8672 46.6172 87.7735 46.4141 87.6172 46.3516C87.0469 46.1484 86.4219 46.6094 85.8516 46.625C85.4844 46.6328 85.125 46.5703 84.7657 46.6172C84.6563 46.6328 84.1172 46.8125 83.9766 46.7656C83.2266 46.4844 83.4532 47.4531 83.4532 47.4531L84.0469 52.6719C85.586 51.9062 87.0703 50.1016 88.6875 50.8359C88.7578 50.3438 88.836 49.8516 88.9063 49.3672C88.961 48.9219 89.3438 47.7578 89.211 47.0391Z" fill="#DB4436"/>
<path d="M46.4844 86.625H34.6094C32.3906 86.625 30.5781 84.8125 30.5781 82.5938V76.5859C30.5781 75.2969 31.6328 74.2422 32.9219 74.2422H48.1719C49.4609 74.2422 50.5156 75.2969 50.5156 76.5859V82.5938C50.5156 84.8125 48.6953 86.625 46.4844 86.625Z" fill="#414042"/>
<path d="M6.50781 92.2109V100H74.5859V92.2109C74.5859 82.4219 61.2109 79.4063 47.6562 78.7109C47.5938 79.2969 47.4609 84.0312 40.4453 84.0312C33.5938 84.0312 33.3594 79.8125 33.2031 78.5781C19.8516 79.2109 6.50781 82.0625 6.50781 92.2109Z" fill="#414042"/>
<path d="M74.7343 85.7109C75.6875 85.2656 76.6484 85.4219 77.5781 85.8281C78.3359 84.9531 79.7343 83.5547 80.1875 83.2109C80.7265 82.8047 81.4687 82.2969 82.4531 83.2813C83.0937 83.9219 83.2968 84.7188 82.4609 85.5234C82.1484 85.8203 81.8203 86.125 81.5 86.4141L81.9375 86.7109C82.2421 86.4531 82.5234 86.2188 82.7343 86.0391C83.6328 85.2891 84.539 85.3594 85.3125 86.3281C85.9921 87.1719 85.5859 88.1563 85.0859 88.6172C84.8203 88.8594 83.9921 89.4531 83.164 90L83.2187 90.2344L83.2265 90.3125C83.7734 89.9922 84.3046 89.6953 84.6875 89.4844C85.7031 88.9219 86.6015 89.1719 87.0703 89.9531C87.6406 90.8984 87.0625 91.75 86.5234 92.1563C86.1171 92.4609 84.5625 93.3594 83.4843 93.9063L83.5156 94.3125C83.5937 94.2656 83.664 94.2266 83.75 94.1797C83.7656 94.1719 83.7734 94.1641 83.789 94.1562L84 94.0391C84.0173 94.0314 84.0331 94.0209 84.0468 94.0078C84.1328 93.9609 84.2109 93.9141 84.2968 93.8672C84.2968 93.8672 84.3046 93.8672 84.3046 93.8594C84.3906 93.8125 84.4843 93.7578 84.5781 93.7109C84.5937 93.7031 84.6093 93.6953 84.6328 93.6797L84.8437 93.5625C84.875 93.5469 84.8984 93.5313 84.9296 93.5156C84.9921 93.4844 85.0468 93.4531 85.1093 93.4219L85.2031 93.375C85.2656 93.3438 85.3203 93.3125 85.375 93.2813C85.4062 93.2656 85.4296 93.25 85.4609 93.2344C85.5468 93.1875 85.625 93.1484 85.7031 93.1094C86.6484 92.625 87.2578 92.7422 87.6718 93.4688C88.2578 94.4844 87.5156 95.4141 87 95.7578C86.4843 96.1016 84.5859 97.0781 83.8671 97.2812C83.8203 97.2969 83.7734 97.3047 83.7265 97.3125L83.7578 97.7266C81.2421 99.4922 78.7265 99.8828 78.7265 99.8828C76.6875 100.227 75.9687 99.8125 74.9609 99.0391C73.8203 98.1562 72.8359 96.8125 72.6796 96.6016C71.0078 94.3594 70.3593 92.5625 71.1718 89.9766C71.3671 89.3516 71.5937 88.3594 72.8359 87.0938C73.3046 86.5859 74.1015 86.0156 74.7343 85.7109Z" fill="#FADCBC"/>
<path d="M78.7344 70.5234C72.836 72.9531 68.9688 78.125 66.4688 83.6641C65.1876 86.4922 64.5547 89.2812 64.2657 92.2578C64.1251 93.7031 64.1407 95.1094 64.4922 96.7656C64.7344 97.9062 65.1016 98.9609 65.9454 100.117C66.3594 100.687 66.8985 101.148 67.6251 101.406C68.0157 101.547 68.5079 101.586 69.3516 101.539C71.086 101.453 72.1485 100.812 73.6172 100.016C74.2266 99.7031 74.836 99.3984 75.4454 99.0859C76.5547 98.5781 78.0469 97.6719 79.2188 98.3516C80.586 99.1406 79.5782 101.039 78.8907 101.992C78.6172 102.375 78.3438 102.758 78.0782 103.141C77.7188 103.672 77.3751 104.219 77.1719 104.719C77.0704 104.953 77.0001 105.187 76.9844 105.414C76.961 105.656 77.0079 105.906 77.1797 106.156C77.3672 106.43 77.6954 106.586 78.0782 106.695C79.0157 106.961 80.0079 106.914 80.9922 106.758C84.461 106.195 87.7735 104.375 90.461 102.125C91.5782 101.187 92.5626 100.156 93.9219 98.5781C107.422 82.8594 96.711 63.1094 78.7344 70.5234Z" fill="#BCAAA4"/>
<path d="M76.4141 89.7266C77.4219 89.6484 78.4688 90.6016 79.4063 90.9844C82.5 92.25 83.1016 89.7734 81.7578 88.4062C78.7032 85.3047 74.9453 86.1172 73.4063 87.6094C72.8282 88.1719 72.0782 89.0781 71.7891 89.8125C71.0391 91.7031 74.1328 92.5781 74.9375 90.8359C75.2032 90.2422 75.7657 89.7812 76.4141 89.7266Z" fill="#FADCBC"/>
<path d="M81.9531 88.2187C78.7656 84.9766 74.8594 85.8281 73.2188 87.4141C72.6406 87.9766 71.8516 88.9141 71.5391 89.7109C71.5313 89.7187 71.5312 89.7344 71.5312 89.7422C71.6094 89.7656 71.6875 89.7891 71.7656 89.8203C71.8516 89.8594 71.9375 89.8984 72.0312 89.9375C72.0391 89.9375 72.0391 89.9297 72.0469 89.9297C72.0469 89.9219 72.0469 89.9219 72.0547 89.9141C72.3203 89.2422 73.0313 88.375 73.6094 87.8047C74.3438 87.0859 75.5937 86.5469 77.0234 86.5469C78.4687 86.5469 80.1016 87.1016 81.5703 88.6016C82.1641 89.2031 82.3438 90.0625 81.9844 90.6016C81.6016 91.1719 80.7031 91.2187 79.5156 90.7344C79.2266 90.6172 78.9141 90.4375 78.5859 90.2422C77.8828 89.8281 77.1641 89.3984 76.3984 89.4609C75.6875 89.5156 75.0156 90.0156 74.6875 90.7266C74.6797 90.75 74.6563 90.7656 74.6484 90.7891C74.7891 90.8906 74.9375 91.0078 75.0859 91.125C75.1172 91.0703 75.1563 91.0156 75.1875 90.9531C75.4297 90.4219 75.9219 90.0469 76.4453 90.0078C77.0313 89.9687 77.6797 90.3437 78.3125 90.7109C78.6406 90.9062 78.9844 91.1016 79.3125 91.2422C81.3594 92.0859 82.1797 91.2891 82.4375 90.9062C82.9297 90.1562 82.7266 89 81.9531 88.2187Z" fill="black"/>
<path d="M85.3126 75.5156C85.0626 74.2344 83.961 73.1016 82.6251 73.0078C81.1016 72.9063 80.3204 74.2188 79.9454 75.5C79.5704 76.7813 79.5391 78.25 80.4219 79.3359C81.3907 80.5313 83.1407 80.4844 84.086 79.3047C84.4297 78.8828 84.6876 78.3359 84.8438 77.7656C85.2969 77.1484 85.4688 76.3203 85.3126 75.5156Z" fill="#547DBE"/>
<path d="M93.6875 75.2813C92.4219 74.4609 90.5234 75.2188 89.4063 75.9844C88.1563 76.8516 87.2344 78.5313 87.9297 80.0313C88.6094 81.5078 90.4219 81.9531 91.8516 81.3672C93.1016 80.8594 94.5156 79.4922 94.4844 78.0547C94.8438 77.0625 94.7422 75.9609 93.6875 75.2813Z" fill="#D0CCD0" fill-opacity="0.803922"/>
<path d="M94.8985 83.9453C93.6641 83.8828 92.3594 84.4609 91.4141 85.2188C90.3828 86.0469 89.6563 87.2891 90.3282 88.5859C90.9375 89.7656 92.3672 90.1797 93.6016 90.0469C94.7657 89.9219 95.8828 89.25 96.5313 88.2656C96.7657 87.9141 96.9297 87.5 96.961 87.0781C97.0469 86.8516 97.1172 86.6094 97.1485 86.3516C97.3203 84.9609 96.1953 84.0156 94.8985 83.9453Z" fill="#F2B31B"/>
<path d="M91.6172 92.8984C91.0235 91.9844 89.8828 91.6484 88.8516 91.4531C87.6719 91.2266 86.3047 91.3359 85.3828 92.2031C84.3047 93.2187 84.5156 94.8203 85.7188 95.6172C85.9688 95.7812 86.2578 95.9219 86.5703 96.0312C87.6563 96.8437 89.0547 96.6094 90.2422 96.1719C91.1563 95.8281 91.9063 95.0234 91.9531 94.0859C91.9531 94.0703 91.961 94.0625 91.961 94.0547C92.0235 93.5547 91.875 93.1641 91.6172 92.8984Z" fill="#DB4436"/>
</g>
<defs>
<clipPath id="clip0_611_189">
<rect width="100" height="100" fill="white"/>
</clipPath>
</defs>
</svg>
