<svg width="600" height="600" viewBox="0 0 600 600" fill="none" xmlns="http://www.w3.org/2000/svg">
<path d="M511.37 301.25C393.84 232.967 203.913 232.967 87.1407 301.25C-29.6315 369.533 -28.9535 480.406 88.6296 548.743C206.213 617.079 396.087 617.093 512.859 548.743C629.631 480.393 628.953 369.6 511.37 301.25Z" fill="#FAFAFA"/>
<path d="M552.315 484.757C556.09 486.953 556.104 490.515 552.315 492.71L536.894 501.667C534.787 502.75 532.454 503.314 530.088 503.314C527.722 503.314 525.389 502.75 523.282 501.667L354.252 403.353C350.476 401.171 350.45 397.609 354.252 395.414L369.659 386.457C371.769 385.374 374.104 384.809 376.472 384.809C378.84 384.809 381.175 385.374 383.285 386.457L552.315 484.757Z" fill="#F0F0F0"/>
<path d="M504.883 498.869C508.672 501.078 508.685 504.626 504.883 506.822L489.463 515.779C487.352 516.862 485.018 517.426 482.65 517.426C480.281 517.426 477.947 516.862 475.837 515.779L331.467 431.791C327.691 429.595 327.665 426.034 331.467 423.838L346.887 414.881C348.997 413.798 351.332 413.234 353.7 413.234C356.069 413.234 358.403 413.798 360.513 414.881L504.883 498.869Z" fill="#F0F0F0"/>
<path d="M87.5919 492.268C77.2361 486.243 60.486 486.243 50.1834 492.268C39.8807 498.293 39.9472 508.067 50.303 514.092C60.6588 520.117 77.4222 520.117 87.7116 514.092C98.0009 508.067 97.9345 498.293 87.5919 492.268Z" fill="#F0F0F0"/>
<path d="M139.532 478.13C171.53 459.519 223.282 459.519 255.054 478.13C286.826 496.74 286.68 526.919 254.669 545.529C222.658 564.14 170.918 564.14 139.146 545.529C107.374 526.919 107.521 496.74 139.532 478.13Z" fill="#F0F0F0"/>
<path d="M101.472 418.416L170.227 378.437C170.701 378.171 171.095 377.782 171.369 377.312C171.644 376.841 171.789 376.305 171.789 375.759C171.789 375.213 171.644 374.677 171.369 374.206C171.095 373.735 170.701 373.347 170.227 373.081L109.634 337.668C109.171 337.399 108.647 337.257 108.112 337.257C107.578 337.257 107.053 337.399 106.59 337.668L36.3193 378.53C35.8459 378.796 35.4516 379.185 35.1771 379.655C34.9025 380.126 34.7578 380.662 34.7578 381.208C34.7578 381.754 34.9025 382.29 35.1771 382.761C35.4516 383.232 35.8459 383.62 36.3193 383.886L95.3834 418.456C96.3129 418.987 97.3645 419.262 98.433 419.255C99.5015 419.248 100.549 418.959 101.472 418.416Z" fill="#F0F0F0"/>
<path d="M315.488 284.983C299.269 275.61 273.054 275.61 256.995 284.983C240.937 294.355 240.963 309.712 257.182 319.138C273.4 328.563 299.615 328.577 315.674 319.138C331.733 309.698 331.706 294.435 315.488 284.983Z" fill="#F0F0F0"/>
<path d="M180.53 76.0499L175.319 72.9973L120.27 104.889V110.955L180.53 76.0499Z" fill="#F5F5F5"/>
<path d="M180.53 76.0499L120.27 110.955V117.89L180.543 83.0121L180.53 76.0499Z" fill="#E0E0E0"/>
<path d="M88.7875 129.204L83.5763 126.151L28.5137 158.043V164.122L88.7875 129.204Z" fill="#F5F5F5"/>
<path d="M88.7875 129.204L28.5137 164.122V171.044L88.8008 136.166L88.7875 129.204Z" fill="#E0E0E0"/>
<path d="M180.237 17.7683L175.025 14.7157L175.331 171.727L180.542 174.779L180.237 17.7683Z" fill="#F0F0F0"/>
<path d="M180.542 174.779L175.331 171.727L115.363 206.404L120.574 209.456L180.542 174.779Z" fill="#F5F5F5"/>
<path d="M186.551 178.233L114.592 219.873L114.246 48.9911L186.205 7.33847L186.551 178.233ZM120.534 209.456L180.502 174.779L180.196 17.7684L120.268 52.432L120.534 209.456Z" fill="#E0E0E0"/>
<path d="M186.205 7.33846L181.007 4.29919L109.035 45.9385L114.246 48.9911L186.205 7.33846Z" fill="#F5F5F5"/>
<path d="M114.246 48.9911L109.035 45.9384L109.381 216.82L114.592 219.873L114.246 48.9911Z" fill="#F0F0F0"/>
<path d="M88.4963 70.922L83.2852 67.8694L83.5909 224.894L88.802 227.946L88.4963 70.922Z" fill="#F0F0F0"/>
<path d="M88.8003 227.946L83.5891 224.894L23.6211 259.557L28.8189 262.61L88.8003 227.946Z" fill="#F5F5F5"/>
<path d="M94.8105 231.387L22.8515 273.013L22.5059 102.131L94.4649 60.4921L94.8105 231.387ZM28.8071 262.61L88.7884 227.946L88.496 70.922L28.5146 105.653L28.8071 262.61Z" fill="#E0E0E0"/>
<path d="M94.4651 60.5055L89.2539 57.4528L17.2949 99.0921L22.5061 102.145L94.4651 60.5055Z" fill="#F5F5F5"/>
<path d="M22.5061 102.145L17.2949 99.0921L17.6406 269.987L22.8517 273.026L22.5061 102.145Z" fill="#F0F0F0"/>
<path d="M154.926 373.389L160.788 376.83L160.775 369.988L154.926 373.389Z" fill="#E6E6E6"/>
<path d="M160.535 303.593L103.398 336.824L160.535 303.593Z" fill="#CFCFCF"/>
<path d="M160.776 369.988V376.83L166.891 373.269L166.665 292.936L97.2051 333.263L97.4311 413.663L103.546 410.101V403.26L154.926 373.429L160.776 369.988ZM103.4 336.824L160.563 303.593L160.643 329.675L103.48 362.906L103.4 336.824ZM103.493 370.042L160.656 336.811V336.891L160.736 362.879L103.573 396.11L103.493 370.042Z" fill="#E6E6E6"/>
<path d="M160.708 362.879L160.629 336.878V336.811L103.492 370.042L103.559 396.11L160.708 362.879Z" fill="#E0E0E0"/>
<path d="M160.615 329.675L160.535 303.593L103.398 336.824L103.465 362.906L160.615 329.675Z" fill="#E0E0E0"/>
<path d="M97.2042 333.276L36.5449 297.769L36.7709 378.169L97.4302 413.676L97.2042 333.276Z" fill="#E0E0E0"/>
<path d="M97.2042 333.276L166.677 292.869L106.031 257.375L36.5449 297.769L97.2042 333.276Z" fill="#E0E0E0"/>
<path d="M154.926 373.389L160.788 376.83L160.775 369.988L154.926 373.389Z" fill="#E6E6E6"/>
<path d="M160.535 303.593L103.398 336.824L160.535 303.593Z" fill="#CFCFCF"/>
<path opacity="0.8" d="M160.708 362.879L160.629 336.878V336.811L103.492 370.042L103.559 396.11L160.708 362.879Z" fill="white"/>
<path opacity="0.8" d="M160.615 329.675L160.535 303.593L103.398 336.824L103.465 362.906L160.615 329.675Z" fill="white"/>
<path d="M141.911 324.132L141.884 320.53L122.09 332.031L122.116 335.633L141.911 324.132Z" fill="#E0E0E0"/>
<path d="M141.911 356.881L141.884 353.279L122.09 364.78L122.116 368.382L141.911 356.881Z" fill="#E0E0E0"/>
<path d="M97.2042 333.276L36.5449 297.769L36.7709 378.169L97.4302 413.676L97.2042 333.276Z" fill="#EBEBEB"/>
<path d="M97.2042 333.276L166.677 292.869L106.031 257.375L36.5449 297.769L97.2042 333.276Z" fill="#F0F0F0"/>
<path opacity="0.1" d="M302.193 77.8574C301.205 76.1115 299.744 74.6856 297.979 73.747C291.492 69.9848 281.003 69.9848 274.556 73.747C272.805 74.6859 271.361 76.113 270.395 77.8574C268.773 81.1377 270.182 84.833 274.635 87.417C281.123 91.1927 291.612 91.1927 298.059 87.417C302.486 84.833 303.855 81.1377 302.193 77.8574Z" fill="black"/>
<path d="M302.857 300.433C302.751 302.803 301.156 305.16 298.058 306.967C291.611 310.743 281.122 310.743 274.635 306.967C271.511 305.16 269.902 302.803 269.756 300.433V305.695C269.756 308.172 271.391 310.649 274.635 312.537C281.122 316.299 291.611 316.299 298.058 312.537C301.289 310.649 302.884 308.172 302.857 305.695V300.433Z" fill="#E0E0E0"/>
<path d="M274.635 306.967C281.123 310.743 291.611 310.743 298.059 306.967C301.156 305.16 302.752 302.803 302.858 300.433C302.903 299.384 302.674 298.34 302.193 297.407C301.205 295.662 299.743 294.236 297.979 293.297C291.492 289.535 281.003 289.535 274.556 293.297C272.803 294.227 271.358 295.651 270.395 297.394C269.928 298.331 269.708 299.373 269.757 300.42C269.903 302.803 271.511 305.146 274.635 306.967Z" fill="#F0F0F0"/>
<path d="M273.81 126.472H273.318V170.455H273.81V126.472Z" fill="#E0E0E0"/>
<path d="M274.742 170.937C274.742 171.178 274.671 171.413 274.538 171.613C274.405 171.814 274.216 171.97 273.995 172.062C273.774 172.154 273.531 172.179 273.296 172.132C273.061 172.085 272.846 171.968 272.677 171.798C272.507 171.628 272.392 171.411 272.346 171.174C272.299 170.938 272.323 170.693 272.414 170.47C272.506 170.248 272.661 170.057 272.86 169.923C273.059 169.79 273.293 169.718 273.532 169.718C273.853 169.718 274.161 169.847 274.387 170.075C274.614 170.304 274.742 170.613 274.742 170.937Z" fill="#F0F0F0"/>
<path d="M289.286 110.62H283.33V298.693C283.352 298.957 283.443 299.211 283.595 299.427C283.747 299.644 283.954 299.816 284.194 299.925C284.846 300.261 285.569 300.436 286.301 300.436C287.034 300.436 287.756 300.261 288.408 299.925C288.648 299.817 288.855 299.646 289.005 299.429C289.155 299.211 289.243 298.957 289.259 298.693L289.286 110.62Z" fill="#E0E0E0"/>
<path d="M320.513 118.72C316.697 105.331 302.167 77.8708 302.167 77.8708C303.829 81.1511 302.46 84.8464 298.033 87.4304C291.585 91.2061 281.097 91.2061 274.609 87.4304C270.156 84.8464 268.747 81.1511 270.369 77.8708C270.369 77.8708 255.839 105.398 252.037 118.72C249.458 125.415 252.622 132.645 261.528 137.826C275.287 145.859 297.528 145.859 311.207 137.826C320.074 132.631 323.158 125.361 320.513 118.72Z" fill="#F0F0F0"/>
<path d="M302.193 77.8574C301.205 76.1115 299.744 74.6856 297.979 73.747C291.492 69.9848 281.003 69.9848 274.556 73.747C272.805 74.6859 271.361 76.113 270.395 77.8574C268.773 81.1377 270.182 84.833 274.635 87.417C281.123 91.1927 291.612 91.1927 298.059 87.417C302.486 84.833 303.855 81.1377 302.193 77.8574Z" fill="#E0E0E0"/>
<path opacity="0.05" d="M89.1345 282.68C96.8581 278.194 109.314 278.194 117.051 282.68C124.788 287.165 124.669 294.435 116.958 298.92C109.248 303.406 96.7784 303.406 89.0414 298.92C81.3045 294.435 81.4241 287.165 89.1345 282.68Z" fill="black"/>
<path d="M82.4464 254.443L103.61 255.072L124.774 254.443C125.691 268.849 122.899 283.51 119.044 290.673C118.136 292.516 116.669 294.021 114.857 294.971C108.608 298.599 98.5185 298.599 92.2572 294.971C90.4232 294.004 88.9563 292.456 88.0829 290.566C84.2942 283.363 81.5424 268.769 82.4464 254.443Z" fill="white"/>
<path d="M88.6954 245.713C80.4001 250.547 80.3602 258.352 88.6024 263.119C96.8445 267.885 110.231 267.952 118.527 263.119C126.822 258.285 126.862 250.48 118.62 245.713C110.378 240.947 96.9907 240.88 88.6954 245.713Z" fill="#EBEBEB"/>
<path d="M91.9802 247.641C85.5061 251.403 85.4662 257.495 91.9004 261.258C98.3346 265.02 108.783 265.02 115.244 261.258C121.705 257.495 121.758 251.403 115.324 247.641C108.89 243.879 98.4409 243.879 91.9802 247.641Z" fill="#E0E0E0"/>
<g opacity="0.15">
<path d="M91.9782 247.641C85.5042 251.403 85.4643 257.495 91.8985 261.258C98.3326 265.02 108.782 265.02 115.242 261.258C121.703 257.495 121.756 251.403 115.322 247.641C108.888 243.879 98.439 243.879 91.9782 247.641Z" fill="black"/>
</g>
<path d="M105.379 255.045C103.683 256.479 101.672 257.486 99.513 257.982C97.3538 258.478 95.1085 258.449 92.9627 257.897C90.8966 257.263 89.0198 256.121 87.5019 254.573C85.984 253.026 84.8728 251.122 84.2686 249.034C86.775 247.833 89.0696 246.227 91.0617 244.281C87.8845 243.486 84.5495 243.607 81.437 244.629C80.5766 243.265 80.0613 241.71 79.9362 240.1C79.811 238.489 80.0799 236.872 80.7192 235.39C84.3305 233.772 88.3927 233.487 92.1917 234.587C90.6202 233.212 88.7855 232.176 86.8009 231.542C84.8162 230.909 82.7238 230.692 80.6527 230.905C80.3528 224.795 81.3031 218.689 83.4444 212.964C91.3276 213.366 98.9848 216.793 101.564 219.257C101.685 222.101 101.389 224.948 100.686 227.705C101.705 227.179 102.575 226.402 103.216 225.447C103.857 224.493 104.249 223.39 104.355 222.243C109.287 223.488 111.401 225.965 112.172 227.866C111.46 231.399 109.848 234.684 107.493 237.399C112.132 235.993 114.02 230.785 114.02 230.785C118.513 241.67 117.636 253.987 105.379 255.045Z" fill="#6C63FF"/>
<path opacity="0.2" d="M105.379 255.045C103.683 256.479 101.672 257.486 99.513 257.982C97.3538 258.478 95.1085 258.449 92.9627 257.897C90.8966 257.263 89.0198 256.121 87.5019 254.573C85.984 253.026 84.8728 251.122 84.2686 249.034C86.775 247.833 89.0696 246.227 91.0617 244.281C87.8845 243.486 84.5495 243.607 81.437 244.629C80.5766 243.265 80.0613 241.71 79.9362 240.1C79.811 238.489 80.0799 236.872 80.7192 235.39C84.3305 233.772 88.3927 233.487 92.1917 234.587C90.6202 233.212 88.7855 232.176 86.8009 231.542C84.8162 230.909 82.7238 230.692 80.6527 230.905C80.3528 224.795 81.3031 218.689 83.4444 212.964C91.3276 213.366 98.9848 216.793 101.564 219.257C101.685 222.101 101.389 224.948 100.686 227.705C101.705 227.179 102.575 226.402 103.216 225.447C103.857 224.493 104.249 223.39 104.355 222.243C109.287 223.488 111.401 225.965 112.172 227.866C111.46 231.399 109.848 234.684 107.493 237.399C112.132 235.993 114.02 230.785 114.02 230.785C118.513 241.67 117.636 253.987 105.379 255.045Z" fill="black"/>
<path opacity="0.3" d="M105.379 255.045C103.683 256.479 101.672 257.486 99.513 257.982C97.3538 258.478 95.1085 258.449 92.9627 257.897C90.8966 257.263 89.0198 256.121 87.5019 254.573C85.984 253.026 84.8728 251.122 84.2686 249.034C86.775 247.833 89.0696 246.227 91.0617 244.281C87.8845 243.486 84.5495 243.607 81.437 244.629C80.5766 243.265 80.0613 241.71 79.9362 240.1C79.811 238.489 80.0799 236.872 80.7192 235.39C84.3305 233.772 88.3927 233.487 92.1917 234.587C90.6202 233.212 88.7855 232.176 86.8009 231.542C84.8162 230.909 82.7238 230.692 80.6527 230.905C80.3528 224.795 81.3031 218.689 83.4444 212.964C91.3276 213.366 98.9848 216.793 101.564 219.257C101.685 222.101 101.389 224.948 100.686 227.705C101.705 227.179 102.575 226.402 103.216 225.447C103.857 224.493 104.249 223.39 104.355 222.243C109.287 223.488 111.401 225.965 112.172 227.866C111.46 231.399 109.848 234.684 107.493 237.399C112.132 235.993 114.02 230.785 114.02 230.785C118.513 241.67 117.636 253.987 105.379 255.045Z" fill="white"/>
<path d="M105.658 256.223C105.718 256.22 105.776 256.205 105.829 256.179C105.883 256.153 105.931 256.116 105.97 256.071C106.01 256.027 106.04 255.974 106.06 255.918C106.079 255.861 106.087 255.801 106.084 255.741C105.326 245.7 99.6229 229.138 86.0367 215.468C85.9967 215.414 85.9457 215.37 85.8872 215.338C85.8287 215.305 85.764 215.286 85.6975 215.282C85.631 215.277 85.5643 215.286 85.5018 215.31C85.4393 215.333 85.3826 215.37 85.3355 215.418C85.2884 215.465 85.2519 215.522 85.2286 215.585C85.2053 215.648 85.1957 215.715 85.2004 215.782C85.2051 215.849 85.2241 215.914 85.256 215.973C85.2879 216.032 85.332 216.084 85.3853 216.124C98.812 229.606 104.435 245.927 105.166 255.808C105.18 255.928 105.238 256.038 105.33 256.115C105.422 256.192 105.539 256.231 105.658 256.223Z" fill="#F5F5F5"/>
<path d="M101.923 260.428C103.506 261.727 105.37 262.632 107.366 263.068C109.361 263.504 111.43 263.459 113.405 262.937C115.38 262.415 117.204 261.431 118.73 260.064C120.255 258.697 121.438 256.987 122.183 255.072C119.917 254.034 117.844 252.612 116.055 250.868C119.056 250.145 122.194 250.238 125.148 251.136C126.048 249.991 126.644 248.634 126.876 247.193C127.109 245.752 126.972 244.274 126.477 242.902C123.038 241.478 119.226 241.247 115.643 242.245C118.83 239.735 122.845 238.539 126.876 238.898C127.566 233.496 127.048 228.007 125.36 222.832C117.836 223.287 110.392 226.42 107.813 228.642C107.52 231.142 107.623 233.673 108.118 236.14C107.207 235.706 106.432 235.025 105.881 234.174C105.329 233.324 105.022 232.336 104.994 231.32C100.288 232.472 98.1613 234.694 97.3238 236.368C97.7761 239.48 99.0943 242.4 101.126 244.789C96.8718 243.571 95.4228 238.979 95.4228 238.979C90.4775 248.645 90.544 259.504 101.923 260.428Z" fill="#6C63FF"/>
<path opacity="0.3" d="M101.923 260.428C103.506 261.727 105.37 262.632 107.366 263.068C109.361 263.504 111.43 263.459 113.405 262.937C115.38 262.415 117.204 261.431 118.73 260.064C120.255 258.697 121.438 256.987 122.183 255.072C119.917 254.034 117.844 252.612 116.055 250.868C119.056 250.145 122.194 250.238 125.148 251.136C126.048 249.991 126.644 248.634 126.876 247.193C127.109 245.752 126.972 244.274 126.477 242.902C123.038 241.478 119.226 241.247 115.643 242.245C118.83 239.735 122.845 238.539 126.876 238.898C127.566 233.496 127.048 228.007 125.36 222.832C117.836 223.287 110.392 226.42 107.813 228.642C107.52 231.142 107.623 233.673 108.118 236.14C107.207 235.706 106.432 235.025 105.881 234.174C105.329 233.324 105.022 232.336 104.994 231.32C100.288 232.472 98.1613 234.694 97.3238 236.368C97.7761 239.48 99.0943 242.4 101.126 244.789C96.8718 243.571 95.4228 238.979 95.4228 238.979C90.4775 248.645 90.544 259.504 101.923 260.428Z" fill="white"/>
<path d="M101.615 261.512C101.724 261.513 101.83 261.475 101.914 261.403C101.997 261.332 102.051 261.233 102.067 261.124C103.397 252.381 109.671 237.881 123.178 225.764C123.26 225.675 123.306 225.557 123.306 225.436C123.306 225.314 123.26 225.197 123.178 225.108C123.091 225.022 122.974 224.974 122.852 224.974C122.73 224.974 122.613 225.022 122.526 225.108C108.847 237.385 102.453 252.126 101.137 261.017C101.118 261.136 101.146 261.257 101.216 261.355C101.285 261.453 101.391 261.519 101.509 261.539L101.615 261.512Z" fill="white"/>
<path d="M94.0406 457.591L68.9554 458.328L43.8568 457.591C42.78 474.662 46.0901 492.041 50.6499 500.543C51.7324 502.725 53.4728 504.506 55.6217 505.63C63.0264 509.942 74.9907 509.942 82.3422 505.63C84.5234 504.487 86.2705 502.652 87.314 500.409C91.8472 491.867 95.1174 474.568 94.0406 457.591Z" fill="white"/>
<path d="M86.6365 447.242C96.4606 452.959 96.5137 462.224 86.7561 467.941C76.9985 473.658 61.0992 473.658 51.2618 467.941C41.4245 462.224 41.3846 452.959 51.1555 447.242C60.9264 441.525 76.8124 441.525 86.6365 447.242Z" fill="#EBEBEB"/>
<path d="M82.7538 449.518C90.4243 453.976 90.4641 461.206 82.8335 465.665C75.2029 470.123 62.8929 470.123 55.156 465.665C47.419 461.206 47.4456 453.976 55.0629 449.518C62.6802 445.059 75.0833 445.059 82.7538 449.518Z" fill="#E0E0E0"/>
<g opacity="0.15">
<path d="M82.7538 449.518C90.4243 453.976 90.4641 461.206 82.8335 465.665C75.2029 470.123 62.8929 470.123 55.156 465.665C47.419 461.206 47.4456 453.976 55.0629 449.518C62.6802 445.059 75.0833 445.059 82.7538 449.518Z" fill="black"/>
</g>
<path d="M110.205 349.758C53.6671 368.408 53.1486 406.5 65.8973 433.679C69.1144 439.182 78.8454 442.127 87.3135 408.387L72.4511 410.248L89.733 401.412L94.2396 387.876L79.8026 388.96L98.1213 381.195C101.506 370.476 105.542 359.977 110.205 349.758Z" fill="#6C63FF"/>
<path opacity="0.2" d="M110.205 349.758C53.6671 368.408 53.1486 406.5 65.8973 433.679C69.1144 439.182 78.8454 442.127 87.3135 408.387L72.4511 410.248L89.733 401.412L94.2396 387.876L79.8026 388.96L98.1213 381.195C101.506 370.476 105.542 359.977 110.205 349.758Z" fill="black"/>
<path opacity="0.2" d="M110.205 349.758C53.6671 368.408 53.1486 406.5 65.8973 433.679C69.1144 439.182 78.8454 442.127 87.3135 408.387L72.4511 410.248L89.733 401.412L94.2396 387.876L79.8026 388.96L98.1213 381.195C101.506 370.476 105.542 359.977 110.205 349.758Z" fill="white"/>
<path d="M94.2129 359.291C64.3951 382.052 61.6964 408.213 70.1247 435.486C67.1469 411.467 63.9298 387.18 94.2129 359.291Z" fill="white"/>
<path d="M14.4375 388.451C70.1648 396.364 76.9181 431.751 69.54 459.158C67.4529 464.808 58.9051 469.186 45.4252 439.182L59.5697 438.472L41.9954 433.117L35.5745 421.267L49.1873 419.862L30.8553 415.698C25.9438 406.285 20.4608 397.185 14.4375 388.451Z" fill="#6C63FF"/>
<path opacity="0.2" d="M14.4375 388.451C70.1648 396.364 76.9181 431.751 69.54 459.158C67.4529 464.808 58.9051 469.186 45.4252 439.182L59.5697 438.472L41.9954 433.117L35.5745 421.267L49.1873 419.862L30.8553 415.698C25.9438 406.285 20.4608 397.185 14.4375 388.451Z" fill="white"/>
<path d="M30.8965 394.65C62.4292 410.891 69.2489 434.817 65.8989 461.595C64.7025 438.727 63.7054 415.564 30.8965 394.65Z" fill="white"/>
<path opacity="0.1" d="M14.4375 388.451C70.1648 396.364 76.9181 431.751 69.54 459.158C67.4529 464.808 58.9051 469.186 45.4252 439.182L59.5697 438.472L41.9954 433.117L35.5745 421.267L49.1873 419.862L30.8553 415.698C25.9438 406.285 20.4608 397.185 14.4375 388.451Z" fill="black"/>
<path d="M126.517 401.72C75.4026 402.563 65.3658 433.706 68.995 459.292C70.2446 464.647 77.4897 469.521 92.9238 444.002L80.2814 441.712L96.7125 438.887L103.811 428.939L91.7007 426.128L108.69 424.441C114.165 416.507 120.119 408.919 126.517 401.72Z" fill="#6C63FF"/>
<path d="M110.991 405.455C80.7606 416.528 71.9735 437.294 72.0001 461.795C75.616 441.364 79.0989 420.598 110.991 405.455Z" fill="white"/>
<path opacity="0.2" d="M126.517 401.72C75.4026 402.563 65.3658 433.706 68.995 459.292C70.2446 464.647 77.4897 469.521 92.9238 444.002L80.2814 441.712L96.7125 438.887L103.811 428.939L91.7007 426.128L108.69 424.441C114.165 416.507 120.119 408.919 126.517 401.72Z" fill="white"/>
<path d="M554.892 100.297C553.526 97.4834 551.348 95.1504 548.644 93.6026L386.129 0.483296C385.368 0.191068 384.563 0.0325614 383.749 0.0146866C375.374 -0.159368 366.972 7.78021 365.789 11.9441C365.52 12.4702 365.379 13.0529 365.377 13.6445V367.565C365.376 370.328 366.101 373.042 367.479 375.431C368.856 377.82 370.837 379.799 373.22 381.168L535.75 474.448C535.952 474.546 536.161 474.631 536.374 474.702C546.065 478.839 556.395 470.23 556.395 461.22V107.206C556.423 104.818 555.91 102.454 554.892 100.297Z" fill="#37474F"/>
<path d="M365.842 11.9308C367.025 7.76689 375.427 -0.119134 383.802 0.00136519C384.602 0.0237846 385.393 0.182216 386.141 0.469975L548.591 93.6027C550.983 94.9729 552.977 96.9491 554.376 99.3353C555.775 101.722 556.531 104.435 556.567 107.206V461.26C556.567 470.271 546.238 478.88 536.547 474.742C536.333 474.672 536.124 474.587 535.922 474.488L373.273 381.168C370.89 379.799 368.909 377.82 367.531 375.431C366.154 373.042 365.429 370.328 365.43 367.565V13.658C365.428 13.0573 365.569 12.465 365.842 11.9308Z" fill="#455A64"/>
<path d="M533.835 144.628C533.848 143.246 533.498 141.886 532.821 140.685C532.144 139.484 531.164 138.483 529.98 137.786L379.016 51.3609C378.425 51.0199 377.754 50.8419 377.072 50.8448C376.39 50.8478 375.721 51.0315 375.132 51.3776C374.544 51.7237 374.055 52.22 373.717 52.8164C373.379 53.4128 373.203 54.0884 373.207 54.7751V340.252C373.203 341.631 373.561 342.986 374.245 344.181C374.93 345.375 375.915 346.366 377.102 347.053L528.026 433.679C528.617 434.019 529.286 434.197 529.967 434.195C530.648 434.193 531.316 434.01 531.904 433.666C532.493 433.321 532.981 432.827 533.32 432.232C533.659 431.638 533.837 430.964 533.835 430.278V144.628Z" fill="#6C63FF"/>
<path opacity="0.2" d="M533.835 144.628C533.848 143.246 533.498 141.886 532.821 140.685C532.144 139.484 531.164 138.483 529.98 137.786L379.016 51.3609C378.425 51.0199 377.754 50.8419 377.072 50.8448C376.39 50.8478 375.721 51.0315 375.132 51.3776C374.544 51.7237 374.055 52.22 373.717 52.8164C373.379 53.4128 373.203 54.0884 373.207 54.7751V340.252C373.203 341.631 373.561 342.986 374.245 344.181C374.93 345.375 375.915 346.366 377.102 347.053L528.026 433.679C528.617 434.019 529.286 434.197 529.967 434.195C530.648 434.193 531.316 434.01 531.904 433.666C532.493 433.321 532.981 432.827 533.32 432.232C533.659 431.638 533.837 430.964 533.835 430.278V144.628Z" fill="black"/>
<path opacity="0.3" d="M556.567 107.206V461.26C556.567 470.271 546.238 478.88 536.547 474.742C537.13 474.955 537.756 475.023 538.371 474.941C538.986 474.859 539.573 474.629 540.081 474.271C540.59 473.912 541.005 473.436 541.292 472.882C541.579 472.328 541.73 471.712 541.731 471.087V116.993C541.715 113.908 540.789 110.898 539.073 108.344L555.025 100.31C556.054 102.461 556.581 104.819 556.567 107.206Z" fill="black"/>
<path opacity="0.1" d="M383.748 0.014742C384.549 0.0371614 385.34 0.195593 386.088 0.483352L548.591 93.6027C551.295 95.1504 553.472 97.4835 554.839 100.297L538.886 108.33C537.559 106.286 535.768 104.588 533.662 103.377L371.239 10.2572C370.779 9.99448 370.271 9.82918 369.745 9.77146C369.219 9.71374 368.687 9.7648 368.182 9.92152C367.677 10.0782 367.208 10.3373 366.806 10.6828C366.404 11.0283 366.075 11.453 365.842 11.9308C367.012 7.78026 375.413 -0.119146 383.748 0.014742Z" fill="white"/>
<path d="M433.493 68.7262C432.35 68.0568 431.406 68.579 431.393 69.9045C431.436 70.6294 431.647 71.334 432.009 71.9618C432.372 72.5896 432.875 73.1231 433.48 73.5194L465.385 92.063C466.528 92.7324 467.445 92.1701 467.458 90.8446C467.419 90.1272 467.212 89.4294 466.854 88.808C466.496 88.1867 465.997 87.6596 465.398 87.2698L433.493 68.7262Z" fill="#263238"/>
<path d="M473.561 92.0228C472.417 91.3667 471.5 91.8889 471.5 93.2144C471.532 93.9372 471.735 94.642 472.091 95.2705C472.447 95.899 472.946 96.4333 473.547 96.8294C474.69 97.4854 475.634 96.9499 475.634 95.6244C475.596 94.9017 475.388 94.1985 475.027 93.5725C474.667 92.9464 474.164 92.4154 473.561 92.0228Z" fill="#263238"/>
<path d="M453.156 66.0351C450.869 64.6962 449.035 65.7539 449.021 68.4049C449.095 69.8464 449.505 71.2501 450.219 72.5017C450.933 73.7534 451.93 74.8177 453.129 75.6081C455.402 76.947 457.303 75.8491 457.303 73.2115C457.221 71.771 456.803 70.3704 456.082 69.1234C455.362 67.8765 454.359 66.8184 453.156 66.0351Z" fill="#263238"/>
<path d="M453.142 399.337C448.502 396.659 444.754 398.788 444.74 404.157C444.877 407.101 445.705 409.971 447.156 412.531C448.607 415.091 450.641 417.269 453.089 418.884C457.728 421.562 461.583 419.366 461.597 413.997C461.43 411.056 460.578 408.196 459.109 405.649C457.64 403.102 455.596 400.939 453.142 399.337Z" fill="#263238"/>
<path d="M508.325 154.388C508.139 153.892 507.927 153.397 507.701 152.915C506.774 151.01 505.444 149.333 503.805 148.001C503.241 147.557 502.646 147.154 502.024 146.796L354.504 62.2727C354.261 62.1629 354.007 62.082 353.746 62.0317C353.308 61.9394 352.863 61.8813 352.416 61.8577C347.671 61.764 342.911 64.5354 339.747 67.5479C338.148 68.9461 336.904 70.7088 336.118 72.6892C336.01 72.9271 335.921 73.1733 335.852 73.4256C335.783 73.6922 335.747 73.9667 335.746 74.2423V395.481C335.745 397.988 336.406 400.451 337.66 402.617C337.969 403.151 338.311 403.665 338.684 404.157C339.827 405.645 341.25 406.892 342.872 407.825L490.432 492.483C490.613 492.574 490.8 492.655 490.99 492.724C490.99 492.724 490.99 492.724 491.057 492.724C499.857 496.472 509.229 488.707 509.229 480.473V159.208C509.208 157.561 508.902 155.93 508.325 154.388Z" fill="#6C63FF"/>
<path d="M336.092 72.6893C337.169 68.9003 344.799 61.6971 352.39 61.8578C353.122 61.872 353.846 62.0124 354.53 62.2728L502.091 146.796C504.246 148.051 506.039 149.852 507.291 152.02C508.544 154.187 509.212 156.647 509.23 159.154V480.54C509.23 488.734 499.924 496.54 491.057 492.791C491.057 492.791 491.057 492.791 490.991 492.791C490.8 492.722 490.613 492.641 490.432 492.55L342.872 407.892C340.71 406.649 338.912 404.853 337.661 402.685C336.409 400.517 335.749 398.055 335.746 395.548V74.2424C335.741 73.7048 335.86 73.1734 336.092 72.6893Z" fill="#6C63FF"/>
<path opacity="0.2" d="M509.163 159.208V480.54C509.163 488.734 499.857 496.539 490.99 492.791C490.99 492.791 490.99 492.791 490.924 492.791C491.454 492.984 492.023 493.045 492.583 492.971C493.142 492.896 493.675 492.688 494.138 492.362C494.6 492.037 494.978 491.604 495.24 491.101C495.502 490.598 495.64 490.038 495.643 489.47V168.138C495.632 165.342 494.799 162.613 493.25 160.292L507.701 153.022C508.647 154.946 509.147 157.061 509.163 159.208Z" fill="white"/>
<path opacity="0.4" d="M352.377 61.8578C353.108 61.872 353.832 62.0124 354.517 62.2728L502.077 146.796C504.536 148.216 506.514 150.348 507.754 152.915L493.304 160.185C492.098 158.328 490.471 156.786 488.558 155.687L340.997 71.1496C340.578 70.9127 340.115 70.7644 339.636 70.7139C339.158 70.6633 338.675 70.7116 338.215 70.8557C337.756 70.9999 337.331 71.2368 336.966 71.5521C336.601 71.8673 336.303 72.2543 336.092 72.6893C337.222 68.9003 344.786 61.6971 352.377 61.8578Z" fill="white"/>
<path opacity="0.3" d="M336.092 72.6893C337.169 68.9003 344.799 61.6971 352.39 61.8578C353.122 61.872 353.846 62.0124 354.53 62.2728L502.091 146.796C504.246 148.051 506.039 149.852 507.291 152.02C508.544 154.187 509.212 156.647 509.23 159.154V480.54C509.23 488.734 499.924 496.54 491.057 492.791C491.057 492.791 491.057 492.791 490.991 492.791C490.8 492.722 490.613 492.641 490.432 492.55L342.872 407.892C340.71 406.649 338.912 404.853 337.661 402.685C336.409 400.517 335.749 398.055 335.746 395.548V74.2424C335.741 73.7048 335.86 73.1734 336.092 72.6893Z" fill="white"/>
<path d="M480.502 226.299L349.027 149.836C347.764 149.099 346.74 149.688 346.74 151.175L346.527 300.42C346.566 301.224 346.793 302.007 347.191 302.705C347.588 303.404 348.144 303.997 348.814 304.437L480.276 380.887C481.539 381.61 482.562 381.034 482.575 379.548L482.762 230.289C482.725 229.492 482.501 228.714 482.108 228.02C481.715 227.327 481.165 226.737 480.502 226.299Z" fill="#6C63FF"/>
<path d="M355.049 100.244L356.617 101.154L356.631 94.3926L355.075 93.4822L355.049 100.244Z" fill="white"/>
<path d="M352.363 98.6771L353.919 99.5875L353.945 94.1115L352.377 93.2144L352.363 98.6771Z" fill="white"/>
<path d="M349.678 97.1106L351.233 98.021L351.246 93.9642L349.691 93.0537L349.678 97.1106Z" fill="white"/>
<path d="M346.992 95.5575L348.548 96.4545L348.561 93.7232L346.992 92.8128V95.5575Z" fill="white"/>
<path d="M360.871 103.618L370.429 109.187L370.443 103.51L360.884 97.9407L360.871 103.618Z" fill="white"/>
<path d="M375.189 111.945L379.975 114.73L379.989 109.053L375.203 106.282L375.189 111.945Z" fill="white"/>
<path d="M473.908 168.647L473.921 164.068L479.053 167.054L473.921 164.068L473.908 168.647Z" fill="white"/>
<path d="M473.908 168.647L479.053 171.633V167.054L473.921 164.068L473.908 168.647Z" fill="#6C63FF"/>
<path d="M482.668 169.919V168.125L472.977 162.488V169.183L482.668 174.819V173.039L483.904 173.762V170.575L482.668 169.919ZM479.052 171.7L473.907 168.714V164.135L479.052 167.121V171.7Z" fill="white"/>
<path d="M459.084 160.627L468.642 166.184L468.669 160.507L459.097 154.95L459.084 160.627Z" fill="white"/>
<path d="M413.434 133.742L422.992 139.312L423.018 133.635L413.447 128.066L413.434 133.742Z" fill="white"/>
<path d="M391.06 375.089L391.047 380.753L415.561 395.012L415.587 389.349L391.06 375.089Z" fill="#6C63FF"/>
<path d="M426.823 377.379L401.591 362.691L401.564 368.355L426.809 383.029L426.823 377.379Z" fill="#6C63FF"/>
<path d="M348.84 346.518L379.828 364.66L379.841 359.009L348.853 340.868L348.84 346.518Z" fill="#6C63FF"/>
<path d="M394.797 358.755L348.88 331.924L348.867 337.574L394.784 364.405L394.797 358.755Z" fill="#6C63FF"/>
<path d="M386.594 368.596L442.507 401.104L442.52 395.454L386.62 362.946L386.594 368.596Z" fill="#6C63FF"/>
<path d="M385.106 371.635L348.88 350.574L348.867 356.225L385.093 377.285L385.106 371.635Z" fill="#6C63FF"/>
<path d="M433.322 386.818L478.003 412.806L478.029 407.142L433.336 381.155L433.322 386.818Z" fill="#6C63FF"/>
<path d="M449.023 404.893L477.991 421.736L478.004 416.086L449.05 399.243L449.023 404.893Z" fill="#6C63FF"/>
<path d="M348.867 375.665L404.781 408.173L404.794 402.523L348.88 370.002L348.867 375.665Z" fill="#6C63FF"/>
<path d="M348.88 383.364L348.867 389.027L385.106 410.088V404.424L348.88 383.364Z" fill="#6C63FF"/>
<path d="M413.077 420.678L390.982 407.839V413.502L413.063 426.342L413.077 420.678Z" fill="#6C63FF"/>
<path d="M352.216 314.09C351.877 313.839 351.478 313.685 351.059 313.642C350.641 313.6 350.219 313.671 349.837 313.849C348.508 314.599 348.508 317.049 349.837 319.325L350.595 320.664L355.327 328.911L360.086 326.234L360.857 325.792C362.187 325.042 362.187 322.578 360.857 320.302C360.298 319.257 359.484 318.373 358.491 317.732C358.149 317.487 357.75 317.337 357.333 317.294C356.916 317.252 356.495 317.32 356.112 317.491L355.341 317.932L354.583 316.594C354.02 315.569 353.205 314.707 352.216 314.09Z" fill="white"/>
<path d="M371.947 325.832C373.646 326.945 375.061 328.447 376.075 330.215C377.09 331.984 377.674 333.968 377.782 336.007C377.82 337.04 377.542 338.059 376.985 338.926L377.756 342.769L374.831 340.171C373.8 340.208 372.781 339.933 371.907 339.381C370.209 338.267 368.797 336.764 367.785 334.996C366.773 333.228 366.191 331.244 366.084 329.206C366.097 325.457 368.716 323.958 371.947 325.832Z" fill="white"/>
<path d="M422.023 205.734L428.816 218.239L438.693 221.707L442.867 234.721L452.851 241.897L454.007 254.135L463.127 264.324L461.119 274.593L468.484 286.777L463.539 294.074L468.431 307.088L461.026 310.689L462.954 323.248L453.808 322.806L452.598 333.678L442.601 329.233L438.374 337.36L428.51 329.34L421.664 333.932L412.903 323.141L404.116 323.73L397.31 311.211L387.446 307.757L383.271 294.73L373.288 287.567L372.144 275.316L363.025 265.14L365.019 254.858L357.654 242.674L362.6 235.377L357.707 222.363L365.125 218.761L363.184 206.203L372.331 206.658L373.54 195.786L383.537 200.218L387.778 192.091L397.629 200.111L404.475 195.532L413.235 206.323L422.023 205.734Z" fill="#6C63FF"/>
<g opacity="0.4">
<path d="M422.023 205.734L428.816 218.239L438.693 221.707L442.867 234.721L452.851 241.897L454.007 254.135L463.127 264.324L461.119 274.593L468.484 286.777L463.539 294.074L468.431 307.088L461.026 310.689L462.954 323.248L453.808 322.806L452.598 333.678L442.601 329.233L438.374 337.36L428.51 329.34L421.664 333.932L412.903 323.141L404.116 323.73L397.31 311.211L387.446 307.757L383.271 294.73L373.288 287.567L372.144 275.316L363.025 265.14L365.019 254.858L357.654 242.674L362.6 235.377L357.707 222.363L365.125 218.761L363.184 206.203L372.331 206.658L373.54 195.786L383.537 200.218L387.778 192.091L397.629 200.111L404.475 195.532L413.235 206.323L422.023 205.734Z" fill="white"/>
</g>
<path d="M413.209 215.856C436.526 229.419 455.363 262.289 455.284 289.28C455.204 316.272 436.247 327.144 412.996 313.595C389.746 300.045 370.842 267.162 370.908 240.17C370.975 213.178 389.879 202.307 413.209 215.856Z" fill="#6C63FF"/>
<g opacity="0.2">
<path d="M413.209 215.856C436.526 229.419 455.363 262.289 455.284 289.28C455.204 316.272 436.247 327.144 412.996 313.595C389.746 300.045 370.842 267.162 370.908 240.17C370.975 213.178 389.879 202.307 413.209 215.856Z" fill="white"/>
</g>
<path d="M441.923 258.285C442.947 258.874 443.558 260.816 442.641 261.15C434.253 264.23 416.479 271.607 405.631 282.211C405.25 282.506 404.783 282.667 404.302 282.667C403.821 282.667 403.354 282.506 402.973 282.211C401.817 281.503 400.893 280.47 400.314 279.239C395.333 269.141 389.753 259.354 383.604 249.931C382.487 248.217 383.205 246.597 384.534 247.373C384.643 247.434 384.746 247.506 384.84 247.588C391.541 253.263 397.409 259.867 402.268 267.202C418.699 256.572 433.615 256.853 441.485 258.125C441.639 258.152 441.788 258.206 441.923 258.285Z" fill="white"/>
<path d="M357.773 128.655C360.246 130.275 362.303 132.461 363.776 135.035C365.25 137.608 366.1 140.496 366.255 143.463C366.255 148.899 362.413 151.094 357.72 148.363C355.238 146.748 353.171 144.565 351.687 141.991C350.204 139.417 349.347 136.526 349.186 133.555C349.252 128.119 353.067 125.923 357.773 128.655Z" fill="white"/>
<path d="M419.936 171.151L374.019 144.32L374.006 149.983L419.922 176.814L419.936 171.151Z" fill="white"/>
<path d="M215.066 180.697H216.396C225.037 180.804 235.951 186.722 241.295 201.905L262.046 242.366L238.317 252.93L225.356 214.731L215.066 180.697Z" fill="#FFA8A7"/>
<path d="M231.697 207.568C233.346 212.348 233.452 217.503 233.718 222.55C233.984 227.598 234.555 233.717 236.855 238.215C239.387 236.451 242.417 235.559 245.494 235.672C248.57 235.786 251.528 236.899 253.924 238.845C255.645 240.296 256.968 242.168 257.766 244.281L238.317 252.93L225.356 214.731L218.988 193.671C221.919 195.019 224.552 196.942 226.735 199.329C228.917 201.715 230.604 204.516 231.697 207.568Z" fill="#F28F8F"/>
<path d="M238.104 245.66C239.004 243.406 240.461 241.421 242.336 239.893C244.211 238.365 246.443 237.345 248.819 236.93C253.552 236.167 258.936 238.657 262.007 242.379C264.586 245.526 264.187 249.783 262.552 253.519C261.189 256.423 258.869 258.761 255.987 260.135C253.105 261.51 249.839 261.835 246.745 261.057C240.63 259.343 235.791 251.591 238.104 245.66Z" fill="#FFA8A7"/>
<path d="M162.688 506.568C162.16 507.638 161.338 508.534 160.32 509.148C159.302 509.763 158.131 510.071 156.945 510.035C155.892 509.833 154.91 509.355 154.098 508.65C153.286 507.946 152.673 507.038 152.319 506.019C151.618 503.994 151.298 501.855 151.375 499.713C151.233 492.572 151.401 485.458 151.88 478.371C156.745 479.404 161.704 479.924 166.676 479.924L164.403 499.672C164.282 502.061 163.7 504.404 162.688 506.568Z" fill="#FFA8A7"/>
<path d="M147.242 496.325C149.077 490.394 151.084 484.275 150.659 478.13L151.882 478.424C151.403 485.52 151.235 492.634 151.376 499.766C151.3 501.909 151.62 504.048 152.32 506.072C152.674 507.092 153.288 507.999 154.1 508.704C154.912 509.409 155.893 509.887 156.946 510.089C158.133 510.124 159.304 509.816 160.322 509.202C161.34 508.587 162.161 507.692 162.689 506.621C163.701 504.457 164.284 502.115 164.404 499.726L166.677 480.031H168.246C166.917 487.395 167.861 494.96 168.326 502.444C168.791 509.928 168.711 517.721 165.521 524.482C164.784 526.308 163.525 527.874 161.905 528.981C161.013 529.467 160.032 529.765 159.022 529.857C158.012 529.949 156.993 529.833 156.029 529.516C154.106 528.865 152.359 527.775 150.924 526.33C147.672 523.191 145.505 519.085 144.743 514.614C143.706 508.469 145.407 502.243 147.242 496.325Z" fill="#455A64"/>
<path d="M224.333 490.648L223.123 497.986C217.34 495.201 215.479 492.081 215.479 492.081C215.333 486.458 215.399 480.66 215.479 477.835C217.021 481.263 220.384 483.579 222.485 486.739C223.258 487.961 223.879 489.274 224.333 490.648Z" fill="#455A64"/>
<path d="M226.192 497.182L223.121 497.986L224.331 490.648C225.089 492.75 225.554 495 226.192 497.182Z" fill="#455A64"/>
<path opacity="0.2" d="M224.333 490.648L223.123 497.986C217.34 495.201 215.479 492.081 215.479 492.081C215.333 486.458 215.399 480.66 215.479 477.835C217.021 481.263 220.384 483.579 222.485 486.739C223.258 487.961 223.879 489.274 224.333 490.648Z" fill="black"/>
<path opacity="0.3" d="M226.192 497.182L223.121 497.986L224.331 490.648C225.089 492.75 225.554 495 226.192 497.182Z" fill="black"/>
<path d="M215.158 469.695C215.77 467.754 216.572 465.88 217.551 464.098C217.635 467.114 218.556 470.045 220.21 472.56C222.284 475.934 225.062 478.839 227.07 482.28C229.502 486.458 230.765 491.371 233.956 494.986C235.53 496.737 237.487 498.095 239.672 498.952C241.857 499.81 244.21 500.143 246.545 499.927C248.298 499.862 249.957 499.113 251.171 497.838C251.657 497.205 251.923 496.429 251.929 495.629C253.502 497.33 255.244 498.864 257.127 500.208C259.227 501.681 261.753 503.234 262.099 505.791C262.153 506.861 261.897 507.924 261.361 508.849C260.825 509.774 260.033 510.521 259.081 510.999C257.153 511.9 255.051 512.357 252.926 512.338C248.377 512.738 243.795 512.344 239.38 511.174C234.944 509.956 231.105 507.146 228.585 503.274C227.504 501.347 226.69 499.279 226.166 497.129C225.567 494.946 225.062 492.697 224.304 490.595C223.838 489.218 223.204 487.905 222.417 486.685C220.316 483.526 216.953 481.209 215.411 477.782C215.331 477.594 215.238 477.42 215.158 477.233C214.372 474.783 214.372 472.145 215.158 469.695Z" fill="#455A64"/>
<path d="M246.572 499.927C244.237 500.143 241.884 499.81 239.699 498.952C237.514 498.095 235.557 496.737 233.983 494.986C230.792 491.371 229.529 486.458 227.096 482.28C225.089 478.839 222.311 475.934 220.237 472.56C218.583 470.045 217.662 467.114 217.578 464.098L218.336 462.679C224.624 463.804 231.51 464.205 237.559 466.267C239.423 472.671 241.797 478.912 244.657 484.931C246.596 488.825 249.061 492.43 251.982 495.642C251.977 496.442 251.71 497.219 251.225 497.852C250.002 499.128 248.332 499.873 246.572 499.927Z" fill="#FFA8A7"/>
<path d="M229.544 235.658C229.889 241.014 230.231 246.369 230.567 251.725C242.598 301.678 239.009 376.308 239.009 376.308L238.637 467.352C236.932 468.478 235.022 469.251 233.018 469.626C231.013 470 228.955 469.969 226.963 469.534C224.97 469.099 223.084 468.269 221.414 467.092C219.743 465.915 218.322 464.415 217.234 462.679C215.187 440.306 204.857 405.107 207.928 377.673C203.767 356.024 200.67 325.229 200.67 325.229L190.553 378.49L169.483 481.276C160.177 485.293 151.922 482.535 149.236 478.893C151.39 422.191 150.473 394.932 159.153 368.716C156.495 298.385 155.644 266.6 172.66 242.433L172.447 233.302L229.544 235.658Z" fill="#6C63FF"/>
<path opacity="0.3" d="M229.544 235.658C229.889 241.014 230.231 246.369 230.567 251.725C242.598 301.678 239.009 376.308 239.009 376.308L238.637 467.352C236.932 468.478 235.022 469.251 233.018 469.626C231.013 470 228.955 469.969 226.963 469.534C224.97 469.099 223.084 468.269 221.414 467.092C219.743 465.915 218.322 464.415 217.234 462.679C215.187 440.306 204.857 405.107 207.928 377.673C203.767 356.024 200.67 325.229 200.67 325.229L190.553 378.49L169.483 481.276C160.177 485.293 151.922 482.535 149.236 478.893C151.39 422.191 150.473 394.932 159.153 368.716C156.495 298.385 155.644 266.6 172.66 242.433L172.447 233.302L229.544 235.658Z" fill="black"/>
<path opacity="0.2" d="M202.956 313.354C209.255 312.204 215.185 309.535 220.237 305.575C219.27 308.392 217.603 310.913 215.394 312.898C213.186 314.883 210.51 316.266 207.622 316.915L202.304 339.114L200.709 325.377L202.956 313.354Z" fill="black"/>
<path d="M208.539 179.76L214.641 180.215C215.813 180.303 216.951 180.656 217.969 181.25C218.987 181.844 219.858 182.662 220.517 183.643L234.608 204.663C236.681 207.737 237.698 211.41 237.504 215.121C237.309 218.833 235.914 222.378 233.531 225.215C232.64 226.272 231.978 227.506 231.589 228.837C231.2 230.167 231.092 231.565 231.271 232.94L236.084 280.912C208.379 301.625 170.599 289.2 157.996 282.439C158.475 272.036 162.848 258.473 168.086 249.208C169.764 246.262 170.843 243.01 171.261 239.64C171.678 236.27 171.426 232.85 170.519 229.58L166.531 215.16L172.3 180.831L208.539 179.76Z" fill="#455A64"/>
<path d="M231.604 131.091C232.083 133.675 234.103 141.454 232.083 145.819C231.112 147.894 230.022 149.153 230.753 151.335C231.484 153.518 234.529 154.776 234.941 157.186C235.286 159.128 233.771 160.815 232.84 162.542C232.186 163.772 231.811 165.133 231.74 166.526C231.669 167.92 231.905 169.312 232.431 170.603C232.957 171.894 233.76 173.052 234.782 173.993C235.804 174.935 237.021 175.638 238.344 176.051C236.569 175.938 234.84 175.433 233.281 174.572C231.721 173.711 230.368 172.516 229.317 171.07C228.376 169.62 227.777 167.972 227.565 166.253C227.353 164.533 227.534 162.788 228.094 161.149C228.507 160.221 228.806 159.245 228.985 158.244C229.145 156.262 227.829 154.508 226.792 152.808C224.457 149.124 223.474 144.733 224.013 140.397C224.611 136.045 227.789 133.046 231.604 131.091Z" fill="#263238"/>
<path d="M232.083 135.978C232.066 131.807 231.025 127.704 229.052 124.035C223.735 113.659 212.861 106.108 201.282 105.934C195.814 105.772 190.447 107.429 186.007 110.647C181.168 114.288 178.031 119.872 176.29 125.696C174.426 131.218 174.195 137.168 175.625 142.82C177.233 148.376 181.275 153.397 186.725 155.245C190.309 156.26 194.068 156.484 197.746 155.901C205.648 155.054 213.411 153.2 220.85 150.385C223.642 149.327 226.473 148.51 228.374 146.114C230.69 143.241 231.994 139.677 232.083 135.978Z" fill="#263238"/>
<path d="M208.539 167.241V180.871C208.539 180.871 219.587 187.981 214.934 191.743C206.16 198.852 187.336 180.791 187.336 180.791V158.057L208.539 167.241Z" fill="#FFA8A7"/>
<path d="M187.336 158.057C189.928 169.999 202.451 177.35 208.539 178.836V167.241L187.336 158.057Z" fill="#F28F8F"/>
<path d="M173.14 144.815C173.933 143.312 175.266 142.17 176.866 141.621C178.466 141.072 180.213 141.157 181.753 141.86C183.292 142.563 184.508 143.83 185.153 145.404C185.798 146.977 185.823 148.739 185.224 150.331C185.802 150.569 186.429 150.661 187.05 150.597C187.671 150.534 188.267 150.319 188.787 149.97C189.854 149.225 190.655 148.155 191.073 146.917C191.469 145.252 191.749 143.561 191.911 141.856C195.287 141.32 197.228 135.724 197.228 135.162C198.052 135.322 213.712 136.045 218.764 126.901C225.584 128.066 227.897 136.112 228.07 136.072C228.585 138.906 228.803 141.787 228.721 144.668C228.47 150.583 227.428 156.438 225.624 162.073C224.294 166.532 223.124 171.084 218.631 173.4C216.012 174.651 213.091 175.116 210.216 174.739C199.674 173.655 189.73 165.474 184.958 156.169C184.12 157.189 182.954 157.882 181.662 158.127C180.37 158.371 179.034 158.152 177.886 157.508C175.936 156.028 174.36 154.106 173.286 151.898C172.75 150.799 172.459 149.596 172.433 148.373C172.408 147.149 172.649 145.935 173.14 144.815Z" fill="#FFA8A7"/>
<path d="M214.164 145.605L219.614 155.767L212.582 156.798L214.164 145.605Z" fill="#F28F8F"/>
<path d="M205.721 159.944L210.919 162.756C210.44 163.345 209.784 163.76 209.05 163.939C208.316 164.117 207.544 164.05 206.851 163.747C206.258 163.34 205.821 162.74 205.616 162.048C205.41 161.355 205.447 160.612 205.721 159.944Z" fill="#F28F8F"/>
<path opacity="0.3" d="M205.721 159.944L210.919 162.756C210.44 163.345 209.784 163.76 209.05 163.939C208.316 164.117 207.544 164.05 206.851 163.747C206.258 163.34 205.821 162.74 205.616 162.048C205.41 161.355 205.447 160.612 205.721 159.944Z" fill="black"/>
<path d="M208.685 164.001C208.062 164.096 207.425 164.008 206.85 163.747C206.37 163.457 205.987 163.03 205.75 162.519C205.513 162.009 205.433 161.438 205.521 160.882C206.342 160.895 207.126 161.227 207.711 161.808C208.295 162.389 208.634 163.174 208.658 164.001H208.685Z" fill="#F28F8F"/>
<path d="M204.032 145.578C203.976 145.974 204.037 146.378 204.208 146.738C204.38 147.099 204.654 147.4 204.995 147.604C205.336 147.808 205.73 147.906 206.127 147.884C206.523 147.863 206.904 147.724 207.222 147.484C207.54 147.244 207.78 146.915 207.912 146.538C208.044 146.161 208.062 145.753 207.964 145.366C207.866 144.978 207.656 144.629 207.361 144.362C207.066 144.094 206.698 143.921 206.305 143.864C206.044 143.826 205.778 143.841 205.523 143.906C205.267 143.972 205.027 144.088 204.816 144.247C204.605 144.406 204.427 144.606 204.293 144.834C204.158 145.062 204.07 145.315 204.032 145.578Z" fill="#263238"/>
<path d="M220.798 147.319C220.744 147.714 220.808 148.117 220.981 148.476C221.154 148.835 221.429 149.135 221.771 149.337C222.113 149.539 222.507 149.634 222.903 149.611C223.299 149.588 223.679 149.447 223.996 149.207C224.312 148.966 224.551 148.637 224.682 148.26C224.812 147.883 224.829 147.475 224.731 147.089C224.632 146.702 224.421 146.353 224.126 146.087C223.831 145.82 223.464 145.648 223.071 145.592C222.809 145.554 222.542 145.569 222.286 145.635C222.03 145.701 221.789 145.818 221.578 145.979C221.366 146.139 221.189 146.34 221.055 146.57C220.921 146.8 220.834 147.055 220.798 147.319Z" fill="#263238"/>
<path d="M223.854 139.62L227.842 143.315C228.112 142.795 228.216 142.203 228.14 141.621C228.064 141.039 227.811 140.494 227.416 140.062C226.922 139.661 226.327 139.408 225.697 139.329C225.068 139.251 224.429 139.352 223.854 139.62Z" fill="#263238"/>
<path d="M206.944 136.956L202.105 139.406C201.996 138.825 202.065 138.225 202.303 137.685C202.54 137.145 202.934 136.69 203.434 136.38C204.015 136.144 204.65 136.073 205.269 136.174C205.887 136.276 206.467 136.546 206.944 136.956Z" fill="#263238"/>
<path d="M191.698 140.758C192.469 143.597 193.227 146.743 191.911 149.381C191.113 150.974 189.624 152.152 188.826 153.745C188.04 155.598 187.836 157.65 188.241 159.623C188.645 161.582 188.898 163.569 188.999 165.568C188.972 167.056 188.645 168.523 188.039 169.881C187.433 171.238 186.56 172.458 185.473 173.467C184.386 174.475 183.107 175.251 181.714 175.749C180.321 176.246 178.842 176.453 177.367 176.359C179.627 176.68 182.366 174.605 183.535 172.624C184.621 170.573 185.035 168.23 184.719 165.929C184.506 163.64 183.881 161.404 183.482 159.141C182.957 156.891 182.957 154.549 183.482 152.299C184.134 150.01 185.662 147.814 185.197 145.484C184.945 144.212 184.12 143.101 183.987 141.816C183.925 140.975 184.157 140.138 184.643 139.451C185.128 138.764 185.837 138.27 186.646 138.054C188.335 137.679 191.246 139.125 191.698 140.758Z" fill="#263238"/>
<path opacity="0.3" d="M209.816 113.418C208.599 114.844 207.129 116.029 205.482 116.913C199.595 120.291 192.882 121.929 186.113 121.639C184.746 121.654 183.391 121.395 182.125 120.876C181.261 120.44 180.516 119.799 179.953 119.008C179.391 118.217 179.027 117.301 178.895 116.337C180.632 113.119 183.106 110.365 186.113 108.304C190.485 105.535 195.574 104.137 200.736 104.287C203.798 104.342 206.835 104.852 209.749 105.8C210.45 106.549 210.936 107.474 211.158 108.478C211.298 109.35 211.25 110.242 211.019 111.094C210.787 111.947 210.377 112.739 209.816 113.418Z" fill="black"/>
<path d="M213.858 100.11C213.206 94.6604 208.713 90.2421 203.568 88.381C198.406 86.621 192.789 86.7825 187.735 88.8363C182.715 90.9187 178.36 94.3508 175.146 98.7574C172.807 101.877 170.932 105.679 171.384 109.576C171.889 114.101 175.598 117.836 179.919 119.229C184.347 120.485 189.041 120.43 193.438 119.068C196.336 118.211 205.602 114.462 207.929 111.972C210.933 108.732 214.376 104.448 213.858 100.11Z" fill="#263238"/>
<path opacity="0.2" d="M183.707 218.882C186.61 223.076 190.847 226.146 195.717 227.587C200.587 229.029 205.8 228.754 210.494 226.808C208.505 228.753 206.063 230.164 203.392 230.912C200.721 231.661 197.907 231.723 195.206 231.093C189.875 229.714 185.302 224.184 183.707 218.882Z" fill="black"/>
<path d="M220.343 279.52C220.335 279.551 220.335 279.583 220.343 279.614C220.329 279.653 220.329 279.695 220.343 279.734L222.47 282.184C222.462 282.131 222.462 282.077 222.47 282.024C222.55 282.399 223.108 282.385 224.025 281.863L241.852 271.768C243.231 270.966 244.402 269.847 245.269 268.501L260.769 239.434C261.022 238.952 261.008 238.671 260.769 238.537H260.836L258.788 236.087C258.711 236.019 258.612 235.981 258.509 235.979H258.389H258.283H258.177H258.084H257.991H257.898H257.805H257.712H257.605H257.512H257.419H257.313L239.486 246.075H239.393H239.286L239.193 246.142H239.114H239.034H238.967L238.741 246.342V246.409V246.476L238.675 246.557L238.608 246.637V246.731L238.542 246.824V246.918L238.475 247.012L238.409 247.106V247.199V247.28V247.36L222.908 276.427V276.507C222.903 276.534 222.903 276.561 222.908 276.588V276.668C222.903 276.695 222.903 276.722 222.908 276.748C222.904 276.775 222.904 276.802 222.908 276.829C222.554 276.486 222.079 276.299 221.588 276.309C221.097 276.319 220.63 276.526 220.29 276.882C219.949 277.239 219.764 277.718 219.774 278.212C219.784 278.707 219.988 279.177 220.343 279.52ZM260.357 238.483C260.357 238.483 260.423 238.483 260.477 238.483C260.437 238.48 260.397 238.48 260.357 238.483ZM239.619 250.533C239.765 250.386 239.938 250.252 240.111 250.105C239.938 250.252 239.765 250.346 239.619 250.493V250.533ZM222.483 281.903C222.478 281.872 222.478 281.84 222.483 281.809C222.477 281.858 222.477 281.908 222.483 281.957C222.483 281.957 222.483 281.876 222.483 281.863V281.903Z" fill="#E0E0E0"/>
<path opacity="0.2" d="M220.343 279.52C220.335 279.551 220.335 279.583 220.343 279.614C220.329 279.653 220.329 279.695 220.343 279.734L222.47 282.184C222.462 282.131 222.462 282.077 222.47 282.024C222.55 282.399 223.108 282.385 224.025 281.863L241.852 271.768C243.231 270.966 244.402 269.847 245.269 268.501L260.769 239.434C261.022 238.952 261.008 238.671 260.769 238.537H260.836L258.788 236.087C258.711 236.019 258.612 235.981 258.509 235.979H258.389H258.283H258.177H258.084H257.991H257.898H257.805H257.712H257.605H257.512H257.419H257.313L239.486 246.075H239.393H239.286L239.193 246.142H239.114H239.034H238.967L238.741 246.342V246.409V246.476L238.675 246.557L238.608 246.637V246.731L238.542 246.824V246.918L238.475 247.012L238.409 247.106V247.199V247.28V247.36L222.908 276.427V276.507C222.903 276.534 222.903 276.561 222.908 276.588V276.668C222.903 276.695 222.903 276.722 222.908 276.748C222.904 276.775 222.904 276.802 222.908 276.829C222.554 276.486 222.079 276.299 221.588 276.309C221.097 276.319 220.63 276.526 220.29 276.882C219.949 277.239 219.764 277.718 219.774 278.212C219.784 278.707 219.988 279.177 220.343 279.52ZM260.357 238.483C260.357 238.483 260.423 238.483 260.477 238.483C260.437 238.48 260.397 238.48 260.357 238.483ZM239.619 250.533C239.765 250.386 239.938 250.252 240.111 250.105C239.938 250.252 239.765 250.346 239.619 250.493V250.533ZM222.483 281.903C222.478 281.872 222.478 281.84 222.483 281.809C222.477 281.858 222.477 281.908 222.483 281.957C222.483 281.957 222.483 281.876 222.483 281.863V281.903Z" fill="black"/>
<path opacity="0.15" d="M220.358 279.44C220.353 279.413 220.353 279.386 220.358 279.359C220.352 279.333 220.352 279.305 220.358 279.279V279.199C220.352 279.172 220.352 279.145 220.358 279.118V279.038L235.858 249.971L237.985 252.421L222.684 281.314C222.588 281.48 222.521 281.661 222.485 281.85C222.47 281.905 222.468 281.962 222.48 282.018C222.491 282.074 222.516 282.126 222.551 282.171L220.424 279.721C220.41 279.682 220.41 279.639 220.424 279.6C220.416 279.57 220.416 279.537 220.424 279.507C220.396 279.491 220.373 279.468 220.358 279.44Z" fill="white"/>
<path opacity="0.2" d="M236.099 249.716V249.636V249.542L236.165 249.449L236.232 249.355V249.261L236.298 249.167V249.074L236.365 248.993L236.431 248.913V248.846V248.779L236.657 248.578H236.724H236.803H236.883L236.976 248.511H237.083H237.176L255.003 238.416H255.109H255.202H255.295H255.401H255.494H255.587H255.681H255.774H255.867H255.973H256.079H256.199C256.302 238.418 256.4 238.456 256.478 238.523L258.592 240.974C258.503 240.866 258.33 240.84 258.073 240.893C257.731 240.98 257.403 241.12 257.103 241.308L241.616 248.913C241.261 249.113 240.923 249.341 240.605 249.596C240.267 249.859 239.943 250.14 239.635 250.439C239.334 250.721 239.05 251.021 238.784 251.336C238.567 251.606 238.372 251.893 238.199 252.193L236.072 249.743L236.099 249.716Z" fill="white"/>
<path d="M158.382 194.139C159.858 183.428 167.222 181.219 172.234 180.831C172.234 180.831 178.522 185.182 178.522 204.569L177.99 253.077L181.527 254.563C191.471 258.843 201.861 261.987 212.501 263.935C218.053 259.501 224.957 257.136 232.043 257.241L229.384 262.181C234.369 265.395 245.629 259.597 245.629 259.597C246.453 266.667 241.907 274.004 235.871 277.726C229.836 281.448 172.261 275.985 160.097 268.019C152.041 262.851 155.271 216.9 158.382 194.139Z" fill="#FFA8A7"/>
<path d="M257.807 245.03C258.194 246.94 258.412 248.88 258.458 250.828C258.016 255.462 256.068 259.821 252.915 263.226C252.258 263.971 251.439 264.553 250.522 264.926C250.061 265.104 249.562 265.157 249.074 265.079C248.586 265.002 248.127 264.797 247.743 264.484C247.069 263.669 246.727 262.625 246.786 261.566C246.637 259.995 246.722 258.411 247.039 256.866C247.352 255.298 248.221 253.898 249.485 252.93C250.468 252.366 251.511 251.917 252.596 251.591C253.664 251.135 254.618 250.444 255.387 249.569L257.807 245.03Z" fill="#FFA8A7"/>
<path d="M261.687 132.551L297.952 111.584C301.129 109.75 308.587 112.24 308.587 117.381C308.585 116.965 308.475 116.557 308.268 116.196C308.061 115.836 307.764 115.537 307.406 115.328C307.049 115.12 306.643 115.009 306.23 115.008C305.816 115.006 305.41 115.114 305.051 115.319L268.772 136.286C267.582 136.985 266.624 138.025 266.02 139.272L258.975 135.255C259.612 134.118 260.551 133.182 261.687 132.551Z" fill="#6C63FF"/>
<path d="M266.088 139.272C265.575 140.261 265.302 141.357 265.29 142.472V169.598C265.289 170.013 265.397 170.422 265.602 170.783C265.808 171.144 266.104 171.443 266.461 171.652C266.818 171.861 267.223 171.972 267.636 171.973C268.049 171.974 268.455 171.866 268.813 171.66C267.768 172.302 266.574 172.658 265.35 172.69C264.126 172.722 262.915 172.43 261.839 171.843C260.762 171.257 259.857 170.395 259.215 169.345C258.572 168.296 258.215 167.095 258.178 165.862V138.736C258.179 137.511 258.495 136.308 259.095 135.242L266.088 139.272Z" fill="#6C63FF"/>
<path opacity="0.4" d="M261.687 132.551L297.952 111.584C301.129 109.75 308.587 112.24 308.587 117.381C308.585 116.965 308.475 116.557 308.268 116.196C308.061 115.836 307.764 115.537 307.406 115.328C307.049 115.12 306.643 115.009 306.23 115.008C305.816 115.006 305.41 115.114 305.051 115.319L268.772 136.286C267.582 136.985 266.624 138.025 266.02 139.272L258.975 135.255C259.612 134.118 260.551 133.182 261.687 132.551Z" fill="white"/>
<path opacity="0.2" d="M266.088 139.272C265.575 140.261 265.302 141.357 265.29 142.472V169.598C265.289 170.013 265.397 170.422 265.602 170.783C265.808 171.144 266.104 171.443 266.461 171.652C266.818 171.861 267.223 171.972 267.636 171.973C268.049 171.974 268.455 171.866 268.813 171.66C267.768 172.302 266.574 172.658 265.35 172.69C264.126 172.722 262.915 172.43 261.839 171.843C260.762 171.257 259.857 170.395 259.215 169.345C258.572 168.296 258.215 167.095 258.178 165.862V138.736C258.179 137.511 258.495 136.308 259.095 135.242L266.088 139.272Z" fill="white"/>
<path d="M305.119 115.319L268.84 136.286C267.761 136.912 266.865 137.814 266.242 138.9C265.619 139.985 265.291 141.218 265.291 142.472V169.598C265.29 170.013 265.398 170.422 265.603 170.783C265.809 171.144 266.105 171.443 266.462 171.652C266.819 171.861 267.224 171.972 267.637 171.973C268.05 171.974 268.456 171.866 268.814 171.66L305.092 150.786C306.173 150.161 307.071 149.26 307.697 148.174C308.322 147.089 308.653 145.856 308.655 144.601V117.381C308.654 116.965 308.544 116.557 308.336 116.196C308.129 115.836 307.832 115.537 307.475 115.328C307.117 115.12 306.711 115.009 306.298 115.008C305.885 115.006 305.478 115.114 305.119 115.319Z" fill="#6C63FF"/>
<path d="M256.556 156.303L265.276 157.949V146.689L256.25 155.272C256.169 155.348 256.112 155.446 256.083 155.554C256.054 155.661 256.056 155.775 256.088 155.882C256.119 155.989 256.18 156.085 256.262 156.159C256.345 156.233 256.447 156.283 256.556 156.303Z" fill="#6C63FF"/>
<path d="M265.276 146.689L258.124 142.566L249.111 151.242C249.043 151.307 248.991 151.387 248.959 151.476C248.927 151.565 248.917 151.66 248.928 151.754C248.94 151.848 248.974 151.938 249.026 152.016C249.079 152.095 249.149 152.16 249.231 152.206L256.356 156.222L265.276 146.689Z" fill="#6C63FF"/>
<path opacity="0.2" d="M265.276 146.689L258.124 142.566L249.111 151.242C249.043 151.307 248.991 151.387 248.959 151.476C248.927 151.565 248.917 151.66 248.928 151.754C248.94 151.848 248.974 151.938 249.026 152.016C249.079 152.095 249.149 152.16 249.231 152.206L256.356 156.222L265.276 146.689Z" fill="white"/>
<path d="M299.601 124.089C300.492 123.567 301.117 124.598 300.306 125.897C294.471 135.173 289.368 144.896 285.045 154.977C284.601 156.115 283.81 157.081 282.785 157.735C282.47 157.985 282.082 158.121 281.681 158.121C281.281 158.121 280.892 157.985 280.578 157.735C278.426 155.674 276.074 153.835 273.559 152.246C272.868 151.804 273.439 150.184 274.33 149.662C274.437 149.598 274.554 149.552 274.676 149.528C277.303 149.003 279.999 148.926 282.652 149.3C287.074 140.399 292.58 132.088 299.043 124.558C299.2 124.369 299.389 124.21 299.601 124.089Z" fill="white"/>
</svg>
